M48
INCH,TZ
T1C0.0197
%
G90
G05
T1
X56791Y-17421
X56791Y-17717
X56791Y-18012
X56791Y-18307
X56791Y-18602
X56791Y-18898
X56791Y-19193
X57382Y-17421
X57382Y-17717
X57382Y-18012
X57382Y-18307
X57382Y-18602
X57382Y-18898
X57382Y-19193
X56791Y-34350
X56791Y-34646
X56791Y-34941
X56791Y-35236
X56791Y-35531
X56791Y-35827
X56791Y-36122
X57382Y-34350
X57382Y-34646
X57382Y-34941
X57382Y-35236
X57382Y-35531
X57382Y-35827
X57382Y-36122
X56791Y-50886
X56791Y-51181
X56791Y-51476
X56791Y-51772
X56791Y-52067
X56791Y-52362
X56791Y-52657
X57382Y-50886
X57382Y-51181
X57382Y-51476
X57382Y-51772
X57382Y-52067
X57382Y-52362
X57382Y-52657
T0
M30
