G04 #@! TF.GenerationSoftware,KiCad,Pcbnew,(5.1.5)-3*
G04 #@! TF.CreationDate,2020-08-24T21:46:46+02:00*
G04 #@! TF.ProjectId,Panel-Snake_game,50616e65-6c2d-4536-9e61-6b655f67616d,v3.1*
G04 #@! TF.SameCoordinates,Original*
G04 #@! TF.FileFunction,Legend,Bot*
G04 #@! TF.FilePolarity,Positive*
%FSLAX46Y46*%
G04 Gerber Fmt 4.6, Leading zero omitted, Abs format (unit mm)*
G04 Created by KiCad (PCBNEW (5.1.5)-3) date 2020-08-24 21:46:46*
%MOMM*%
%LPD*%
G04 APERTURE LIST*
%ADD10C,0.150000*%
%ADD11C,0.120000*%
G04 APERTURE END LIST*
D10*
X187622023Y-105114761D02*
X187479166Y-105162380D01*
X187241071Y-105162380D01*
X187145833Y-105114761D01*
X187098214Y-105067142D01*
X187050595Y-104971904D01*
X187050595Y-104876666D01*
X187098214Y-104781428D01*
X187145833Y-104733809D01*
X187241071Y-104686190D01*
X187431547Y-104638571D01*
X187526785Y-104590952D01*
X187574404Y-104543333D01*
X187622023Y-104448095D01*
X187622023Y-104352857D01*
X187574404Y-104257619D01*
X187526785Y-104210000D01*
X187431547Y-104162380D01*
X187193452Y-104162380D01*
X187050595Y-104210000D01*
X186622023Y-104495714D02*
X186622023Y-105162380D01*
X186622023Y-104590952D02*
X186574404Y-104543333D01*
X186479166Y-104495714D01*
X186336309Y-104495714D01*
X186241071Y-104543333D01*
X186193452Y-104638571D01*
X186193452Y-105162380D01*
X185288690Y-105162380D02*
X185288690Y-104638571D01*
X185336309Y-104543333D01*
X185431547Y-104495714D01*
X185622023Y-104495714D01*
X185717261Y-104543333D01*
X185288690Y-105114761D02*
X185383928Y-105162380D01*
X185622023Y-105162380D01*
X185717261Y-105114761D01*
X185764880Y-105019523D01*
X185764880Y-104924285D01*
X185717261Y-104829047D01*
X185622023Y-104781428D01*
X185383928Y-104781428D01*
X185288690Y-104733809D01*
X184812500Y-105162380D02*
X184812500Y-104162380D01*
X184717261Y-104781428D02*
X184431547Y-105162380D01*
X184431547Y-104495714D02*
X184812500Y-104876666D01*
X183622023Y-105114761D02*
X183717261Y-105162380D01*
X183907738Y-105162380D01*
X184002976Y-105114761D01*
X184050595Y-105019523D01*
X184050595Y-104638571D01*
X184002976Y-104543333D01*
X183907738Y-104495714D01*
X183717261Y-104495714D01*
X183622023Y-104543333D01*
X183574404Y-104638571D01*
X183574404Y-104733809D01*
X184050595Y-104829047D01*
X181955357Y-104495714D02*
X181955357Y-105305238D01*
X182002976Y-105400476D01*
X182050595Y-105448095D01*
X182145833Y-105495714D01*
X182288690Y-105495714D01*
X182383928Y-105448095D01*
X181955357Y-105114761D02*
X182050595Y-105162380D01*
X182241071Y-105162380D01*
X182336309Y-105114761D01*
X182383928Y-105067142D01*
X182431547Y-104971904D01*
X182431547Y-104686190D01*
X182383928Y-104590952D01*
X182336309Y-104543333D01*
X182241071Y-104495714D01*
X182050595Y-104495714D01*
X181955357Y-104543333D01*
X181050595Y-105162380D02*
X181050595Y-104638571D01*
X181098214Y-104543333D01*
X181193452Y-104495714D01*
X181383928Y-104495714D01*
X181479166Y-104543333D01*
X181050595Y-105114761D02*
X181145833Y-105162380D01*
X181383928Y-105162380D01*
X181479166Y-105114761D01*
X181526785Y-105019523D01*
X181526785Y-104924285D01*
X181479166Y-104829047D01*
X181383928Y-104781428D01*
X181145833Y-104781428D01*
X181050595Y-104733809D01*
X180574404Y-105162380D02*
X180574404Y-104495714D01*
X180574404Y-104590952D02*
X180526785Y-104543333D01*
X180431547Y-104495714D01*
X180288690Y-104495714D01*
X180193452Y-104543333D01*
X180145833Y-104638571D01*
X180145833Y-105162380D01*
X180145833Y-104638571D02*
X180098214Y-104543333D01*
X180002976Y-104495714D01*
X179860119Y-104495714D01*
X179764880Y-104543333D01*
X179717261Y-104638571D01*
X179717261Y-105162380D01*
X178860119Y-105114761D02*
X178955357Y-105162380D01*
X179145833Y-105162380D01*
X179241071Y-105114761D01*
X179288690Y-105019523D01*
X179288690Y-104638571D01*
X179241071Y-104543333D01*
X179145833Y-104495714D01*
X178955357Y-104495714D01*
X178860119Y-104543333D01*
X178812500Y-104638571D01*
X178812500Y-104733809D01*
X179288690Y-104829047D01*
X177622023Y-104781428D02*
X176860119Y-104781428D01*
X175050595Y-105067142D02*
X175098214Y-105114761D01*
X175241071Y-105162380D01*
X175336309Y-105162380D01*
X175479166Y-105114761D01*
X175574404Y-105019523D01*
X175622023Y-104924285D01*
X175669642Y-104733809D01*
X175669642Y-104590952D01*
X175622023Y-104400476D01*
X175574404Y-104305238D01*
X175479166Y-104210000D01*
X175336309Y-104162380D01*
X175241071Y-104162380D01*
X175098214Y-104210000D01*
X175050595Y-104257619D01*
X174622023Y-105162380D02*
X174622023Y-104162380D01*
X174193452Y-105162380D02*
X174193452Y-104638571D01*
X174241071Y-104543333D01*
X174336309Y-104495714D01*
X174479166Y-104495714D01*
X174574404Y-104543333D01*
X174622023Y-104590952D01*
X173288690Y-105162380D02*
X173288690Y-104638571D01*
X173336309Y-104543333D01*
X173431547Y-104495714D01*
X173622023Y-104495714D01*
X173717261Y-104543333D01*
X173288690Y-105114761D02*
X173383928Y-105162380D01*
X173622023Y-105162380D01*
X173717261Y-105114761D01*
X173764880Y-105019523D01*
X173764880Y-104924285D01*
X173717261Y-104829047D01*
X173622023Y-104781428D01*
X173383928Y-104781428D01*
X173288690Y-104733809D01*
X172812500Y-105162380D02*
X172812500Y-104495714D01*
X172812500Y-104686190D02*
X172764880Y-104590952D01*
X172717261Y-104543333D01*
X172622023Y-104495714D01*
X172526785Y-104495714D01*
X172050595Y-105162380D02*
X172145833Y-105114761D01*
X172193452Y-105019523D01*
X172193452Y-104162380D01*
X171764880Y-104495714D02*
X171526785Y-105162380D01*
X171288690Y-104495714D02*
X171526785Y-105162380D01*
X171622023Y-105400476D01*
X171669642Y-105448095D01*
X171764880Y-105495714D01*
X170907738Y-104495714D02*
X170907738Y-105495714D01*
X170907738Y-104543333D02*
X170812500Y-104495714D01*
X170622023Y-104495714D01*
X170526785Y-104543333D01*
X170479166Y-104590952D01*
X170431547Y-104686190D01*
X170431547Y-104971904D01*
X170479166Y-105067142D01*
X170526785Y-105114761D01*
X170622023Y-105162380D01*
X170812500Y-105162380D01*
X170907738Y-105114761D01*
X169860119Y-105162380D02*
X169955357Y-105114761D01*
X170002976Y-105019523D01*
X170002976Y-104162380D01*
X169098214Y-105114761D02*
X169193452Y-105162380D01*
X169383928Y-105162380D01*
X169479166Y-105114761D01*
X169526785Y-105019523D01*
X169526785Y-104638571D01*
X169479166Y-104543333D01*
X169383928Y-104495714D01*
X169193452Y-104495714D01*
X169098214Y-104543333D01*
X169050595Y-104638571D01*
X169050595Y-104733809D01*
X169526785Y-104829047D01*
X168717261Y-105162380D02*
X168193452Y-104495714D01*
X168717261Y-104495714D02*
X168193452Y-105162380D01*
X167812500Y-105162380D02*
X167812500Y-104495714D01*
X167812500Y-104162380D02*
X167860119Y-104210000D01*
X167812500Y-104257619D01*
X167764880Y-104210000D01*
X167812500Y-104162380D01*
X167812500Y-104257619D01*
X167336309Y-104495714D02*
X167336309Y-105162380D01*
X167336309Y-104590952D02*
X167288690Y-104543333D01*
X167193452Y-104495714D01*
X167050595Y-104495714D01*
X166955357Y-104543333D01*
X166907738Y-104638571D01*
X166907738Y-105162380D01*
X166002976Y-104495714D02*
X166002976Y-105305238D01*
X166050595Y-105400476D01*
X166098214Y-105448095D01*
X166193452Y-105495714D01*
X166336309Y-105495714D01*
X166431547Y-105448095D01*
X166002976Y-105114761D02*
X166098214Y-105162380D01*
X166288690Y-105162380D01*
X166383928Y-105114761D01*
X166431547Y-105067142D01*
X166479166Y-104971904D01*
X166479166Y-104686190D01*
X166431547Y-104590952D01*
X166383928Y-104543333D01*
X166288690Y-104495714D01*
X166098214Y-104495714D01*
X166002976Y-104543333D01*
X164764880Y-105162380D02*
X164764880Y-104495714D01*
X164764880Y-104590952D02*
X164717261Y-104543333D01*
X164622023Y-104495714D01*
X164479166Y-104495714D01*
X164383928Y-104543333D01*
X164336309Y-104638571D01*
X164336309Y-105162380D01*
X164336309Y-104638571D02*
X164288690Y-104543333D01*
X164193452Y-104495714D01*
X164050595Y-104495714D01*
X163955357Y-104543333D01*
X163907738Y-104638571D01*
X163907738Y-105162380D01*
X163050595Y-105114761D02*
X163145833Y-105162380D01*
X163336309Y-105162380D01*
X163431547Y-105114761D01*
X163479166Y-105019523D01*
X163479166Y-104638571D01*
X163431547Y-104543333D01*
X163336309Y-104495714D01*
X163145833Y-104495714D01*
X163050595Y-104543333D01*
X163002976Y-104638571D01*
X163002976Y-104733809D01*
X163479166Y-104829047D01*
X162717261Y-104495714D02*
X162336309Y-104495714D01*
X162574404Y-104162380D02*
X162574404Y-105019523D01*
X162526785Y-105114761D01*
X162431547Y-105162380D01*
X162336309Y-105162380D01*
X162002976Y-105162380D02*
X162002976Y-104162380D01*
X161574404Y-105162380D02*
X161574404Y-104638571D01*
X161622023Y-104543333D01*
X161717261Y-104495714D01*
X161860119Y-104495714D01*
X161955357Y-104543333D01*
X162002976Y-104590952D01*
X160955357Y-105162380D02*
X161050595Y-105114761D01*
X161098214Y-105067142D01*
X161145833Y-104971904D01*
X161145833Y-104686190D01*
X161098214Y-104590952D01*
X161050595Y-104543333D01*
X160955357Y-104495714D01*
X160812500Y-104495714D01*
X160717261Y-104543333D01*
X160669642Y-104590952D01*
X160622023Y-104686190D01*
X160622023Y-104971904D01*
X160669642Y-105067142D01*
X160717261Y-105114761D01*
X160812500Y-105162380D01*
X160955357Y-105162380D01*
X159764880Y-105162380D02*
X159764880Y-104162380D01*
X159764880Y-105114761D02*
X159860119Y-105162380D01*
X160050595Y-105162380D01*
X160145833Y-105114761D01*
X160193452Y-105067142D01*
X160241071Y-104971904D01*
X160241071Y-104686190D01*
X160193452Y-104590952D01*
X160145833Y-104543333D01*
X160050595Y-104495714D01*
X159860119Y-104495714D01*
X159764880Y-104543333D01*
X158907738Y-105114761D02*
X159002976Y-105162380D01*
X159193452Y-105162380D01*
X159288690Y-105114761D01*
X159336309Y-105019523D01*
X159336309Y-104638571D01*
X159288690Y-104543333D01*
X159193452Y-104495714D01*
X159002976Y-104495714D01*
X158907738Y-104543333D01*
X158860119Y-104638571D01*
X158860119Y-104733809D01*
X159336309Y-104829047D01*
X157669642Y-104781428D02*
X156907738Y-104781428D01*
X155764880Y-104495714D02*
X155526785Y-105162380D01*
X155288690Y-104495714D01*
X155002976Y-104162380D02*
X154383928Y-104162380D01*
X154717261Y-104543333D01*
X154574404Y-104543333D01*
X154479166Y-104590952D01*
X154431547Y-104638571D01*
X154383928Y-104733809D01*
X154383928Y-104971904D01*
X154431547Y-105067142D01*
X154479166Y-105114761D01*
X154574404Y-105162380D01*
X154860119Y-105162380D01*
X154955357Y-105114761D01*
X155002976Y-105067142D01*
X153955357Y-105067142D02*
X153907738Y-105114761D01*
X153955357Y-105162380D01*
X154002976Y-105114761D01*
X153955357Y-105067142D01*
X153955357Y-105162380D01*
X152955357Y-105162380D02*
X153526785Y-105162380D01*
X153241071Y-105162380D02*
X153241071Y-104162380D01*
X153336309Y-104305238D01*
X153431547Y-104400476D01*
X153526785Y-104448095D01*
X159166666Y-62452380D02*
X159166666Y-61452380D01*
X159071428Y-62071428D02*
X158785714Y-62452380D01*
X158785714Y-61785714D02*
X159166666Y-62166666D01*
X159166666Y-67452380D02*
X159166666Y-66452380D01*
X159071428Y-67071428D02*
X158785714Y-67452380D01*
X158785714Y-66785714D02*
X159166666Y-67166666D01*
X184785714Y-67452380D02*
X184785714Y-66928571D01*
X184833333Y-66833333D01*
X184928571Y-66785714D01*
X185119047Y-66785714D01*
X185214285Y-66833333D01*
X184785714Y-67404761D02*
X184880952Y-67452380D01*
X185119047Y-67452380D01*
X185214285Y-67404761D01*
X185261904Y-67309523D01*
X185261904Y-67214285D01*
X185214285Y-67119047D01*
X185119047Y-67071428D01*
X184880952Y-67071428D01*
X184785714Y-67023809D01*
X159141666Y-78047380D02*
X159141666Y-77047380D01*
X159046428Y-77666428D02*
X158760714Y-78047380D01*
X158760714Y-77380714D02*
X159141666Y-77761666D01*
X159141666Y-83127380D02*
X159141666Y-82127380D01*
X159046428Y-82746428D02*
X158760714Y-83127380D01*
X158760714Y-82460714D02*
X159141666Y-82841666D01*
X159166666Y-57452380D02*
X159166666Y-56452380D01*
X159071428Y-57071428D02*
X158785714Y-57452380D01*
X158785714Y-56785714D02*
X159166666Y-57166666D01*
X159141666Y-72967380D02*
X159141666Y-71967380D01*
X159046428Y-72586428D02*
X158760714Y-72967380D01*
X158760714Y-72300714D02*
X159141666Y-72681666D01*
X184785714Y-57452380D02*
X184785714Y-56928571D01*
X184833333Y-56833333D01*
X184928571Y-56785714D01*
X185119047Y-56785714D01*
X185214285Y-56833333D01*
X184785714Y-57404761D02*
X184880952Y-57452380D01*
X185119047Y-57452380D01*
X185214285Y-57404761D01*
X185261904Y-57309523D01*
X185261904Y-57214285D01*
X185214285Y-57119047D01*
X185119047Y-57071428D01*
X184880952Y-57071428D01*
X184785714Y-57023809D01*
X184785714Y-62452380D02*
X184785714Y-61928571D01*
X184833333Y-61833333D01*
X184928571Y-61785714D01*
X185119047Y-61785714D01*
X185214285Y-61833333D01*
X184785714Y-62404761D02*
X184880952Y-62452380D01*
X185119047Y-62452380D01*
X185214285Y-62404761D01*
X185261904Y-62309523D01*
X185261904Y-62214285D01*
X185214285Y-62119047D01*
X185119047Y-62071428D01*
X184880952Y-62071428D01*
X184785714Y-62023809D01*
X184785714Y-72452380D02*
X184785714Y-71928571D01*
X184833333Y-71833333D01*
X184928571Y-71785714D01*
X185119047Y-71785714D01*
X185214285Y-71833333D01*
X184785714Y-72404761D02*
X184880952Y-72452380D01*
X185119047Y-72452380D01*
X185214285Y-72404761D01*
X185261904Y-72309523D01*
X185261904Y-72214285D01*
X185214285Y-72119047D01*
X185119047Y-72071428D01*
X184880952Y-72071428D01*
X184785714Y-72023809D01*
X184785714Y-77452380D02*
X184785714Y-76928571D01*
X184833333Y-76833333D01*
X184928571Y-76785714D01*
X185119047Y-76785714D01*
X185214285Y-76833333D01*
X184785714Y-77404761D02*
X184880952Y-77452380D01*
X185119047Y-77452380D01*
X185214285Y-77404761D01*
X185261904Y-77309523D01*
X185261904Y-77214285D01*
X185214285Y-77119047D01*
X185119047Y-77071428D01*
X184880952Y-77071428D01*
X184785714Y-77023809D01*
X184785714Y-82452380D02*
X184785714Y-81928571D01*
X184833333Y-81833333D01*
X184928571Y-81785714D01*
X185119047Y-81785714D01*
X185214285Y-81833333D01*
X184785714Y-82404761D02*
X184880952Y-82452380D01*
X185119047Y-82452380D01*
X185214285Y-82404761D01*
X185261904Y-82309523D01*
X185261904Y-82214285D01*
X185214285Y-82119047D01*
X185119047Y-82071428D01*
X184880952Y-82071428D01*
X184785714Y-82023809D01*
X133785714Y-82452380D02*
X133785714Y-81928571D01*
X133833333Y-81833333D01*
X133928571Y-81785714D01*
X134119047Y-81785714D01*
X134214285Y-81833333D01*
X133785714Y-82404761D02*
X133880952Y-82452380D01*
X134119047Y-82452380D01*
X134214285Y-82404761D01*
X134261904Y-82309523D01*
X134261904Y-82214285D01*
X134214285Y-82119047D01*
X134119047Y-82071428D01*
X133880952Y-82071428D01*
X133785714Y-82023809D01*
X133785714Y-77452380D02*
X133785714Y-76928571D01*
X133833333Y-76833333D01*
X133928571Y-76785714D01*
X134119047Y-76785714D01*
X134214285Y-76833333D01*
X133785714Y-77404761D02*
X133880952Y-77452380D01*
X134119047Y-77452380D01*
X134214285Y-77404761D01*
X134261904Y-77309523D01*
X134261904Y-77214285D01*
X134214285Y-77119047D01*
X134119047Y-77071428D01*
X133880952Y-77071428D01*
X133785714Y-77023809D01*
X133785714Y-72452380D02*
X133785714Y-71928571D01*
X133833333Y-71833333D01*
X133928571Y-71785714D01*
X134119047Y-71785714D01*
X134214285Y-71833333D01*
X133785714Y-72404761D02*
X133880952Y-72452380D01*
X134119047Y-72452380D01*
X134214285Y-72404761D01*
X134261904Y-72309523D01*
X134261904Y-72214285D01*
X134214285Y-72119047D01*
X134119047Y-72071428D01*
X133880952Y-72071428D01*
X133785714Y-72023809D01*
X133785714Y-67452380D02*
X133785714Y-66928571D01*
X133833333Y-66833333D01*
X133928571Y-66785714D01*
X134119047Y-66785714D01*
X134214285Y-66833333D01*
X133785714Y-67404761D02*
X133880952Y-67452380D01*
X134119047Y-67452380D01*
X134214285Y-67404761D01*
X134261904Y-67309523D01*
X134261904Y-67214285D01*
X134214285Y-67119047D01*
X134119047Y-67071428D01*
X133880952Y-67071428D01*
X133785714Y-67023809D01*
X133785714Y-62452380D02*
X133785714Y-61928571D01*
X133833333Y-61833333D01*
X133928571Y-61785714D01*
X134119047Y-61785714D01*
X134214285Y-61833333D01*
X133785714Y-62404761D02*
X133880952Y-62452380D01*
X134119047Y-62452380D01*
X134214285Y-62404761D01*
X134261904Y-62309523D01*
X134261904Y-62214285D01*
X134214285Y-62119047D01*
X134119047Y-62071428D01*
X133880952Y-62071428D01*
X133785714Y-62023809D01*
X133785714Y-57452380D02*
X133785714Y-56928571D01*
X133833333Y-56833333D01*
X133928571Y-56785714D01*
X134119047Y-56785714D01*
X134214285Y-56833333D01*
X133785714Y-57404761D02*
X133880952Y-57452380D01*
X134119047Y-57452380D01*
X134214285Y-57404761D01*
X134261904Y-57309523D01*
X134261904Y-57214285D01*
X134214285Y-57119047D01*
X134119047Y-57071428D01*
X133880952Y-57071428D01*
X133785714Y-57023809D01*
X108141666Y-72967380D02*
X108141666Y-71967380D01*
X108046428Y-72586428D02*
X107760714Y-72967380D01*
X107760714Y-72300714D02*
X108141666Y-72681666D01*
X108141666Y-78047380D02*
X108141666Y-77047380D01*
X108046428Y-77666428D02*
X107760714Y-78047380D01*
X107760714Y-77380714D02*
X108141666Y-77761666D01*
X108141666Y-83127380D02*
X108141666Y-82127380D01*
X108046428Y-82746428D02*
X107760714Y-83127380D01*
X107760714Y-82460714D02*
X108141666Y-82841666D01*
X108166666Y-67452380D02*
X108166666Y-66452380D01*
X108071428Y-67071428D02*
X107785714Y-67452380D01*
X107785714Y-66785714D02*
X108166666Y-67166666D01*
X108166666Y-62452380D02*
X108166666Y-61452380D01*
X108071428Y-62071428D02*
X107785714Y-62452380D01*
X107785714Y-61785714D02*
X108166666Y-62166666D01*
X136622023Y-105114761D02*
X136479166Y-105162380D01*
X136241071Y-105162380D01*
X136145833Y-105114761D01*
X136098214Y-105067142D01*
X136050595Y-104971904D01*
X136050595Y-104876666D01*
X136098214Y-104781428D01*
X136145833Y-104733809D01*
X136241071Y-104686190D01*
X136431547Y-104638571D01*
X136526785Y-104590952D01*
X136574404Y-104543333D01*
X136622023Y-104448095D01*
X136622023Y-104352857D01*
X136574404Y-104257619D01*
X136526785Y-104210000D01*
X136431547Y-104162380D01*
X136193452Y-104162380D01*
X136050595Y-104210000D01*
X135622023Y-104495714D02*
X135622023Y-105162380D01*
X135622023Y-104590952D02*
X135574404Y-104543333D01*
X135479166Y-104495714D01*
X135336309Y-104495714D01*
X135241071Y-104543333D01*
X135193452Y-104638571D01*
X135193452Y-105162380D01*
X134288690Y-105162380D02*
X134288690Y-104638571D01*
X134336309Y-104543333D01*
X134431547Y-104495714D01*
X134622023Y-104495714D01*
X134717261Y-104543333D01*
X134288690Y-105114761D02*
X134383928Y-105162380D01*
X134622023Y-105162380D01*
X134717261Y-105114761D01*
X134764880Y-105019523D01*
X134764880Y-104924285D01*
X134717261Y-104829047D01*
X134622023Y-104781428D01*
X134383928Y-104781428D01*
X134288690Y-104733809D01*
X133812500Y-105162380D02*
X133812500Y-104162380D01*
X133717261Y-104781428D02*
X133431547Y-105162380D01*
X133431547Y-104495714D02*
X133812500Y-104876666D01*
X132622023Y-105114761D02*
X132717261Y-105162380D01*
X132907738Y-105162380D01*
X133002976Y-105114761D01*
X133050595Y-105019523D01*
X133050595Y-104638571D01*
X133002976Y-104543333D01*
X132907738Y-104495714D01*
X132717261Y-104495714D01*
X132622023Y-104543333D01*
X132574404Y-104638571D01*
X132574404Y-104733809D01*
X133050595Y-104829047D01*
X130955357Y-104495714D02*
X130955357Y-105305238D01*
X131002976Y-105400476D01*
X131050595Y-105448095D01*
X131145833Y-105495714D01*
X131288690Y-105495714D01*
X131383928Y-105448095D01*
X130955357Y-105114761D02*
X131050595Y-105162380D01*
X131241071Y-105162380D01*
X131336309Y-105114761D01*
X131383928Y-105067142D01*
X131431547Y-104971904D01*
X131431547Y-104686190D01*
X131383928Y-104590952D01*
X131336309Y-104543333D01*
X131241071Y-104495714D01*
X131050595Y-104495714D01*
X130955357Y-104543333D01*
X130050595Y-105162380D02*
X130050595Y-104638571D01*
X130098214Y-104543333D01*
X130193452Y-104495714D01*
X130383928Y-104495714D01*
X130479166Y-104543333D01*
X130050595Y-105114761D02*
X130145833Y-105162380D01*
X130383928Y-105162380D01*
X130479166Y-105114761D01*
X130526785Y-105019523D01*
X130526785Y-104924285D01*
X130479166Y-104829047D01*
X130383928Y-104781428D01*
X130145833Y-104781428D01*
X130050595Y-104733809D01*
X129574404Y-105162380D02*
X129574404Y-104495714D01*
X129574404Y-104590952D02*
X129526785Y-104543333D01*
X129431547Y-104495714D01*
X129288690Y-104495714D01*
X129193452Y-104543333D01*
X129145833Y-104638571D01*
X129145833Y-105162380D01*
X129145833Y-104638571D02*
X129098214Y-104543333D01*
X129002976Y-104495714D01*
X128860119Y-104495714D01*
X128764880Y-104543333D01*
X128717261Y-104638571D01*
X128717261Y-105162380D01*
X127860119Y-105114761D02*
X127955357Y-105162380D01*
X128145833Y-105162380D01*
X128241071Y-105114761D01*
X128288690Y-105019523D01*
X128288690Y-104638571D01*
X128241071Y-104543333D01*
X128145833Y-104495714D01*
X127955357Y-104495714D01*
X127860119Y-104543333D01*
X127812500Y-104638571D01*
X127812500Y-104733809D01*
X128288690Y-104829047D01*
X126622023Y-104781428D02*
X125860119Y-104781428D01*
X124050595Y-105067142D02*
X124098214Y-105114761D01*
X124241071Y-105162380D01*
X124336309Y-105162380D01*
X124479166Y-105114761D01*
X124574404Y-105019523D01*
X124622023Y-104924285D01*
X124669642Y-104733809D01*
X124669642Y-104590952D01*
X124622023Y-104400476D01*
X124574404Y-104305238D01*
X124479166Y-104210000D01*
X124336309Y-104162380D01*
X124241071Y-104162380D01*
X124098214Y-104210000D01*
X124050595Y-104257619D01*
X123622023Y-105162380D02*
X123622023Y-104162380D01*
X123193452Y-105162380D02*
X123193452Y-104638571D01*
X123241071Y-104543333D01*
X123336309Y-104495714D01*
X123479166Y-104495714D01*
X123574404Y-104543333D01*
X123622023Y-104590952D01*
X122288690Y-105162380D02*
X122288690Y-104638571D01*
X122336309Y-104543333D01*
X122431547Y-104495714D01*
X122622023Y-104495714D01*
X122717261Y-104543333D01*
X122288690Y-105114761D02*
X122383928Y-105162380D01*
X122622023Y-105162380D01*
X122717261Y-105114761D01*
X122764880Y-105019523D01*
X122764880Y-104924285D01*
X122717261Y-104829047D01*
X122622023Y-104781428D01*
X122383928Y-104781428D01*
X122288690Y-104733809D01*
X121812500Y-105162380D02*
X121812500Y-104495714D01*
X121812500Y-104686190D02*
X121764880Y-104590952D01*
X121717261Y-104543333D01*
X121622023Y-104495714D01*
X121526785Y-104495714D01*
X121050595Y-105162380D02*
X121145833Y-105114761D01*
X121193452Y-105019523D01*
X121193452Y-104162380D01*
X120764880Y-104495714D02*
X120526785Y-105162380D01*
X120288690Y-104495714D02*
X120526785Y-105162380D01*
X120622023Y-105400476D01*
X120669642Y-105448095D01*
X120764880Y-105495714D01*
X119907738Y-104495714D02*
X119907738Y-105495714D01*
X119907738Y-104543333D02*
X119812500Y-104495714D01*
X119622023Y-104495714D01*
X119526785Y-104543333D01*
X119479166Y-104590952D01*
X119431547Y-104686190D01*
X119431547Y-104971904D01*
X119479166Y-105067142D01*
X119526785Y-105114761D01*
X119622023Y-105162380D01*
X119812500Y-105162380D01*
X119907738Y-105114761D01*
X118860119Y-105162380D02*
X118955357Y-105114761D01*
X119002976Y-105019523D01*
X119002976Y-104162380D01*
X118098214Y-105114761D02*
X118193452Y-105162380D01*
X118383928Y-105162380D01*
X118479166Y-105114761D01*
X118526785Y-105019523D01*
X118526785Y-104638571D01*
X118479166Y-104543333D01*
X118383928Y-104495714D01*
X118193452Y-104495714D01*
X118098214Y-104543333D01*
X118050595Y-104638571D01*
X118050595Y-104733809D01*
X118526785Y-104829047D01*
X117717261Y-105162380D02*
X117193452Y-104495714D01*
X117717261Y-104495714D02*
X117193452Y-105162380D01*
X116812500Y-105162380D02*
X116812500Y-104495714D01*
X116812500Y-104162380D02*
X116860119Y-104210000D01*
X116812500Y-104257619D01*
X116764880Y-104210000D01*
X116812500Y-104162380D01*
X116812500Y-104257619D01*
X116336309Y-104495714D02*
X116336309Y-105162380D01*
X116336309Y-104590952D02*
X116288690Y-104543333D01*
X116193452Y-104495714D01*
X116050595Y-104495714D01*
X115955357Y-104543333D01*
X115907738Y-104638571D01*
X115907738Y-105162380D01*
X115002976Y-104495714D02*
X115002976Y-105305238D01*
X115050595Y-105400476D01*
X115098214Y-105448095D01*
X115193452Y-105495714D01*
X115336309Y-105495714D01*
X115431547Y-105448095D01*
X115002976Y-105114761D02*
X115098214Y-105162380D01*
X115288690Y-105162380D01*
X115383928Y-105114761D01*
X115431547Y-105067142D01*
X115479166Y-104971904D01*
X115479166Y-104686190D01*
X115431547Y-104590952D01*
X115383928Y-104543333D01*
X115288690Y-104495714D01*
X115098214Y-104495714D01*
X115002976Y-104543333D01*
X113764880Y-105162380D02*
X113764880Y-104495714D01*
X113764880Y-104590952D02*
X113717261Y-104543333D01*
X113622023Y-104495714D01*
X113479166Y-104495714D01*
X113383928Y-104543333D01*
X113336309Y-104638571D01*
X113336309Y-105162380D01*
X113336309Y-104638571D02*
X113288690Y-104543333D01*
X113193452Y-104495714D01*
X113050595Y-104495714D01*
X112955357Y-104543333D01*
X112907738Y-104638571D01*
X112907738Y-105162380D01*
X112050595Y-105114761D02*
X112145833Y-105162380D01*
X112336309Y-105162380D01*
X112431547Y-105114761D01*
X112479166Y-105019523D01*
X112479166Y-104638571D01*
X112431547Y-104543333D01*
X112336309Y-104495714D01*
X112145833Y-104495714D01*
X112050595Y-104543333D01*
X112002976Y-104638571D01*
X112002976Y-104733809D01*
X112479166Y-104829047D01*
X111717261Y-104495714D02*
X111336309Y-104495714D01*
X111574404Y-104162380D02*
X111574404Y-105019523D01*
X111526785Y-105114761D01*
X111431547Y-105162380D01*
X111336309Y-105162380D01*
X111002976Y-105162380D02*
X111002976Y-104162380D01*
X110574404Y-105162380D02*
X110574404Y-104638571D01*
X110622023Y-104543333D01*
X110717261Y-104495714D01*
X110860119Y-104495714D01*
X110955357Y-104543333D01*
X111002976Y-104590952D01*
X109955357Y-105162380D02*
X110050595Y-105114761D01*
X110098214Y-105067142D01*
X110145833Y-104971904D01*
X110145833Y-104686190D01*
X110098214Y-104590952D01*
X110050595Y-104543333D01*
X109955357Y-104495714D01*
X109812500Y-104495714D01*
X109717261Y-104543333D01*
X109669642Y-104590952D01*
X109622023Y-104686190D01*
X109622023Y-104971904D01*
X109669642Y-105067142D01*
X109717261Y-105114761D01*
X109812500Y-105162380D01*
X109955357Y-105162380D01*
X108764880Y-105162380D02*
X108764880Y-104162380D01*
X108764880Y-105114761D02*
X108860119Y-105162380D01*
X109050595Y-105162380D01*
X109145833Y-105114761D01*
X109193452Y-105067142D01*
X109241071Y-104971904D01*
X109241071Y-104686190D01*
X109193452Y-104590952D01*
X109145833Y-104543333D01*
X109050595Y-104495714D01*
X108860119Y-104495714D01*
X108764880Y-104543333D01*
X107907738Y-105114761D02*
X108002976Y-105162380D01*
X108193452Y-105162380D01*
X108288690Y-105114761D01*
X108336309Y-105019523D01*
X108336309Y-104638571D01*
X108288690Y-104543333D01*
X108193452Y-104495714D01*
X108002976Y-104495714D01*
X107907738Y-104543333D01*
X107860119Y-104638571D01*
X107860119Y-104733809D01*
X108336309Y-104829047D01*
X106669642Y-104781428D02*
X105907738Y-104781428D01*
X104764880Y-104495714D02*
X104526785Y-105162380D01*
X104288690Y-104495714D01*
X104002976Y-104162380D02*
X103383928Y-104162380D01*
X103717261Y-104543333D01*
X103574404Y-104543333D01*
X103479166Y-104590952D01*
X103431547Y-104638571D01*
X103383928Y-104733809D01*
X103383928Y-104971904D01*
X103431547Y-105067142D01*
X103479166Y-105114761D01*
X103574404Y-105162380D01*
X103860119Y-105162380D01*
X103955357Y-105114761D01*
X104002976Y-105067142D01*
X102955357Y-105067142D02*
X102907738Y-105114761D01*
X102955357Y-105162380D01*
X103002976Y-105114761D01*
X102955357Y-105067142D01*
X102955357Y-105162380D01*
X101955357Y-105162380D02*
X102526785Y-105162380D01*
X102241071Y-105162380D02*
X102241071Y-104162380D01*
X102336309Y-104305238D01*
X102431547Y-104400476D01*
X102526785Y-104448095D01*
X108166666Y-57452380D02*
X108166666Y-56452380D01*
X108071428Y-57071428D02*
X107785714Y-57452380D01*
X107785714Y-56785714D02*
X108166666Y-57166666D01*
D11*
X173707335Y-68323608D02*
G75*
G02X170475000Y-68480516I-1672335J1078608D01*
G01*
X173707335Y-66166392D02*
G75*
G03X170475000Y-66009484I-1672335J-1078608D01*
G01*
X173076130Y-68324837D02*
G75*
G02X170994039Y-68325000I-1041130J1079837D01*
G01*
X173076130Y-66165163D02*
G75*
G03X170994039Y-66165000I-1041130J-1079837D01*
G01*
X170475000Y-68481000D02*
X170475000Y-68325000D01*
X170475000Y-66165000D02*
X170475000Y-66009000D01*
X163547335Y-63243608D02*
G75*
G02X160315000Y-63400516I-1672335J1078608D01*
G01*
X163547335Y-61086392D02*
G75*
G03X160315000Y-60929484I-1672335J-1078608D01*
G01*
X162916130Y-63244837D02*
G75*
G02X160834039Y-63245000I-1041130J1079837D01*
G01*
X162916130Y-61085163D02*
G75*
G03X160834039Y-61085000I-1041130J-1079837D01*
G01*
X160315000Y-63401000D02*
X160315000Y-63245000D01*
X160315000Y-61085000D02*
X160315000Y-60929000D01*
X173707335Y-63243608D02*
G75*
G02X170475000Y-63400516I-1672335J1078608D01*
G01*
X173707335Y-61086392D02*
G75*
G03X170475000Y-60929484I-1672335J-1078608D01*
G01*
X173076130Y-63244837D02*
G75*
G02X170994039Y-63245000I-1041130J1079837D01*
G01*
X173076130Y-61085163D02*
G75*
G03X170994039Y-61085000I-1041130J-1079837D01*
G01*
X170475000Y-63401000D02*
X170475000Y-63245000D01*
X170475000Y-61085000D02*
X170475000Y-60929000D01*
X183867335Y-63243608D02*
G75*
G02X180635000Y-63400516I-1672335J1078608D01*
G01*
X183867335Y-61086392D02*
G75*
G03X180635000Y-60929484I-1672335J-1078608D01*
G01*
X183236130Y-63244837D02*
G75*
G02X181154039Y-63245000I-1041130J1079837D01*
G01*
X183236130Y-61085163D02*
G75*
G03X181154039Y-61085000I-1041130J-1079837D01*
G01*
X180635000Y-63401000D02*
X180635000Y-63245000D01*
X180635000Y-61085000D02*
X180635000Y-60929000D01*
X163547335Y-58163608D02*
G75*
G02X160315000Y-58320516I-1672335J1078608D01*
G01*
X163547335Y-56006392D02*
G75*
G03X160315000Y-55849484I-1672335J-1078608D01*
G01*
X162916130Y-58164837D02*
G75*
G02X160834039Y-58165000I-1041130J1079837D01*
G01*
X162916130Y-56005163D02*
G75*
G03X160834039Y-56005000I-1041130J-1079837D01*
G01*
X160315000Y-58321000D02*
X160315000Y-58165000D01*
X160315000Y-56005000D02*
X160315000Y-55849000D01*
X168627335Y-58163608D02*
G75*
G02X165395000Y-58320516I-1672335J1078608D01*
G01*
X168627335Y-56006392D02*
G75*
G03X165395000Y-55849484I-1672335J-1078608D01*
G01*
X167996130Y-58164837D02*
G75*
G02X165914039Y-58165000I-1041130J1079837D01*
G01*
X167996130Y-56005163D02*
G75*
G03X165914039Y-56005000I-1041130J-1079837D01*
G01*
X165395000Y-58321000D02*
X165395000Y-58165000D01*
X165395000Y-56005000D02*
X165395000Y-55849000D01*
X173707335Y-58163608D02*
G75*
G02X170475000Y-58320516I-1672335J1078608D01*
G01*
X173707335Y-56006392D02*
G75*
G03X170475000Y-55849484I-1672335J-1078608D01*
G01*
X173076130Y-58164837D02*
G75*
G02X170994039Y-58165000I-1041130J1079837D01*
G01*
X173076130Y-56005163D02*
G75*
G03X170994039Y-56005000I-1041130J-1079837D01*
G01*
X170475000Y-58321000D02*
X170475000Y-58165000D01*
X170475000Y-56005000D02*
X170475000Y-55849000D01*
X183867335Y-58163608D02*
G75*
G02X180635000Y-58320516I-1672335J1078608D01*
G01*
X183867335Y-56006392D02*
G75*
G03X180635000Y-55849484I-1672335J-1078608D01*
G01*
X183236130Y-58164837D02*
G75*
G02X181154039Y-58165000I-1041130J1079837D01*
G01*
X183236130Y-56005163D02*
G75*
G03X181154039Y-56005000I-1041130J-1079837D01*
G01*
X180635000Y-58321000D02*
X180635000Y-58165000D01*
X180635000Y-56005000D02*
X180635000Y-55849000D01*
X178787335Y-63243608D02*
G75*
G02X175555000Y-63400516I-1672335J1078608D01*
G01*
X178787335Y-61086392D02*
G75*
G03X175555000Y-60929484I-1672335J-1078608D01*
G01*
X178156130Y-63244837D02*
G75*
G02X176074039Y-63245000I-1041130J1079837D01*
G01*
X178156130Y-61085163D02*
G75*
G03X176074039Y-61085000I-1041130J-1079837D01*
G01*
X175555000Y-63401000D02*
X175555000Y-63245000D01*
X175555000Y-61085000D02*
X175555000Y-60929000D01*
X178787335Y-58163608D02*
G75*
G02X175555000Y-58320516I-1672335J1078608D01*
G01*
X178787335Y-56006392D02*
G75*
G03X175555000Y-55849484I-1672335J-1078608D01*
G01*
X178156130Y-58164837D02*
G75*
G02X176074039Y-58165000I-1041130J1079837D01*
G01*
X178156130Y-56005163D02*
G75*
G03X176074039Y-56005000I-1041130J-1079837D01*
G01*
X175555000Y-58321000D02*
X175555000Y-58165000D01*
X175555000Y-56005000D02*
X175555000Y-55849000D01*
X178787335Y-68323608D02*
G75*
G02X175555000Y-68480516I-1672335J1078608D01*
G01*
X178787335Y-66166392D02*
G75*
G03X175555000Y-66009484I-1672335J-1078608D01*
G01*
X178156130Y-68324837D02*
G75*
G02X176074039Y-68325000I-1041130J1079837D01*
G01*
X178156130Y-66165163D02*
G75*
G03X176074039Y-66165000I-1041130J-1079837D01*
G01*
X175555000Y-68481000D02*
X175555000Y-68325000D01*
X175555000Y-66165000D02*
X175555000Y-66009000D01*
X183867335Y-68323608D02*
G75*
G02X180635000Y-68480516I-1672335J1078608D01*
G01*
X183867335Y-66166392D02*
G75*
G03X180635000Y-66009484I-1672335J-1078608D01*
G01*
X183236130Y-68324837D02*
G75*
G02X181154039Y-68325000I-1041130J1079837D01*
G01*
X183236130Y-66165163D02*
G75*
G03X181154039Y-66165000I-1041130J-1079837D01*
G01*
X180635000Y-68481000D02*
X180635000Y-68325000D01*
X180635000Y-66165000D02*
X180635000Y-66009000D01*
X168627335Y-63243608D02*
G75*
G02X165395000Y-63400516I-1672335J1078608D01*
G01*
X168627335Y-61086392D02*
G75*
G03X165395000Y-60929484I-1672335J-1078608D01*
G01*
X167996130Y-63244837D02*
G75*
G02X165914039Y-63245000I-1041130J1079837D01*
G01*
X167996130Y-61085163D02*
G75*
G03X165914039Y-61085000I-1041130J-1079837D01*
G01*
X165395000Y-63401000D02*
X165395000Y-63245000D01*
X165395000Y-61085000D02*
X165395000Y-60929000D01*
X157160000Y-121435000D02*
X161660000Y-121435000D01*
X155910000Y-125435000D02*
X155910000Y-123935000D01*
X161660000Y-127935000D02*
X157160000Y-127935000D01*
X162910000Y-123935000D02*
X162910000Y-125435000D01*
X167320000Y-130325000D02*
X171820000Y-130325000D01*
X166070000Y-134325000D02*
X166070000Y-132825000D01*
X171820000Y-136825000D02*
X167320000Y-136825000D01*
X173070000Y-132825000D02*
X173070000Y-134325000D01*
X167320000Y-112545000D02*
X171820000Y-112545000D01*
X166070000Y-116545000D02*
X166070000Y-115045000D01*
X171820000Y-119045000D02*
X167320000Y-119045000D01*
X173070000Y-115045000D02*
X173070000Y-116545000D01*
X178787335Y-73403608D02*
G75*
G02X175555000Y-73560516I-1672335J1078608D01*
G01*
X178787335Y-71246392D02*
G75*
G03X175555000Y-71089484I-1672335J-1078608D01*
G01*
X178156130Y-73404837D02*
G75*
G02X176074039Y-73405000I-1041130J1079837D01*
G01*
X178156130Y-71245163D02*
G75*
G03X176074039Y-71245000I-1041130J-1079837D01*
G01*
X175555000Y-73561000D02*
X175555000Y-73405000D01*
X175555000Y-71245000D02*
X175555000Y-71089000D01*
X168627335Y-73403608D02*
G75*
G02X165395000Y-73560516I-1672335J1078608D01*
G01*
X168627335Y-71246392D02*
G75*
G03X165395000Y-71089484I-1672335J-1078608D01*
G01*
X167996130Y-73404837D02*
G75*
G02X165914039Y-73405000I-1041130J1079837D01*
G01*
X167996130Y-71245163D02*
G75*
G03X165914039Y-71245000I-1041130J-1079837D01*
G01*
X165395000Y-73561000D02*
X165395000Y-73405000D01*
X165395000Y-71245000D02*
X165395000Y-71089000D01*
X177480000Y-121435000D02*
X181980000Y-121435000D01*
X176230000Y-125435000D02*
X176230000Y-123935000D01*
X181980000Y-127935000D02*
X177480000Y-127935000D01*
X183230000Y-123935000D02*
X183230000Y-125435000D01*
X163547335Y-83563608D02*
G75*
G02X160315000Y-83720516I-1672335J1078608D01*
G01*
X163547335Y-81406392D02*
G75*
G03X160315000Y-81249484I-1672335J-1078608D01*
G01*
X162916130Y-83564837D02*
G75*
G02X160834039Y-83565000I-1041130J1079837D01*
G01*
X162916130Y-81405163D02*
G75*
G03X160834039Y-81405000I-1041130J-1079837D01*
G01*
X160315000Y-83721000D02*
X160315000Y-83565000D01*
X160315000Y-81405000D02*
X160315000Y-81249000D01*
X173707335Y-78483608D02*
G75*
G02X170475000Y-78640516I-1672335J1078608D01*
G01*
X173707335Y-76326392D02*
G75*
G03X170475000Y-76169484I-1672335J-1078608D01*
G01*
X173076130Y-78484837D02*
G75*
G02X170994039Y-78485000I-1041130J1079837D01*
G01*
X173076130Y-76325163D02*
G75*
G03X170994039Y-76325000I-1041130J-1079837D01*
G01*
X170475000Y-78641000D02*
X170475000Y-78485000D01*
X170475000Y-76325000D02*
X170475000Y-76169000D01*
X163547335Y-78483608D02*
G75*
G02X160315000Y-78640516I-1672335J1078608D01*
G01*
X163547335Y-76326392D02*
G75*
G03X160315000Y-76169484I-1672335J-1078608D01*
G01*
X162916130Y-78484837D02*
G75*
G02X160834039Y-78485000I-1041130J1079837D01*
G01*
X162916130Y-76325163D02*
G75*
G03X160834039Y-76325000I-1041130J-1079837D01*
G01*
X160315000Y-78641000D02*
X160315000Y-78485000D01*
X160315000Y-76325000D02*
X160315000Y-76169000D01*
X163547335Y-68323608D02*
G75*
G02X160315000Y-68480516I-1672335J1078608D01*
G01*
X163547335Y-66166392D02*
G75*
G03X160315000Y-66009484I-1672335J-1078608D01*
G01*
X162916130Y-68324837D02*
G75*
G02X160834039Y-68325000I-1041130J1079837D01*
G01*
X162916130Y-66165163D02*
G75*
G03X160834039Y-66165000I-1041130J-1079837D01*
G01*
X160315000Y-68481000D02*
X160315000Y-68325000D01*
X160315000Y-66165000D02*
X160315000Y-66009000D01*
X168627335Y-68323608D02*
G75*
G02X165395000Y-68480516I-1672335J1078608D01*
G01*
X168627335Y-66166392D02*
G75*
G03X165395000Y-66009484I-1672335J-1078608D01*
G01*
X167996130Y-68324837D02*
G75*
G02X165914039Y-68325000I-1041130J1079837D01*
G01*
X167996130Y-66165163D02*
G75*
G03X165914039Y-66165000I-1041130J-1079837D01*
G01*
X165395000Y-68481000D02*
X165395000Y-68325000D01*
X165395000Y-66165000D02*
X165395000Y-66009000D01*
X183867335Y-73403608D02*
G75*
G02X180635000Y-73560516I-1672335J1078608D01*
G01*
X183867335Y-71246392D02*
G75*
G03X180635000Y-71089484I-1672335J-1078608D01*
G01*
X183236130Y-73404837D02*
G75*
G02X181154039Y-73405000I-1041130J1079837D01*
G01*
X183236130Y-71245163D02*
G75*
G03X181154039Y-71245000I-1041130J-1079837D01*
G01*
X180635000Y-73561000D02*
X180635000Y-73405000D01*
X180635000Y-71245000D02*
X180635000Y-71089000D01*
X178787335Y-83563608D02*
G75*
G02X175555000Y-83720516I-1672335J1078608D01*
G01*
X178787335Y-81406392D02*
G75*
G03X175555000Y-81249484I-1672335J-1078608D01*
G01*
X178156130Y-83564837D02*
G75*
G02X176074039Y-83565000I-1041130J1079837D01*
G01*
X178156130Y-81405163D02*
G75*
G03X176074039Y-81405000I-1041130J-1079837D01*
G01*
X175555000Y-83721000D02*
X175555000Y-83565000D01*
X175555000Y-81405000D02*
X175555000Y-81249000D01*
X173707335Y-83563608D02*
G75*
G02X170475000Y-83720516I-1672335J1078608D01*
G01*
X173707335Y-81406392D02*
G75*
G03X170475000Y-81249484I-1672335J-1078608D01*
G01*
X173076130Y-83564837D02*
G75*
G02X170994039Y-83565000I-1041130J1079837D01*
G01*
X173076130Y-81405163D02*
G75*
G03X170994039Y-81405000I-1041130J-1079837D01*
G01*
X170475000Y-83721000D02*
X170475000Y-83565000D01*
X170475000Y-81405000D02*
X170475000Y-81249000D01*
X168627335Y-78483608D02*
G75*
G02X165395000Y-78640516I-1672335J1078608D01*
G01*
X168627335Y-76326392D02*
G75*
G03X165395000Y-76169484I-1672335J-1078608D01*
G01*
X167996130Y-78484837D02*
G75*
G02X165914039Y-78485000I-1041130J1079837D01*
G01*
X167996130Y-76325163D02*
G75*
G03X165914039Y-76325000I-1041130J-1079837D01*
G01*
X165395000Y-78641000D02*
X165395000Y-78485000D01*
X165395000Y-76325000D02*
X165395000Y-76169000D01*
X183867335Y-78483608D02*
G75*
G02X180635000Y-78640516I-1672335J1078608D01*
G01*
X183867335Y-76326392D02*
G75*
G03X180635000Y-76169484I-1672335J-1078608D01*
G01*
X183236130Y-78484837D02*
G75*
G02X181154039Y-78485000I-1041130J1079837D01*
G01*
X183236130Y-76325163D02*
G75*
G03X181154039Y-76325000I-1041130J-1079837D01*
G01*
X180635000Y-78641000D02*
X180635000Y-78485000D01*
X180635000Y-76325000D02*
X180635000Y-76169000D01*
X163547335Y-73403608D02*
G75*
G02X160315000Y-73560516I-1672335J1078608D01*
G01*
X163547335Y-71246392D02*
G75*
G03X160315000Y-71089484I-1672335J-1078608D01*
G01*
X162916130Y-73404837D02*
G75*
G02X160834039Y-73405000I-1041130J1079837D01*
G01*
X162916130Y-71245163D02*
G75*
G03X160834039Y-71245000I-1041130J-1079837D01*
G01*
X160315000Y-73561000D02*
X160315000Y-73405000D01*
X160315000Y-71245000D02*
X160315000Y-71089000D01*
X173707335Y-73403608D02*
G75*
G02X170475000Y-73560516I-1672335J1078608D01*
G01*
X173707335Y-71246392D02*
G75*
G03X170475000Y-71089484I-1672335J-1078608D01*
G01*
X173076130Y-73404837D02*
G75*
G02X170994039Y-73405000I-1041130J1079837D01*
G01*
X173076130Y-71245163D02*
G75*
G03X170994039Y-71245000I-1041130J-1079837D01*
G01*
X170475000Y-73561000D02*
X170475000Y-73405000D01*
X170475000Y-71245000D02*
X170475000Y-71089000D01*
X168627335Y-83563608D02*
G75*
G02X165395000Y-83720516I-1672335J1078608D01*
G01*
X168627335Y-81406392D02*
G75*
G03X165395000Y-81249484I-1672335J-1078608D01*
G01*
X167996130Y-83564837D02*
G75*
G02X165914039Y-83565000I-1041130J1079837D01*
G01*
X167996130Y-81405163D02*
G75*
G03X165914039Y-81405000I-1041130J-1079837D01*
G01*
X165395000Y-83721000D02*
X165395000Y-83565000D01*
X165395000Y-81405000D02*
X165395000Y-81249000D01*
X178787335Y-78483608D02*
G75*
G02X175555000Y-78640516I-1672335J1078608D01*
G01*
X178787335Y-76326392D02*
G75*
G03X175555000Y-76169484I-1672335J-1078608D01*
G01*
X178156130Y-78484837D02*
G75*
G02X176074039Y-78485000I-1041130J1079837D01*
G01*
X178156130Y-76325163D02*
G75*
G03X176074039Y-76325000I-1041130J-1079837D01*
G01*
X175555000Y-78641000D02*
X175555000Y-78485000D01*
X175555000Y-76325000D02*
X175555000Y-76169000D01*
X183867335Y-83563608D02*
G75*
G02X180635000Y-83720516I-1672335J1078608D01*
G01*
X183867335Y-81406392D02*
G75*
G03X180635000Y-81249484I-1672335J-1078608D01*
G01*
X183236130Y-83564837D02*
G75*
G02X181154039Y-83565000I-1041130J1079837D01*
G01*
X183236130Y-81405163D02*
G75*
G03X181154039Y-81405000I-1041130J-1079837D01*
G01*
X180635000Y-83721000D02*
X180635000Y-83565000D01*
X180635000Y-81405000D02*
X180635000Y-81249000D01*
X129635000Y-56005000D02*
X129635000Y-55849000D01*
X129635000Y-58321000D02*
X129635000Y-58165000D01*
X132236130Y-56005163D02*
G75*
G03X130154039Y-56005000I-1041130J-1079837D01*
G01*
X132236130Y-58164837D02*
G75*
G02X130154039Y-58165000I-1041130J1079837D01*
G01*
X132867335Y-56006392D02*
G75*
G03X129635000Y-55849484I-1672335J-1078608D01*
G01*
X132867335Y-58163608D02*
G75*
G02X129635000Y-58320516I-1672335J1078608D01*
G01*
X124555000Y-56005000D02*
X124555000Y-55849000D01*
X124555000Y-58321000D02*
X124555000Y-58165000D01*
X127156130Y-56005163D02*
G75*
G03X125074039Y-56005000I-1041130J-1079837D01*
G01*
X127156130Y-58164837D02*
G75*
G02X125074039Y-58165000I-1041130J1079837D01*
G01*
X127787335Y-56006392D02*
G75*
G03X124555000Y-55849484I-1672335J-1078608D01*
G01*
X127787335Y-58163608D02*
G75*
G02X124555000Y-58320516I-1672335J1078608D01*
G01*
X119475000Y-56005000D02*
X119475000Y-55849000D01*
X119475000Y-58321000D02*
X119475000Y-58165000D01*
X122076130Y-56005163D02*
G75*
G03X119994039Y-56005000I-1041130J-1079837D01*
G01*
X122076130Y-58164837D02*
G75*
G02X119994039Y-58165000I-1041130J1079837D01*
G01*
X122707335Y-56006392D02*
G75*
G03X119475000Y-55849484I-1672335J-1078608D01*
G01*
X122707335Y-58163608D02*
G75*
G02X119475000Y-58320516I-1672335J1078608D01*
G01*
X114395000Y-56005000D02*
X114395000Y-55849000D01*
X114395000Y-58321000D02*
X114395000Y-58165000D01*
X116996130Y-56005163D02*
G75*
G03X114914039Y-56005000I-1041130J-1079837D01*
G01*
X116996130Y-58164837D02*
G75*
G02X114914039Y-58165000I-1041130J1079837D01*
G01*
X117627335Y-56006392D02*
G75*
G03X114395000Y-55849484I-1672335J-1078608D01*
G01*
X117627335Y-58163608D02*
G75*
G02X114395000Y-58320516I-1672335J1078608D01*
G01*
X109315000Y-56005000D02*
X109315000Y-55849000D01*
X109315000Y-58321000D02*
X109315000Y-58165000D01*
X111916130Y-56005163D02*
G75*
G03X109834039Y-56005000I-1041130J-1079837D01*
G01*
X111916130Y-58164837D02*
G75*
G02X109834039Y-58165000I-1041130J1079837D01*
G01*
X112547335Y-56006392D02*
G75*
G03X109315000Y-55849484I-1672335J-1078608D01*
G01*
X112547335Y-58163608D02*
G75*
G02X109315000Y-58320516I-1672335J1078608D01*
G01*
X129635000Y-61085000D02*
X129635000Y-60929000D01*
X129635000Y-63401000D02*
X129635000Y-63245000D01*
X132236130Y-61085163D02*
G75*
G03X130154039Y-61085000I-1041130J-1079837D01*
G01*
X132236130Y-63244837D02*
G75*
G02X130154039Y-63245000I-1041130J1079837D01*
G01*
X132867335Y-61086392D02*
G75*
G03X129635000Y-60929484I-1672335J-1078608D01*
G01*
X132867335Y-63243608D02*
G75*
G02X129635000Y-63400516I-1672335J1078608D01*
G01*
X124555000Y-61085000D02*
X124555000Y-60929000D01*
X124555000Y-63401000D02*
X124555000Y-63245000D01*
X127156130Y-61085163D02*
G75*
G03X125074039Y-61085000I-1041130J-1079837D01*
G01*
X127156130Y-63244837D02*
G75*
G02X125074039Y-63245000I-1041130J1079837D01*
G01*
X127787335Y-61086392D02*
G75*
G03X124555000Y-60929484I-1672335J-1078608D01*
G01*
X127787335Y-63243608D02*
G75*
G02X124555000Y-63400516I-1672335J1078608D01*
G01*
X119475000Y-61085000D02*
X119475000Y-60929000D01*
X119475000Y-63401000D02*
X119475000Y-63245000D01*
X122076130Y-61085163D02*
G75*
G03X119994039Y-61085000I-1041130J-1079837D01*
G01*
X122076130Y-63244837D02*
G75*
G02X119994039Y-63245000I-1041130J1079837D01*
G01*
X122707335Y-61086392D02*
G75*
G03X119475000Y-60929484I-1672335J-1078608D01*
G01*
X122707335Y-63243608D02*
G75*
G02X119475000Y-63400516I-1672335J1078608D01*
G01*
X114395000Y-61085000D02*
X114395000Y-60929000D01*
X114395000Y-63401000D02*
X114395000Y-63245000D01*
X116996130Y-61085163D02*
G75*
G03X114914039Y-61085000I-1041130J-1079837D01*
G01*
X116996130Y-63244837D02*
G75*
G02X114914039Y-63245000I-1041130J1079837D01*
G01*
X117627335Y-61086392D02*
G75*
G03X114395000Y-60929484I-1672335J-1078608D01*
G01*
X117627335Y-63243608D02*
G75*
G02X114395000Y-63400516I-1672335J1078608D01*
G01*
X109315000Y-61085000D02*
X109315000Y-60929000D01*
X109315000Y-63401000D02*
X109315000Y-63245000D01*
X111916130Y-61085163D02*
G75*
G03X109834039Y-61085000I-1041130J-1079837D01*
G01*
X111916130Y-63244837D02*
G75*
G02X109834039Y-63245000I-1041130J1079837D01*
G01*
X112547335Y-61086392D02*
G75*
G03X109315000Y-60929484I-1672335J-1078608D01*
G01*
X112547335Y-63243608D02*
G75*
G02X109315000Y-63400516I-1672335J1078608D01*
G01*
X129635000Y-66165000D02*
X129635000Y-66009000D01*
X129635000Y-68481000D02*
X129635000Y-68325000D01*
X132236130Y-66165163D02*
G75*
G03X130154039Y-66165000I-1041130J-1079837D01*
G01*
X132236130Y-68324837D02*
G75*
G02X130154039Y-68325000I-1041130J1079837D01*
G01*
X132867335Y-66166392D02*
G75*
G03X129635000Y-66009484I-1672335J-1078608D01*
G01*
X132867335Y-68323608D02*
G75*
G02X129635000Y-68480516I-1672335J1078608D01*
G01*
X124555000Y-66165000D02*
X124555000Y-66009000D01*
X124555000Y-68481000D02*
X124555000Y-68325000D01*
X127156130Y-66165163D02*
G75*
G03X125074039Y-66165000I-1041130J-1079837D01*
G01*
X127156130Y-68324837D02*
G75*
G02X125074039Y-68325000I-1041130J1079837D01*
G01*
X127787335Y-66166392D02*
G75*
G03X124555000Y-66009484I-1672335J-1078608D01*
G01*
X127787335Y-68323608D02*
G75*
G02X124555000Y-68480516I-1672335J1078608D01*
G01*
X119475000Y-66165000D02*
X119475000Y-66009000D01*
X119475000Y-68481000D02*
X119475000Y-68325000D01*
X122076130Y-66165163D02*
G75*
G03X119994039Y-66165000I-1041130J-1079837D01*
G01*
X122076130Y-68324837D02*
G75*
G02X119994039Y-68325000I-1041130J1079837D01*
G01*
X122707335Y-66166392D02*
G75*
G03X119475000Y-66009484I-1672335J-1078608D01*
G01*
X122707335Y-68323608D02*
G75*
G02X119475000Y-68480516I-1672335J1078608D01*
G01*
X114395000Y-66165000D02*
X114395000Y-66009000D01*
X114395000Y-68481000D02*
X114395000Y-68325000D01*
X116996130Y-66165163D02*
G75*
G03X114914039Y-66165000I-1041130J-1079837D01*
G01*
X116996130Y-68324837D02*
G75*
G02X114914039Y-68325000I-1041130J1079837D01*
G01*
X117627335Y-66166392D02*
G75*
G03X114395000Y-66009484I-1672335J-1078608D01*
G01*
X117627335Y-68323608D02*
G75*
G02X114395000Y-68480516I-1672335J1078608D01*
G01*
X109315000Y-66165000D02*
X109315000Y-66009000D01*
X109315000Y-68481000D02*
X109315000Y-68325000D01*
X111916130Y-66165163D02*
G75*
G03X109834039Y-66165000I-1041130J-1079837D01*
G01*
X111916130Y-68324837D02*
G75*
G02X109834039Y-68325000I-1041130J1079837D01*
G01*
X112547335Y-66166392D02*
G75*
G03X109315000Y-66009484I-1672335J-1078608D01*
G01*
X112547335Y-68323608D02*
G75*
G02X109315000Y-68480516I-1672335J1078608D01*
G01*
X129635000Y-71245000D02*
X129635000Y-71089000D01*
X129635000Y-73561000D02*
X129635000Y-73405000D01*
X132236130Y-71245163D02*
G75*
G03X130154039Y-71245000I-1041130J-1079837D01*
G01*
X132236130Y-73404837D02*
G75*
G02X130154039Y-73405000I-1041130J1079837D01*
G01*
X132867335Y-71246392D02*
G75*
G03X129635000Y-71089484I-1672335J-1078608D01*
G01*
X132867335Y-73403608D02*
G75*
G02X129635000Y-73560516I-1672335J1078608D01*
G01*
X124555000Y-71245000D02*
X124555000Y-71089000D01*
X124555000Y-73561000D02*
X124555000Y-73405000D01*
X127156130Y-71245163D02*
G75*
G03X125074039Y-71245000I-1041130J-1079837D01*
G01*
X127156130Y-73404837D02*
G75*
G02X125074039Y-73405000I-1041130J1079837D01*
G01*
X127787335Y-71246392D02*
G75*
G03X124555000Y-71089484I-1672335J-1078608D01*
G01*
X127787335Y-73403608D02*
G75*
G02X124555000Y-73560516I-1672335J1078608D01*
G01*
X119475000Y-71245000D02*
X119475000Y-71089000D01*
X119475000Y-73561000D02*
X119475000Y-73405000D01*
X122076130Y-71245163D02*
G75*
G03X119994039Y-71245000I-1041130J-1079837D01*
G01*
X122076130Y-73404837D02*
G75*
G02X119994039Y-73405000I-1041130J1079837D01*
G01*
X122707335Y-71246392D02*
G75*
G03X119475000Y-71089484I-1672335J-1078608D01*
G01*
X122707335Y-73403608D02*
G75*
G02X119475000Y-73560516I-1672335J1078608D01*
G01*
X114395000Y-71245000D02*
X114395000Y-71089000D01*
X114395000Y-73561000D02*
X114395000Y-73405000D01*
X116996130Y-71245163D02*
G75*
G03X114914039Y-71245000I-1041130J-1079837D01*
G01*
X116996130Y-73404837D02*
G75*
G02X114914039Y-73405000I-1041130J1079837D01*
G01*
X117627335Y-71246392D02*
G75*
G03X114395000Y-71089484I-1672335J-1078608D01*
G01*
X117627335Y-73403608D02*
G75*
G02X114395000Y-73560516I-1672335J1078608D01*
G01*
X109315000Y-71245000D02*
X109315000Y-71089000D01*
X109315000Y-73561000D02*
X109315000Y-73405000D01*
X111916130Y-71245163D02*
G75*
G03X109834039Y-71245000I-1041130J-1079837D01*
G01*
X111916130Y-73404837D02*
G75*
G02X109834039Y-73405000I-1041130J1079837D01*
G01*
X112547335Y-71246392D02*
G75*
G03X109315000Y-71089484I-1672335J-1078608D01*
G01*
X112547335Y-73403608D02*
G75*
G02X109315000Y-73560516I-1672335J1078608D01*
G01*
X129635000Y-76325000D02*
X129635000Y-76169000D01*
X129635000Y-78641000D02*
X129635000Y-78485000D01*
X132236130Y-76325163D02*
G75*
G03X130154039Y-76325000I-1041130J-1079837D01*
G01*
X132236130Y-78484837D02*
G75*
G02X130154039Y-78485000I-1041130J1079837D01*
G01*
X132867335Y-76326392D02*
G75*
G03X129635000Y-76169484I-1672335J-1078608D01*
G01*
X132867335Y-78483608D02*
G75*
G02X129635000Y-78640516I-1672335J1078608D01*
G01*
X124555000Y-76325000D02*
X124555000Y-76169000D01*
X124555000Y-78641000D02*
X124555000Y-78485000D01*
X127156130Y-76325163D02*
G75*
G03X125074039Y-76325000I-1041130J-1079837D01*
G01*
X127156130Y-78484837D02*
G75*
G02X125074039Y-78485000I-1041130J1079837D01*
G01*
X127787335Y-76326392D02*
G75*
G03X124555000Y-76169484I-1672335J-1078608D01*
G01*
X127787335Y-78483608D02*
G75*
G02X124555000Y-78640516I-1672335J1078608D01*
G01*
X119475000Y-76325000D02*
X119475000Y-76169000D01*
X119475000Y-78641000D02*
X119475000Y-78485000D01*
X122076130Y-76325163D02*
G75*
G03X119994039Y-76325000I-1041130J-1079837D01*
G01*
X122076130Y-78484837D02*
G75*
G02X119994039Y-78485000I-1041130J1079837D01*
G01*
X122707335Y-76326392D02*
G75*
G03X119475000Y-76169484I-1672335J-1078608D01*
G01*
X122707335Y-78483608D02*
G75*
G02X119475000Y-78640516I-1672335J1078608D01*
G01*
X114395000Y-76325000D02*
X114395000Y-76169000D01*
X114395000Y-78641000D02*
X114395000Y-78485000D01*
X116996130Y-76325163D02*
G75*
G03X114914039Y-76325000I-1041130J-1079837D01*
G01*
X116996130Y-78484837D02*
G75*
G02X114914039Y-78485000I-1041130J1079837D01*
G01*
X117627335Y-76326392D02*
G75*
G03X114395000Y-76169484I-1672335J-1078608D01*
G01*
X117627335Y-78483608D02*
G75*
G02X114395000Y-78640516I-1672335J1078608D01*
G01*
X109315000Y-76325000D02*
X109315000Y-76169000D01*
X109315000Y-78641000D02*
X109315000Y-78485000D01*
X111916130Y-76325163D02*
G75*
G03X109834039Y-76325000I-1041130J-1079837D01*
G01*
X111916130Y-78484837D02*
G75*
G02X109834039Y-78485000I-1041130J1079837D01*
G01*
X112547335Y-76326392D02*
G75*
G03X109315000Y-76169484I-1672335J-1078608D01*
G01*
X112547335Y-78483608D02*
G75*
G02X109315000Y-78640516I-1672335J1078608D01*
G01*
X129635000Y-81405000D02*
X129635000Y-81249000D01*
X129635000Y-83721000D02*
X129635000Y-83565000D01*
X132236130Y-81405163D02*
G75*
G03X130154039Y-81405000I-1041130J-1079837D01*
G01*
X132236130Y-83564837D02*
G75*
G02X130154039Y-83565000I-1041130J1079837D01*
G01*
X132867335Y-81406392D02*
G75*
G03X129635000Y-81249484I-1672335J-1078608D01*
G01*
X132867335Y-83563608D02*
G75*
G02X129635000Y-83720516I-1672335J1078608D01*
G01*
X124555000Y-81405000D02*
X124555000Y-81249000D01*
X124555000Y-83721000D02*
X124555000Y-83565000D01*
X127156130Y-81405163D02*
G75*
G03X125074039Y-81405000I-1041130J-1079837D01*
G01*
X127156130Y-83564837D02*
G75*
G02X125074039Y-83565000I-1041130J1079837D01*
G01*
X127787335Y-81406392D02*
G75*
G03X124555000Y-81249484I-1672335J-1078608D01*
G01*
X127787335Y-83563608D02*
G75*
G02X124555000Y-83720516I-1672335J1078608D01*
G01*
X119475000Y-81405000D02*
X119475000Y-81249000D01*
X119475000Y-83721000D02*
X119475000Y-83565000D01*
X122076130Y-81405163D02*
G75*
G03X119994039Y-81405000I-1041130J-1079837D01*
G01*
X122076130Y-83564837D02*
G75*
G02X119994039Y-83565000I-1041130J1079837D01*
G01*
X122707335Y-81406392D02*
G75*
G03X119475000Y-81249484I-1672335J-1078608D01*
G01*
X122707335Y-83563608D02*
G75*
G02X119475000Y-83720516I-1672335J1078608D01*
G01*
X114395000Y-81405000D02*
X114395000Y-81249000D01*
X114395000Y-83721000D02*
X114395000Y-83565000D01*
X116996130Y-81405163D02*
G75*
G03X114914039Y-81405000I-1041130J-1079837D01*
G01*
X116996130Y-83564837D02*
G75*
G02X114914039Y-83565000I-1041130J1079837D01*
G01*
X117627335Y-81406392D02*
G75*
G03X114395000Y-81249484I-1672335J-1078608D01*
G01*
X117627335Y-83563608D02*
G75*
G02X114395000Y-83720516I-1672335J1078608D01*
G01*
X109315000Y-81405000D02*
X109315000Y-81249000D01*
X109315000Y-83721000D02*
X109315000Y-83565000D01*
X111916130Y-81405163D02*
G75*
G03X109834039Y-81405000I-1041130J-1079837D01*
G01*
X111916130Y-83564837D02*
G75*
G02X109834039Y-83565000I-1041130J1079837D01*
G01*
X112547335Y-81406392D02*
G75*
G03X109315000Y-81249484I-1672335J-1078608D01*
G01*
X112547335Y-83563608D02*
G75*
G02X109315000Y-83720516I-1672335J1078608D01*
G01*
X132230000Y-123935000D02*
X132230000Y-125435000D01*
X130980000Y-127935000D02*
X126480000Y-127935000D01*
X125230000Y-125435000D02*
X125230000Y-123935000D01*
X126480000Y-121435000D02*
X130980000Y-121435000D01*
X122070000Y-115045000D02*
X122070000Y-116545000D01*
X120820000Y-119045000D02*
X116320000Y-119045000D01*
X115070000Y-116545000D02*
X115070000Y-115045000D01*
X116320000Y-112545000D02*
X120820000Y-112545000D01*
X122070000Y-132825000D02*
X122070000Y-134325000D01*
X120820000Y-136825000D02*
X116320000Y-136825000D01*
X115070000Y-134325000D02*
X115070000Y-132825000D01*
X116320000Y-130325000D02*
X120820000Y-130325000D01*
X111910000Y-123935000D02*
X111910000Y-125435000D01*
X110660000Y-127935000D02*
X106160000Y-127935000D01*
X104910000Y-125435000D02*
X104910000Y-123935000D01*
X106160000Y-121435000D02*
X110660000Y-121435000D01*
D10*
X173630238Y-70657380D02*
X174106428Y-70657380D01*
X174106428Y-69657380D01*
X173296904Y-70133571D02*
X172963571Y-70133571D01*
X172820714Y-70657380D02*
X173296904Y-70657380D01*
X173296904Y-69657380D01*
X172820714Y-69657380D01*
X172392142Y-70657380D02*
X172392142Y-69657380D01*
X172154047Y-69657380D01*
X172011190Y-69705000D01*
X171915952Y-69800238D01*
X171868333Y-69895476D01*
X171820714Y-70085952D01*
X171820714Y-70228809D01*
X171868333Y-70419285D01*
X171915952Y-70514523D01*
X172011190Y-70609761D01*
X172154047Y-70657380D01*
X172392142Y-70657380D01*
X170868333Y-70657380D02*
X171439761Y-70657380D01*
X171154047Y-70657380D02*
X171154047Y-69657380D01*
X171249285Y-69800238D01*
X171344523Y-69895476D01*
X171439761Y-69943095D01*
X170535000Y-69657380D02*
X169915952Y-69657380D01*
X170249285Y-70038333D01*
X170106428Y-70038333D01*
X170011190Y-70085952D01*
X169963571Y-70133571D01*
X169915952Y-70228809D01*
X169915952Y-70466904D01*
X169963571Y-70562142D01*
X170011190Y-70609761D01*
X170106428Y-70657380D01*
X170392142Y-70657380D01*
X170487380Y-70609761D01*
X170535000Y-70562142D01*
X163470238Y-65577380D02*
X163946428Y-65577380D01*
X163946428Y-64577380D01*
X163136904Y-65053571D02*
X162803571Y-65053571D01*
X162660714Y-65577380D02*
X163136904Y-65577380D01*
X163136904Y-64577380D01*
X162660714Y-64577380D01*
X162232142Y-65577380D02*
X162232142Y-64577380D01*
X161994047Y-64577380D01*
X161851190Y-64625000D01*
X161755952Y-64720238D01*
X161708333Y-64815476D01*
X161660714Y-65005952D01*
X161660714Y-65148809D01*
X161708333Y-65339285D01*
X161755952Y-65434523D01*
X161851190Y-65529761D01*
X161994047Y-65577380D01*
X162232142Y-65577380D01*
X160708333Y-65577380D02*
X161279761Y-65577380D01*
X160994047Y-65577380D02*
X160994047Y-64577380D01*
X161089285Y-64720238D01*
X161184523Y-64815476D01*
X161279761Y-64863095D01*
X160089285Y-64577380D02*
X159994047Y-64577380D01*
X159898809Y-64625000D01*
X159851190Y-64672619D01*
X159803571Y-64767857D01*
X159755952Y-64958333D01*
X159755952Y-65196428D01*
X159803571Y-65386904D01*
X159851190Y-65482142D01*
X159898809Y-65529761D01*
X159994047Y-65577380D01*
X160089285Y-65577380D01*
X160184523Y-65529761D01*
X160232142Y-65482142D01*
X160279761Y-65386904D01*
X160327380Y-65196428D01*
X160327380Y-64958333D01*
X160279761Y-64767857D01*
X160232142Y-64672619D01*
X160184523Y-64625000D01*
X160089285Y-64577380D01*
X173154047Y-65577380D02*
X173630238Y-65577380D01*
X173630238Y-64577380D01*
X172820714Y-65053571D02*
X172487380Y-65053571D01*
X172344523Y-65577380D02*
X172820714Y-65577380D01*
X172820714Y-64577380D01*
X172344523Y-64577380D01*
X171915952Y-65577380D02*
X171915952Y-64577380D01*
X171677857Y-64577380D01*
X171535000Y-64625000D01*
X171439761Y-64720238D01*
X171392142Y-64815476D01*
X171344523Y-65005952D01*
X171344523Y-65148809D01*
X171392142Y-65339285D01*
X171439761Y-65434523D01*
X171535000Y-65529761D01*
X171677857Y-65577380D01*
X171915952Y-65577380D01*
X170773095Y-65005952D02*
X170868333Y-64958333D01*
X170915952Y-64910714D01*
X170963571Y-64815476D01*
X170963571Y-64767857D01*
X170915952Y-64672619D01*
X170868333Y-64625000D01*
X170773095Y-64577380D01*
X170582619Y-64577380D01*
X170487380Y-64625000D01*
X170439761Y-64672619D01*
X170392142Y-64767857D01*
X170392142Y-64815476D01*
X170439761Y-64910714D01*
X170487380Y-64958333D01*
X170582619Y-65005952D01*
X170773095Y-65005952D01*
X170868333Y-65053571D01*
X170915952Y-65101190D01*
X170963571Y-65196428D01*
X170963571Y-65386904D01*
X170915952Y-65482142D01*
X170868333Y-65529761D01*
X170773095Y-65577380D01*
X170582619Y-65577380D01*
X170487380Y-65529761D01*
X170439761Y-65482142D01*
X170392142Y-65386904D01*
X170392142Y-65196428D01*
X170439761Y-65101190D01*
X170487380Y-65053571D01*
X170582619Y-65005952D01*
X183314047Y-65577380D02*
X183790238Y-65577380D01*
X183790238Y-64577380D01*
X182980714Y-65053571D02*
X182647380Y-65053571D01*
X182504523Y-65577380D02*
X182980714Y-65577380D01*
X182980714Y-64577380D01*
X182504523Y-64577380D01*
X182075952Y-65577380D02*
X182075952Y-64577380D01*
X181837857Y-64577380D01*
X181695000Y-64625000D01*
X181599761Y-64720238D01*
X181552142Y-64815476D01*
X181504523Y-65005952D01*
X181504523Y-65148809D01*
X181552142Y-65339285D01*
X181599761Y-65434523D01*
X181695000Y-65529761D01*
X181837857Y-65577380D01*
X182075952Y-65577380D01*
X180647380Y-64577380D02*
X180837857Y-64577380D01*
X180933095Y-64625000D01*
X180980714Y-64672619D01*
X181075952Y-64815476D01*
X181123571Y-65005952D01*
X181123571Y-65386904D01*
X181075952Y-65482142D01*
X181028333Y-65529761D01*
X180933095Y-65577380D01*
X180742619Y-65577380D01*
X180647380Y-65529761D01*
X180599761Y-65482142D01*
X180552142Y-65386904D01*
X180552142Y-65148809D01*
X180599761Y-65053571D01*
X180647380Y-65005952D01*
X180742619Y-64958333D01*
X180933095Y-64958333D01*
X181028333Y-65005952D01*
X181075952Y-65053571D01*
X181123571Y-65148809D01*
X162994047Y-60497380D02*
X163470238Y-60497380D01*
X163470238Y-59497380D01*
X162660714Y-59973571D02*
X162327380Y-59973571D01*
X162184523Y-60497380D02*
X162660714Y-60497380D01*
X162660714Y-59497380D01*
X162184523Y-59497380D01*
X161755952Y-60497380D02*
X161755952Y-59497380D01*
X161517857Y-59497380D01*
X161375000Y-59545000D01*
X161279761Y-59640238D01*
X161232142Y-59735476D01*
X161184523Y-59925952D01*
X161184523Y-60068809D01*
X161232142Y-60259285D01*
X161279761Y-60354523D01*
X161375000Y-60449761D01*
X161517857Y-60497380D01*
X161755952Y-60497380D01*
X160279761Y-59497380D02*
X160755952Y-59497380D01*
X160803571Y-59973571D01*
X160755952Y-59925952D01*
X160660714Y-59878333D01*
X160422619Y-59878333D01*
X160327380Y-59925952D01*
X160279761Y-59973571D01*
X160232142Y-60068809D01*
X160232142Y-60306904D01*
X160279761Y-60402142D01*
X160327380Y-60449761D01*
X160422619Y-60497380D01*
X160660714Y-60497380D01*
X160755952Y-60449761D01*
X160803571Y-60402142D01*
X168074047Y-60497380D02*
X168550238Y-60497380D01*
X168550238Y-59497380D01*
X167740714Y-59973571D02*
X167407380Y-59973571D01*
X167264523Y-60497380D02*
X167740714Y-60497380D01*
X167740714Y-59497380D01*
X167264523Y-59497380D01*
X166835952Y-60497380D02*
X166835952Y-59497380D01*
X166597857Y-59497380D01*
X166455000Y-59545000D01*
X166359761Y-59640238D01*
X166312142Y-59735476D01*
X166264523Y-59925952D01*
X166264523Y-60068809D01*
X166312142Y-60259285D01*
X166359761Y-60354523D01*
X166455000Y-60449761D01*
X166597857Y-60497380D01*
X166835952Y-60497380D01*
X165407380Y-59830714D02*
X165407380Y-60497380D01*
X165645476Y-59449761D02*
X165883571Y-60164047D01*
X165264523Y-60164047D01*
X173154047Y-60497380D02*
X173630238Y-60497380D01*
X173630238Y-59497380D01*
X172820714Y-59973571D02*
X172487380Y-59973571D01*
X172344523Y-60497380D02*
X172820714Y-60497380D01*
X172820714Y-59497380D01*
X172344523Y-59497380D01*
X171915952Y-60497380D02*
X171915952Y-59497380D01*
X171677857Y-59497380D01*
X171535000Y-59545000D01*
X171439761Y-59640238D01*
X171392142Y-59735476D01*
X171344523Y-59925952D01*
X171344523Y-60068809D01*
X171392142Y-60259285D01*
X171439761Y-60354523D01*
X171535000Y-60449761D01*
X171677857Y-60497380D01*
X171915952Y-60497380D01*
X171011190Y-59497380D02*
X170392142Y-59497380D01*
X170725476Y-59878333D01*
X170582619Y-59878333D01*
X170487380Y-59925952D01*
X170439761Y-59973571D01*
X170392142Y-60068809D01*
X170392142Y-60306904D01*
X170439761Y-60402142D01*
X170487380Y-60449761D01*
X170582619Y-60497380D01*
X170868333Y-60497380D01*
X170963571Y-60449761D01*
X171011190Y-60402142D01*
X183314047Y-60497380D02*
X183790238Y-60497380D01*
X183790238Y-59497380D01*
X182980714Y-59973571D02*
X182647380Y-59973571D01*
X182504523Y-60497380D02*
X182980714Y-60497380D01*
X182980714Y-59497380D01*
X182504523Y-59497380D01*
X182075952Y-60497380D02*
X182075952Y-59497380D01*
X181837857Y-59497380D01*
X181695000Y-59545000D01*
X181599761Y-59640238D01*
X181552142Y-59735476D01*
X181504523Y-59925952D01*
X181504523Y-60068809D01*
X181552142Y-60259285D01*
X181599761Y-60354523D01*
X181695000Y-60449761D01*
X181837857Y-60497380D01*
X182075952Y-60497380D01*
X180552142Y-60497380D02*
X181123571Y-60497380D01*
X180837857Y-60497380D02*
X180837857Y-59497380D01*
X180933095Y-59640238D01*
X181028333Y-59735476D01*
X181123571Y-59783095D01*
X178234047Y-65577380D02*
X178710238Y-65577380D01*
X178710238Y-64577380D01*
X177900714Y-65053571D02*
X177567380Y-65053571D01*
X177424523Y-65577380D02*
X177900714Y-65577380D01*
X177900714Y-64577380D01*
X177424523Y-64577380D01*
X176995952Y-65577380D02*
X176995952Y-64577380D01*
X176757857Y-64577380D01*
X176615000Y-64625000D01*
X176519761Y-64720238D01*
X176472142Y-64815476D01*
X176424523Y-65005952D01*
X176424523Y-65148809D01*
X176472142Y-65339285D01*
X176519761Y-65434523D01*
X176615000Y-65529761D01*
X176757857Y-65577380D01*
X176995952Y-65577380D01*
X176091190Y-64577380D02*
X175424523Y-64577380D01*
X175853095Y-65577380D01*
X178234047Y-60497380D02*
X178710238Y-60497380D01*
X178710238Y-59497380D01*
X177900714Y-59973571D02*
X177567380Y-59973571D01*
X177424523Y-60497380D02*
X177900714Y-60497380D01*
X177900714Y-59497380D01*
X177424523Y-59497380D01*
X176995952Y-60497380D02*
X176995952Y-59497380D01*
X176757857Y-59497380D01*
X176615000Y-59545000D01*
X176519761Y-59640238D01*
X176472142Y-59735476D01*
X176424523Y-59925952D01*
X176424523Y-60068809D01*
X176472142Y-60259285D01*
X176519761Y-60354523D01*
X176615000Y-60449761D01*
X176757857Y-60497380D01*
X176995952Y-60497380D01*
X176043571Y-59592619D02*
X175995952Y-59545000D01*
X175900714Y-59497380D01*
X175662619Y-59497380D01*
X175567380Y-59545000D01*
X175519761Y-59592619D01*
X175472142Y-59687857D01*
X175472142Y-59783095D01*
X175519761Y-59925952D01*
X176091190Y-60497380D01*
X175472142Y-60497380D01*
X178710238Y-70657380D02*
X179186428Y-70657380D01*
X179186428Y-69657380D01*
X178376904Y-70133571D02*
X178043571Y-70133571D01*
X177900714Y-70657380D02*
X178376904Y-70657380D01*
X178376904Y-69657380D01*
X177900714Y-69657380D01*
X177472142Y-70657380D02*
X177472142Y-69657380D01*
X177234047Y-69657380D01*
X177091190Y-69705000D01*
X176995952Y-69800238D01*
X176948333Y-69895476D01*
X176900714Y-70085952D01*
X176900714Y-70228809D01*
X176948333Y-70419285D01*
X176995952Y-70514523D01*
X177091190Y-70609761D01*
X177234047Y-70657380D01*
X177472142Y-70657380D01*
X175948333Y-70657380D02*
X176519761Y-70657380D01*
X176234047Y-70657380D02*
X176234047Y-69657380D01*
X176329285Y-69800238D01*
X176424523Y-69895476D01*
X176519761Y-69943095D01*
X175567380Y-69752619D02*
X175519761Y-69705000D01*
X175424523Y-69657380D01*
X175186428Y-69657380D01*
X175091190Y-69705000D01*
X175043571Y-69752619D01*
X174995952Y-69847857D01*
X174995952Y-69943095D01*
X175043571Y-70085952D01*
X175615000Y-70657380D01*
X174995952Y-70657380D01*
X183790238Y-70657380D02*
X184266428Y-70657380D01*
X184266428Y-69657380D01*
X183456904Y-70133571D02*
X183123571Y-70133571D01*
X182980714Y-70657380D02*
X183456904Y-70657380D01*
X183456904Y-69657380D01*
X182980714Y-69657380D01*
X182552142Y-70657380D02*
X182552142Y-69657380D01*
X182314047Y-69657380D01*
X182171190Y-69705000D01*
X182075952Y-69800238D01*
X182028333Y-69895476D01*
X181980714Y-70085952D01*
X181980714Y-70228809D01*
X182028333Y-70419285D01*
X182075952Y-70514523D01*
X182171190Y-70609761D01*
X182314047Y-70657380D01*
X182552142Y-70657380D01*
X181028333Y-70657380D02*
X181599761Y-70657380D01*
X181314047Y-70657380D02*
X181314047Y-69657380D01*
X181409285Y-69800238D01*
X181504523Y-69895476D01*
X181599761Y-69943095D01*
X180075952Y-70657380D02*
X180647380Y-70657380D01*
X180361666Y-70657380D02*
X180361666Y-69657380D01*
X180456904Y-69800238D01*
X180552142Y-69895476D01*
X180647380Y-69943095D01*
X168074047Y-65577380D02*
X168550238Y-65577380D01*
X168550238Y-64577380D01*
X167740714Y-65053571D02*
X167407380Y-65053571D01*
X167264523Y-65577380D02*
X167740714Y-65577380D01*
X167740714Y-64577380D01*
X167264523Y-64577380D01*
X166835952Y-65577380D02*
X166835952Y-64577380D01*
X166597857Y-64577380D01*
X166455000Y-64625000D01*
X166359761Y-64720238D01*
X166312142Y-64815476D01*
X166264523Y-65005952D01*
X166264523Y-65148809D01*
X166312142Y-65339285D01*
X166359761Y-65434523D01*
X166455000Y-65529761D01*
X166597857Y-65577380D01*
X166835952Y-65577380D01*
X165788333Y-65577380D02*
X165597857Y-65577380D01*
X165502619Y-65529761D01*
X165455000Y-65482142D01*
X165359761Y-65339285D01*
X165312142Y-65148809D01*
X165312142Y-64767857D01*
X165359761Y-64672619D01*
X165407380Y-64625000D01*
X165502619Y-64577380D01*
X165693095Y-64577380D01*
X165788333Y-64625000D01*
X165835952Y-64672619D01*
X165883571Y-64767857D01*
X165883571Y-65005952D01*
X165835952Y-65101190D01*
X165788333Y-65148809D01*
X165693095Y-65196428D01*
X165502619Y-65196428D01*
X165407380Y-65148809D01*
X165359761Y-65101190D01*
X165312142Y-65005952D01*
X165748333Y-125434761D02*
X165605476Y-125482380D01*
X165367380Y-125482380D01*
X165272142Y-125434761D01*
X165224523Y-125387142D01*
X165176904Y-125291904D01*
X165176904Y-125196666D01*
X165224523Y-125101428D01*
X165272142Y-125053809D01*
X165367380Y-125006190D01*
X165557857Y-124958571D01*
X165653095Y-124910952D01*
X165700714Y-124863333D01*
X165748333Y-124768095D01*
X165748333Y-124672857D01*
X165700714Y-124577619D01*
X165653095Y-124530000D01*
X165557857Y-124482380D01*
X165319761Y-124482380D01*
X165176904Y-124530000D01*
X164843571Y-124482380D02*
X164605476Y-125482380D01*
X164415000Y-124768095D01*
X164224523Y-125482380D01*
X163986428Y-124482380D01*
X163176904Y-124815714D02*
X163176904Y-125482380D01*
X163415000Y-124434761D02*
X163653095Y-125149047D01*
X163034047Y-125149047D01*
X153469047Y-125482380D02*
X153802380Y-125006190D01*
X154040476Y-125482380D02*
X154040476Y-124482380D01*
X153659523Y-124482380D01*
X153564285Y-124530000D01*
X153516666Y-124577619D01*
X153469047Y-124672857D01*
X153469047Y-124815714D01*
X153516666Y-124910952D01*
X153564285Y-124958571D01*
X153659523Y-125006190D01*
X154040476Y-125006190D01*
X153040476Y-125482380D02*
X153040476Y-124815714D01*
X153040476Y-124482380D02*
X153088095Y-124530000D01*
X153040476Y-124577619D01*
X152992857Y-124530000D01*
X153040476Y-124482380D01*
X153040476Y-124577619D01*
X152135714Y-124815714D02*
X152135714Y-125625238D01*
X152183333Y-125720476D01*
X152230952Y-125768095D01*
X152326190Y-125815714D01*
X152469047Y-125815714D01*
X152564285Y-125768095D01*
X152135714Y-125434761D02*
X152230952Y-125482380D01*
X152421428Y-125482380D01*
X152516666Y-125434761D01*
X152564285Y-125387142D01*
X152611904Y-125291904D01*
X152611904Y-125006190D01*
X152564285Y-124910952D01*
X152516666Y-124863333D01*
X152421428Y-124815714D01*
X152230952Y-124815714D01*
X152135714Y-124863333D01*
X151659523Y-125482380D02*
X151659523Y-124482380D01*
X151230952Y-125482380D02*
X151230952Y-124958571D01*
X151278571Y-124863333D01*
X151373809Y-124815714D01*
X151516666Y-124815714D01*
X151611904Y-124863333D01*
X151659523Y-124910952D01*
X150897619Y-124815714D02*
X150516666Y-124815714D01*
X150754761Y-124482380D02*
X150754761Y-125339523D01*
X150707142Y-125434761D01*
X150611904Y-125482380D01*
X150516666Y-125482380D01*
X170828333Y-129879761D02*
X170685476Y-129927380D01*
X170447380Y-129927380D01*
X170352142Y-129879761D01*
X170304523Y-129832142D01*
X170256904Y-129736904D01*
X170256904Y-129641666D01*
X170304523Y-129546428D01*
X170352142Y-129498809D01*
X170447380Y-129451190D01*
X170637857Y-129403571D01*
X170733095Y-129355952D01*
X170780714Y-129308333D01*
X170828333Y-129213095D01*
X170828333Y-129117857D01*
X170780714Y-129022619D01*
X170733095Y-128975000D01*
X170637857Y-128927380D01*
X170399761Y-128927380D01*
X170256904Y-128975000D01*
X169923571Y-128927380D02*
X169685476Y-129927380D01*
X169495000Y-129213095D01*
X169304523Y-129927380D01*
X169066428Y-128927380D01*
X168780714Y-128927380D02*
X168161666Y-128927380D01*
X168495000Y-129308333D01*
X168352142Y-129308333D01*
X168256904Y-129355952D01*
X168209285Y-129403571D01*
X168161666Y-129498809D01*
X168161666Y-129736904D01*
X168209285Y-129832142D01*
X168256904Y-129879761D01*
X168352142Y-129927380D01*
X168637857Y-129927380D01*
X168733095Y-129879761D01*
X168780714Y-129832142D01*
X171760476Y-138817380D02*
X171760476Y-137817380D01*
X171522380Y-137817380D01*
X171379523Y-137865000D01*
X171284285Y-137960238D01*
X171236666Y-138055476D01*
X171189047Y-138245952D01*
X171189047Y-138388809D01*
X171236666Y-138579285D01*
X171284285Y-138674523D01*
X171379523Y-138769761D01*
X171522380Y-138817380D01*
X171760476Y-138817380D01*
X170617619Y-138817380D02*
X170712857Y-138769761D01*
X170760476Y-138722142D01*
X170808095Y-138626904D01*
X170808095Y-138341190D01*
X170760476Y-138245952D01*
X170712857Y-138198333D01*
X170617619Y-138150714D01*
X170474761Y-138150714D01*
X170379523Y-138198333D01*
X170331904Y-138245952D01*
X170284285Y-138341190D01*
X170284285Y-138626904D01*
X170331904Y-138722142D01*
X170379523Y-138769761D01*
X170474761Y-138817380D01*
X170617619Y-138817380D01*
X169950952Y-138150714D02*
X169760476Y-138817380D01*
X169570000Y-138341190D01*
X169379523Y-138817380D01*
X169189047Y-138150714D01*
X168808095Y-138150714D02*
X168808095Y-138817380D01*
X168808095Y-138245952D02*
X168760476Y-138198333D01*
X168665238Y-138150714D01*
X168522380Y-138150714D01*
X168427142Y-138198333D01*
X168379523Y-138293571D01*
X168379523Y-138817380D01*
X170828333Y-120989761D02*
X170685476Y-121037380D01*
X170447380Y-121037380D01*
X170352142Y-120989761D01*
X170304523Y-120942142D01*
X170256904Y-120846904D01*
X170256904Y-120751666D01*
X170304523Y-120656428D01*
X170352142Y-120608809D01*
X170447380Y-120561190D01*
X170637857Y-120513571D01*
X170733095Y-120465952D01*
X170780714Y-120418333D01*
X170828333Y-120323095D01*
X170828333Y-120227857D01*
X170780714Y-120132619D01*
X170733095Y-120085000D01*
X170637857Y-120037380D01*
X170399761Y-120037380D01*
X170256904Y-120085000D01*
X169923571Y-120037380D02*
X169685476Y-121037380D01*
X169495000Y-120323095D01*
X169304523Y-121037380D01*
X169066428Y-120037380D01*
X168733095Y-120132619D02*
X168685476Y-120085000D01*
X168590238Y-120037380D01*
X168352142Y-120037380D01*
X168256904Y-120085000D01*
X168209285Y-120132619D01*
X168161666Y-120227857D01*
X168161666Y-120323095D01*
X168209285Y-120465952D01*
X168780714Y-121037380D01*
X168161666Y-121037380D01*
X170233095Y-110512380D02*
X170233095Y-111321904D01*
X170185476Y-111417142D01*
X170137857Y-111464761D01*
X170042619Y-111512380D01*
X169852142Y-111512380D01*
X169756904Y-111464761D01*
X169709285Y-111417142D01*
X169661666Y-111321904D01*
X169661666Y-110512380D01*
X169185476Y-110845714D02*
X169185476Y-111845714D01*
X169185476Y-110893333D02*
X169090238Y-110845714D01*
X168899761Y-110845714D01*
X168804523Y-110893333D01*
X168756904Y-110940952D01*
X168709285Y-111036190D01*
X168709285Y-111321904D01*
X168756904Y-111417142D01*
X168804523Y-111464761D01*
X168899761Y-111512380D01*
X169090238Y-111512380D01*
X169185476Y-111464761D01*
X178710238Y-75737380D02*
X179186428Y-75737380D01*
X179186428Y-74737380D01*
X178376904Y-75213571D02*
X178043571Y-75213571D01*
X177900714Y-75737380D02*
X178376904Y-75737380D01*
X178376904Y-74737380D01*
X177900714Y-74737380D01*
X177472142Y-75737380D02*
X177472142Y-74737380D01*
X177234047Y-74737380D01*
X177091190Y-74785000D01*
X176995952Y-74880238D01*
X176948333Y-74975476D01*
X176900714Y-75165952D01*
X176900714Y-75308809D01*
X176948333Y-75499285D01*
X176995952Y-75594523D01*
X177091190Y-75689761D01*
X177234047Y-75737380D01*
X177472142Y-75737380D01*
X175948333Y-75737380D02*
X176519761Y-75737380D01*
X176234047Y-75737380D02*
X176234047Y-74737380D01*
X176329285Y-74880238D01*
X176424523Y-74975476D01*
X176519761Y-75023095D01*
X175615000Y-74737380D02*
X174948333Y-74737380D01*
X175376904Y-75737380D01*
X168550238Y-75737380D02*
X169026428Y-75737380D01*
X169026428Y-74737380D01*
X168216904Y-75213571D02*
X167883571Y-75213571D01*
X167740714Y-75737380D02*
X168216904Y-75737380D01*
X168216904Y-74737380D01*
X167740714Y-74737380D01*
X167312142Y-75737380D02*
X167312142Y-74737380D01*
X167074047Y-74737380D01*
X166931190Y-74785000D01*
X166835952Y-74880238D01*
X166788333Y-74975476D01*
X166740714Y-75165952D01*
X166740714Y-75308809D01*
X166788333Y-75499285D01*
X166835952Y-75594523D01*
X166931190Y-75689761D01*
X167074047Y-75737380D01*
X167312142Y-75737380D01*
X165788333Y-75737380D02*
X166359761Y-75737380D01*
X166074047Y-75737380D02*
X166074047Y-74737380D01*
X166169285Y-74880238D01*
X166264523Y-74975476D01*
X166359761Y-75023095D01*
X165312142Y-75737380D02*
X165121666Y-75737380D01*
X165026428Y-75689761D01*
X164978809Y-75642142D01*
X164883571Y-75499285D01*
X164835952Y-75308809D01*
X164835952Y-74927857D01*
X164883571Y-74832619D01*
X164931190Y-74785000D01*
X165026428Y-74737380D01*
X165216904Y-74737380D01*
X165312142Y-74785000D01*
X165359761Y-74832619D01*
X165407380Y-74927857D01*
X165407380Y-75165952D01*
X165359761Y-75261190D01*
X165312142Y-75308809D01*
X165216904Y-75356428D01*
X165026428Y-75356428D01*
X164931190Y-75308809D01*
X164883571Y-75261190D01*
X164835952Y-75165952D01*
X175908333Y-125434761D02*
X175765476Y-125482380D01*
X175527380Y-125482380D01*
X175432142Y-125434761D01*
X175384523Y-125387142D01*
X175336904Y-125291904D01*
X175336904Y-125196666D01*
X175384523Y-125101428D01*
X175432142Y-125053809D01*
X175527380Y-125006190D01*
X175717857Y-124958571D01*
X175813095Y-124910952D01*
X175860714Y-124863333D01*
X175908333Y-124768095D01*
X175908333Y-124672857D01*
X175860714Y-124577619D01*
X175813095Y-124530000D01*
X175717857Y-124482380D01*
X175479761Y-124482380D01*
X175336904Y-124530000D01*
X175003571Y-124482380D02*
X174765476Y-125482380D01*
X174575000Y-124768095D01*
X174384523Y-125482380D01*
X174146428Y-124482380D01*
X173241666Y-125482380D02*
X173813095Y-125482380D01*
X173527380Y-125482380D02*
X173527380Y-124482380D01*
X173622619Y-124625238D01*
X173717857Y-124720476D01*
X173813095Y-124768095D01*
X186695476Y-125482380D02*
X187171666Y-125482380D01*
X187171666Y-124482380D01*
X185981190Y-125434761D02*
X186076428Y-125482380D01*
X186266904Y-125482380D01*
X186362142Y-125434761D01*
X186409761Y-125339523D01*
X186409761Y-124958571D01*
X186362142Y-124863333D01*
X186266904Y-124815714D01*
X186076428Y-124815714D01*
X185981190Y-124863333D01*
X185933571Y-124958571D01*
X185933571Y-125053809D01*
X186409761Y-125149047D01*
X185647857Y-124815714D02*
X185266904Y-124815714D01*
X185505000Y-125482380D02*
X185505000Y-124625238D01*
X185457380Y-124530000D01*
X185362142Y-124482380D01*
X185266904Y-124482380D01*
X185076428Y-124815714D02*
X184695476Y-124815714D01*
X184933571Y-124482380D02*
X184933571Y-125339523D01*
X184885952Y-125434761D01*
X184790714Y-125482380D01*
X184695476Y-125482380D01*
X163470238Y-85897380D02*
X163946428Y-85897380D01*
X163946428Y-84897380D01*
X163136904Y-85373571D02*
X162803571Y-85373571D01*
X162660714Y-85897380D02*
X163136904Y-85897380D01*
X163136904Y-84897380D01*
X162660714Y-84897380D01*
X162232142Y-85897380D02*
X162232142Y-84897380D01*
X161994047Y-84897380D01*
X161851190Y-84945000D01*
X161755952Y-85040238D01*
X161708333Y-85135476D01*
X161660714Y-85325952D01*
X161660714Y-85468809D01*
X161708333Y-85659285D01*
X161755952Y-85754523D01*
X161851190Y-85849761D01*
X161994047Y-85897380D01*
X162232142Y-85897380D01*
X161327380Y-84897380D02*
X160708333Y-84897380D01*
X161041666Y-85278333D01*
X160898809Y-85278333D01*
X160803571Y-85325952D01*
X160755952Y-85373571D01*
X160708333Y-85468809D01*
X160708333Y-85706904D01*
X160755952Y-85802142D01*
X160803571Y-85849761D01*
X160898809Y-85897380D01*
X161184523Y-85897380D01*
X161279761Y-85849761D01*
X161327380Y-85802142D01*
X160089285Y-84897380D02*
X159994047Y-84897380D01*
X159898809Y-84945000D01*
X159851190Y-84992619D01*
X159803571Y-85087857D01*
X159755952Y-85278333D01*
X159755952Y-85516428D01*
X159803571Y-85706904D01*
X159851190Y-85802142D01*
X159898809Y-85849761D01*
X159994047Y-85897380D01*
X160089285Y-85897380D01*
X160184523Y-85849761D01*
X160232142Y-85802142D01*
X160279761Y-85706904D01*
X160327380Y-85516428D01*
X160327380Y-85278333D01*
X160279761Y-85087857D01*
X160232142Y-84992619D01*
X160184523Y-84945000D01*
X160089285Y-84897380D01*
X173630238Y-80817380D02*
X174106428Y-80817380D01*
X174106428Y-79817380D01*
X173296904Y-80293571D02*
X172963571Y-80293571D01*
X172820714Y-80817380D02*
X173296904Y-80817380D01*
X173296904Y-79817380D01*
X172820714Y-79817380D01*
X172392142Y-80817380D02*
X172392142Y-79817380D01*
X172154047Y-79817380D01*
X172011190Y-79865000D01*
X171915952Y-79960238D01*
X171868333Y-80055476D01*
X171820714Y-80245952D01*
X171820714Y-80388809D01*
X171868333Y-80579285D01*
X171915952Y-80674523D01*
X172011190Y-80769761D01*
X172154047Y-80817380D01*
X172392142Y-80817380D01*
X171439761Y-79912619D02*
X171392142Y-79865000D01*
X171296904Y-79817380D01*
X171058809Y-79817380D01*
X170963571Y-79865000D01*
X170915952Y-79912619D01*
X170868333Y-80007857D01*
X170868333Y-80103095D01*
X170915952Y-80245952D01*
X171487380Y-80817380D01*
X170868333Y-80817380D01*
X170535000Y-79817380D02*
X169915952Y-79817380D01*
X170249285Y-80198333D01*
X170106428Y-80198333D01*
X170011190Y-80245952D01*
X169963571Y-80293571D01*
X169915952Y-80388809D01*
X169915952Y-80626904D01*
X169963571Y-80722142D01*
X170011190Y-80769761D01*
X170106428Y-80817380D01*
X170392142Y-80817380D01*
X170487380Y-80769761D01*
X170535000Y-80722142D01*
X163470238Y-80817380D02*
X163946428Y-80817380D01*
X163946428Y-79817380D01*
X163136904Y-80293571D02*
X162803571Y-80293571D01*
X162660714Y-80817380D02*
X163136904Y-80817380D01*
X163136904Y-79817380D01*
X162660714Y-79817380D01*
X162232142Y-80817380D02*
X162232142Y-79817380D01*
X161994047Y-79817380D01*
X161851190Y-79865000D01*
X161755952Y-79960238D01*
X161708333Y-80055476D01*
X161660714Y-80245952D01*
X161660714Y-80388809D01*
X161708333Y-80579285D01*
X161755952Y-80674523D01*
X161851190Y-80769761D01*
X161994047Y-80817380D01*
X162232142Y-80817380D01*
X161279761Y-79912619D02*
X161232142Y-79865000D01*
X161136904Y-79817380D01*
X160898809Y-79817380D01*
X160803571Y-79865000D01*
X160755952Y-79912619D01*
X160708333Y-80007857D01*
X160708333Y-80103095D01*
X160755952Y-80245952D01*
X161327380Y-80817380D01*
X160708333Y-80817380D01*
X159803571Y-79817380D02*
X160279761Y-79817380D01*
X160327380Y-80293571D01*
X160279761Y-80245952D01*
X160184523Y-80198333D01*
X159946428Y-80198333D01*
X159851190Y-80245952D01*
X159803571Y-80293571D01*
X159755952Y-80388809D01*
X159755952Y-80626904D01*
X159803571Y-80722142D01*
X159851190Y-80769761D01*
X159946428Y-80817380D01*
X160184523Y-80817380D01*
X160279761Y-80769761D01*
X160327380Y-80722142D01*
X163470238Y-70657380D02*
X163946428Y-70657380D01*
X163946428Y-69657380D01*
X163136904Y-70133571D02*
X162803571Y-70133571D01*
X162660714Y-70657380D02*
X163136904Y-70657380D01*
X163136904Y-69657380D01*
X162660714Y-69657380D01*
X162232142Y-70657380D02*
X162232142Y-69657380D01*
X161994047Y-69657380D01*
X161851190Y-69705000D01*
X161755952Y-69800238D01*
X161708333Y-69895476D01*
X161660714Y-70085952D01*
X161660714Y-70228809D01*
X161708333Y-70419285D01*
X161755952Y-70514523D01*
X161851190Y-70609761D01*
X161994047Y-70657380D01*
X162232142Y-70657380D01*
X160708333Y-70657380D02*
X161279761Y-70657380D01*
X160994047Y-70657380D02*
X160994047Y-69657380D01*
X161089285Y-69800238D01*
X161184523Y-69895476D01*
X161279761Y-69943095D01*
X159803571Y-69657380D02*
X160279761Y-69657380D01*
X160327380Y-70133571D01*
X160279761Y-70085952D01*
X160184523Y-70038333D01*
X159946428Y-70038333D01*
X159851190Y-70085952D01*
X159803571Y-70133571D01*
X159755952Y-70228809D01*
X159755952Y-70466904D01*
X159803571Y-70562142D01*
X159851190Y-70609761D01*
X159946428Y-70657380D01*
X160184523Y-70657380D01*
X160279761Y-70609761D01*
X160327380Y-70562142D01*
X168550238Y-70657380D02*
X169026428Y-70657380D01*
X169026428Y-69657380D01*
X168216904Y-70133571D02*
X167883571Y-70133571D01*
X167740714Y-70657380D02*
X168216904Y-70657380D01*
X168216904Y-69657380D01*
X167740714Y-69657380D01*
X167312142Y-70657380D02*
X167312142Y-69657380D01*
X167074047Y-69657380D01*
X166931190Y-69705000D01*
X166835952Y-69800238D01*
X166788333Y-69895476D01*
X166740714Y-70085952D01*
X166740714Y-70228809D01*
X166788333Y-70419285D01*
X166835952Y-70514523D01*
X166931190Y-70609761D01*
X167074047Y-70657380D01*
X167312142Y-70657380D01*
X165788333Y-70657380D02*
X166359761Y-70657380D01*
X166074047Y-70657380D02*
X166074047Y-69657380D01*
X166169285Y-69800238D01*
X166264523Y-69895476D01*
X166359761Y-69943095D01*
X164931190Y-69990714D02*
X164931190Y-70657380D01*
X165169285Y-69609761D02*
X165407380Y-70324047D01*
X164788333Y-70324047D01*
X183790238Y-75737380D02*
X184266428Y-75737380D01*
X184266428Y-74737380D01*
X183456904Y-75213571D02*
X183123571Y-75213571D01*
X182980714Y-75737380D02*
X183456904Y-75737380D01*
X183456904Y-74737380D01*
X182980714Y-74737380D01*
X182552142Y-75737380D02*
X182552142Y-74737380D01*
X182314047Y-74737380D01*
X182171190Y-74785000D01*
X182075952Y-74880238D01*
X182028333Y-74975476D01*
X181980714Y-75165952D01*
X181980714Y-75308809D01*
X182028333Y-75499285D01*
X182075952Y-75594523D01*
X182171190Y-75689761D01*
X182314047Y-75737380D01*
X182552142Y-75737380D01*
X181028333Y-75737380D02*
X181599761Y-75737380D01*
X181314047Y-75737380D02*
X181314047Y-74737380D01*
X181409285Y-74880238D01*
X181504523Y-74975476D01*
X181599761Y-75023095D01*
X180171190Y-74737380D02*
X180361666Y-74737380D01*
X180456904Y-74785000D01*
X180504523Y-74832619D01*
X180599761Y-74975476D01*
X180647380Y-75165952D01*
X180647380Y-75546904D01*
X180599761Y-75642142D01*
X180552142Y-75689761D01*
X180456904Y-75737380D01*
X180266428Y-75737380D01*
X180171190Y-75689761D01*
X180123571Y-75642142D01*
X180075952Y-75546904D01*
X180075952Y-75308809D01*
X180123571Y-75213571D01*
X180171190Y-75165952D01*
X180266428Y-75118333D01*
X180456904Y-75118333D01*
X180552142Y-75165952D01*
X180599761Y-75213571D01*
X180647380Y-75308809D01*
X178710238Y-85897380D02*
X179186428Y-85897380D01*
X179186428Y-84897380D01*
X178376904Y-85373571D02*
X178043571Y-85373571D01*
X177900714Y-85897380D02*
X178376904Y-85897380D01*
X178376904Y-84897380D01*
X177900714Y-84897380D01*
X177472142Y-85897380D02*
X177472142Y-84897380D01*
X177234047Y-84897380D01*
X177091190Y-84945000D01*
X176995952Y-85040238D01*
X176948333Y-85135476D01*
X176900714Y-85325952D01*
X176900714Y-85468809D01*
X176948333Y-85659285D01*
X176995952Y-85754523D01*
X177091190Y-85849761D01*
X177234047Y-85897380D01*
X177472142Y-85897380D01*
X176519761Y-84992619D02*
X176472142Y-84945000D01*
X176376904Y-84897380D01*
X176138809Y-84897380D01*
X176043571Y-84945000D01*
X175995952Y-84992619D01*
X175948333Y-85087857D01*
X175948333Y-85183095D01*
X175995952Y-85325952D01*
X176567380Y-85897380D01*
X175948333Y-85897380D01*
X175615000Y-84897380D02*
X174948333Y-84897380D01*
X175376904Y-85897380D01*
X173630238Y-85897380D02*
X174106428Y-85897380D01*
X174106428Y-84897380D01*
X173296904Y-85373571D02*
X172963571Y-85373571D01*
X172820714Y-85897380D02*
X173296904Y-85897380D01*
X173296904Y-84897380D01*
X172820714Y-84897380D01*
X172392142Y-85897380D02*
X172392142Y-84897380D01*
X172154047Y-84897380D01*
X172011190Y-84945000D01*
X171915952Y-85040238D01*
X171868333Y-85135476D01*
X171820714Y-85325952D01*
X171820714Y-85468809D01*
X171868333Y-85659285D01*
X171915952Y-85754523D01*
X172011190Y-85849761D01*
X172154047Y-85897380D01*
X172392142Y-85897380D01*
X171439761Y-84992619D02*
X171392142Y-84945000D01*
X171296904Y-84897380D01*
X171058809Y-84897380D01*
X170963571Y-84945000D01*
X170915952Y-84992619D01*
X170868333Y-85087857D01*
X170868333Y-85183095D01*
X170915952Y-85325952D01*
X171487380Y-85897380D01*
X170868333Y-85897380D01*
X170296904Y-85325952D02*
X170392142Y-85278333D01*
X170439761Y-85230714D01*
X170487380Y-85135476D01*
X170487380Y-85087857D01*
X170439761Y-84992619D01*
X170392142Y-84945000D01*
X170296904Y-84897380D01*
X170106428Y-84897380D01*
X170011190Y-84945000D01*
X169963571Y-84992619D01*
X169915952Y-85087857D01*
X169915952Y-85135476D01*
X169963571Y-85230714D01*
X170011190Y-85278333D01*
X170106428Y-85325952D01*
X170296904Y-85325952D01*
X170392142Y-85373571D01*
X170439761Y-85421190D01*
X170487380Y-85516428D01*
X170487380Y-85706904D01*
X170439761Y-85802142D01*
X170392142Y-85849761D01*
X170296904Y-85897380D01*
X170106428Y-85897380D01*
X170011190Y-85849761D01*
X169963571Y-85802142D01*
X169915952Y-85706904D01*
X169915952Y-85516428D01*
X169963571Y-85421190D01*
X170011190Y-85373571D01*
X170106428Y-85325952D01*
X168550238Y-80817380D02*
X169026428Y-80817380D01*
X169026428Y-79817380D01*
X168216904Y-80293571D02*
X167883571Y-80293571D01*
X167740714Y-80817380D02*
X168216904Y-80817380D01*
X168216904Y-79817380D01*
X167740714Y-79817380D01*
X167312142Y-80817380D02*
X167312142Y-79817380D01*
X167074047Y-79817380D01*
X166931190Y-79865000D01*
X166835952Y-79960238D01*
X166788333Y-80055476D01*
X166740714Y-80245952D01*
X166740714Y-80388809D01*
X166788333Y-80579285D01*
X166835952Y-80674523D01*
X166931190Y-80769761D01*
X167074047Y-80817380D01*
X167312142Y-80817380D01*
X166359761Y-79912619D02*
X166312142Y-79865000D01*
X166216904Y-79817380D01*
X165978809Y-79817380D01*
X165883571Y-79865000D01*
X165835952Y-79912619D01*
X165788333Y-80007857D01*
X165788333Y-80103095D01*
X165835952Y-80245952D01*
X166407380Y-80817380D01*
X165788333Y-80817380D01*
X164931190Y-80150714D02*
X164931190Y-80817380D01*
X165169285Y-79769761D02*
X165407380Y-80484047D01*
X164788333Y-80484047D01*
X183790238Y-80817380D02*
X184266428Y-80817380D01*
X184266428Y-79817380D01*
X183456904Y-80293571D02*
X183123571Y-80293571D01*
X182980714Y-80817380D02*
X183456904Y-80817380D01*
X183456904Y-79817380D01*
X182980714Y-79817380D01*
X182552142Y-80817380D02*
X182552142Y-79817380D01*
X182314047Y-79817380D01*
X182171190Y-79865000D01*
X182075952Y-79960238D01*
X182028333Y-80055476D01*
X181980714Y-80245952D01*
X181980714Y-80388809D01*
X182028333Y-80579285D01*
X182075952Y-80674523D01*
X182171190Y-80769761D01*
X182314047Y-80817380D01*
X182552142Y-80817380D01*
X181599761Y-79912619D02*
X181552142Y-79865000D01*
X181456904Y-79817380D01*
X181218809Y-79817380D01*
X181123571Y-79865000D01*
X181075952Y-79912619D01*
X181028333Y-80007857D01*
X181028333Y-80103095D01*
X181075952Y-80245952D01*
X181647380Y-80817380D01*
X181028333Y-80817380D01*
X180075952Y-80817380D02*
X180647380Y-80817380D01*
X180361666Y-80817380D02*
X180361666Y-79817380D01*
X180456904Y-79960238D01*
X180552142Y-80055476D01*
X180647380Y-80103095D01*
X163470238Y-75737380D02*
X163946428Y-75737380D01*
X163946428Y-74737380D01*
X163136904Y-75213571D02*
X162803571Y-75213571D01*
X162660714Y-75737380D02*
X163136904Y-75737380D01*
X163136904Y-74737380D01*
X162660714Y-74737380D01*
X162232142Y-75737380D02*
X162232142Y-74737380D01*
X161994047Y-74737380D01*
X161851190Y-74785000D01*
X161755952Y-74880238D01*
X161708333Y-74975476D01*
X161660714Y-75165952D01*
X161660714Y-75308809D01*
X161708333Y-75499285D01*
X161755952Y-75594523D01*
X161851190Y-75689761D01*
X161994047Y-75737380D01*
X162232142Y-75737380D01*
X161279761Y-74832619D02*
X161232142Y-74785000D01*
X161136904Y-74737380D01*
X160898809Y-74737380D01*
X160803571Y-74785000D01*
X160755952Y-74832619D01*
X160708333Y-74927857D01*
X160708333Y-75023095D01*
X160755952Y-75165952D01*
X161327380Y-75737380D01*
X160708333Y-75737380D01*
X160089285Y-74737380D02*
X159994047Y-74737380D01*
X159898809Y-74785000D01*
X159851190Y-74832619D01*
X159803571Y-74927857D01*
X159755952Y-75118333D01*
X159755952Y-75356428D01*
X159803571Y-75546904D01*
X159851190Y-75642142D01*
X159898809Y-75689761D01*
X159994047Y-75737380D01*
X160089285Y-75737380D01*
X160184523Y-75689761D01*
X160232142Y-75642142D01*
X160279761Y-75546904D01*
X160327380Y-75356428D01*
X160327380Y-75118333D01*
X160279761Y-74927857D01*
X160232142Y-74832619D01*
X160184523Y-74785000D01*
X160089285Y-74737380D01*
X173630238Y-75737380D02*
X174106428Y-75737380D01*
X174106428Y-74737380D01*
X173296904Y-75213571D02*
X172963571Y-75213571D01*
X172820714Y-75737380D02*
X173296904Y-75737380D01*
X173296904Y-74737380D01*
X172820714Y-74737380D01*
X172392142Y-75737380D02*
X172392142Y-74737380D01*
X172154047Y-74737380D01*
X172011190Y-74785000D01*
X171915952Y-74880238D01*
X171868333Y-74975476D01*
X171820714Y-75165952D01*
X171820714Y-75308809D01*
X171868333Y-75499285D01*
X171915952Y-75594523D01*
X172011190Y-75689761D01*
X172154047Y-75737380D01*
X172392142Y-75737380D01*
X170868333Y-75737380D02*
X171439761Y-75737380D01*
X171154047Y-75737380D02*
X171154047Y-74737380D01*
X171249285Y-74880238D01*
X171344523Y-74975476D01*
X171439761Y-75023095D01*
X170296904Y-75165952D02*
X170392142Y-75118333D01*
X170439761Y-75070714D01*
X170487380Y-74975476D01*
X170487380Y-74927857D01*
X170439761Y-74832619D01*
X170392142Y-74785000D01*
X170296904Y-74737380D01*
X170106428Y-74737380D01*
X170011190Y-74785000D01*
X169963571Y-74832619D01*
X169915952Y-74927857D01*
X169915952Y-74975476D01*
X169963571Y-75070714D01*
X170011190Y-75118333D01*
X170106428Y-75165952D01*
X170296904Y-75165952D01*
X170392142Y-75213571D01*
X170439761Y-75261190D01*
X170487380Y-75356428D01*
X170487380Y-75546904D01*
X170439761Y-75642142D01*
X170392142Y-75689761D01*
X170296904Y-75737380D01*
X170106428Y-75737380D01*
X170011190Y-75689761D01*
X169963571Y-75642142D01*
X169915952Y-75546904D01*
X169915952Y-75356428D01*
X169963571Y-75261190D01*
X170011190Y-75213571D01*
X170106428Y-75165952D01*
X168550238Y-85897380D02*
X169026428Y-85897380D01*
X169026428Y-84897380D01*
X168216904Y-85373571D02*
X167883571Y-85373571D01*
X167740714Y-85897380D02*
X168216904Y-85897380D01*
X168216904Y-84897380D01*
X167740714Y-84897380D01*
X167312142Y-85897380D02*
X167312142Y-84897380D01*
X167074047Y-84897380D01*
X166931190Y-84945000D01*
X166835952Y-85040238D01*
X166788333Y-85135476D01*
X166740714Y-85325952D01*
X166740714Y-85468809D01*
X166788333Y-85659285D01*
X166835952Y-85754523D01*
X166931190Y-85849761D01*
X167074047Y-85897380D01*
X167312142Y-85897380D01*
X166359761Y-84992619D02*
X166312142Y-84945000D01*
X166216904Y-84897380D01*
X165978809Y-84897380D01*
X165883571Y-84945000D01*
X165835952Y-84992619D01*
X165788333Y-85087857D01*
X165788333Y-85183095D01*
X165835952Y-85325952D01*
X166407380Y-85897380D01*
X165788333Y-85897380D01*
X165312142Y-85897380D02*
X165121666Y-85897380D01*
X165026428Y-85849761D01*
X164978809Y-85802142D01*
X164883571Y-85659285D01*
X164835952Y-85468809D01*
X164835952Y-85087857D01*
X164883571Y-84992619D01*
X164931190Y-84945000D01*
X165026428Y-84897380D01*
X165216904Y-84897380D01*
X165312142Y-84945000D01*
X165359761Y-84992619D01*
X165407380Y-85087857D01*
X165407380Y-85325952D01*
X165359761Y-85421190D01*
X165312142Y-85468809D01*
X165216904Y-85516428D01*
X165026428Y-85516428D01*
X164931190Y-85468809D01*
X164883571Y-85421190D01*
X164835952Y-85325952D01*
X178710238Y-80817380D02*
X179186428Y-80817380D01*
X179186428Y-79817380D01*
X178376904Y-80293571D02*
X178043571Y-80293571D01*
X177900714Y-80817380D02*
X178376904Y-80817380D01*
X178376904Y-79817380D01*
X177900714Y-79817380D01*
X177472142Y-80817380D02*
X177472142Y-79817380D01*
X177234047Y-79817380D01*
X177091190Y-79865000D01*
X176995952Y-79960238D01*
X176948333Y-80055476D01*
X176900714Y-80245952D01*
X176900714Y-80388809D01*
X176948333Y-80579285D01*
X176995952Y-80674523D01*
X177091190Y-80769761D01*
X177234047Y-80817380D01*
X177472142Y-80817380D01*
X176519761Y-79912619D02*
X176472142Y-79865000D01*
X176376904Y-79817380D01*
X176138809Y-79817380D01*
X176043571Y-79865000D01*
X175995952Y-79912619D01*
X175948333Y-80007857D01*
X175948333Y-80103095D01*
X175995952Y-80245952D01*
X176567380Y-80817380D01*
X175948333Y-80817380D01*
X175567380Y-79912619D02*
X175519761Y-79865000D01*
X175424523Y-79817380D01*
X175186428Y-79817380D01*
X175091190Y-79865000D01*
X175043571Y-79912619D01*
X174995952Y-80007857D01*
X174995952Y-80103095D01*
X175043571Y-80245952D01*
X175615000Y-80817380D01*
X174995952Y-80817380D01*
X183790238Y-85897380D02*
X184266428Y-85897380D01*
X184266428Y-84897380D01*
X183456904Y-85373571D02*
X183123571Y-85373571D01*
X182980714Y-85897380D02*
X183456904Y-85897380D01*
X183456904Y-84897380D01*
X182980714Y-84897380D01*
X182552142Y-85897380D02*
X182552142Y-84897380D01*
X182314047Y-84897380D01*
X182171190Y-84945000D01*
X182075952Y-85040238D01*
X182028333Y-85135476D01*
X181980714Y-85325952D01*
X181980714Y-85468809D01*
X182028333Y-85659285D01*
X182075952Y-85754523D01*
X182171190Y-85849761D01*
X182314047Y-85897380D01*
X182552142Y-85897380D01*
X181599761Y-84992619D02*
X181552142Y-84945000D01*
X181456904Y-84897380D01*
X181218809Y-84897380D01*
X181123571Y-84945000D01*
X181075952Y-84992619D01*
X181028333Y-85087857D01*
X181028333Y-85183095D01*
X181075952Y-85325952D01*
X181647380Y-85897380D01*
X181028333Y-85897380D01*
X180171190Y-84897380D02*
X180361666Y-84897380D01*
X180456904Y-84945000D01*
X180504523Y-84992619D01*
X180599761Y-85135476D01*
X180647380Y-85325952D01*
X180647380Y-85706904D01*
X180599761Y-85802142D01*
X180552142Y-85849761D01*
X180456904Y-85897380D01*
X180266428Y-85897380D01*
X180171190Y-85849761D01*
X180123571Y-85802142D01*
X180075952Y-85706904D01*
X180075952Y-85468809D01*
X180123571Y-85373571D01*
X180171190Y-85325952D01*
X180266428Y-85278333D01*
X180456904Y-85278333D01*
X180552142Y-85325952D01*
X180599761Y-85373571D01*
X180647380Y-85468809D01*
X132314047Y-60497380D02*
X132790238Y-60497380D01*
X132790238Y-59497380D01*
X131980714Y-59973571D02*
X131647380Y-59973571D01*
X131504523Y-60497380D02*
X131980714Y-60497380D01*
X131980714Y-59497380D01*
X131504523Y-59497380D01*
X131075952Y-60497380D02*
X131075952Y-59497380D01*
X130837857Y-59497380D01*
X130695000Y-59545000D01*
X130599761Y-59640238D01*
X130552142Y-59735476D01*
X130504523Y-59925952D01*
X130504523Y-60068809D01*
X130552142Y-60259285D01*
X130599761Y-60354523D01*
X130695000Y-60449761D01*
X130837857Y-60497380D01*
X131075952Y-60497380D01*
X129552142Y-60497380D02*
X130123571Y-60497380D01*
X129837857Y-60497380D02*
X129837857Y-59497380D01*
X129933095Y-59640238D01*
X130028333Y-59735476D01*
X130123571Y-59783095D01*
X127234047Y-60497380D02*
X127710238Y-60497380D01*
X127710238Y-59497380D01*
X126900714Y-59973571D02*
X126567380Y-59973571D01*
X126424523Y-60497380D02*
X126900714Y-60497380D01*
X126900714Y-59497380D01*
X126424523Y-59497380D01*
X125995952Y-60497380D02*
X125995952Y-59497380D01*
X125757857Y-59497380D01*
X125615000Y-59545000D01*
X125519761Y-59640238D01*
X125472142Y-59735476D01*
X125424523Y-59925952D01*
X125424523Y-60068809D01*
X125472142Y-60259285D01*
X125519761Y-60354523D01*
X125615000Y-60449761D01*
X125757857Y-60497380D01*
X125995952Y-60497380D01*
X125043571Y-59592619D02*
X124995952Y-59545000D01*
X124900714Y-59497380D01*
X124662619Y-59497380D01*
X124567380Y-59545000D01*
X124519761Y-59592619D01*
X124472142Y-59687857D01*
X124472142Y-59783095D01*
X124519761Y-59925952D01*
X125091190Y-60497380D01*
X124472142Y-60497380D01*
X122154047Y-60497380D02*
X122630238Y-60497380D01*
X122630238Y-59497380D01*
X121820714Y-59973571D02*
X121487380Y-59973571D01*
X121344523Y-60497380D02*
X121820714Y-60497380D01*
X121820714Y-59497380D01*
X121344523Y-59497380D01*
X120915952Y-60497380D02*
X120915952Y-59497380D01*
X120677857Y-59497380D01*
X120535000Y-59545000D01*
X120439761Y-59640238D01*
X120392142Y-59735476D01*
X120344523Y-59925952D01*
X120344523Y-60068809D01*
X120392142Y-60259285D01*
X120439761Y-60354523D01*
X120535000Y-60449761D01*
X120677857Y-60497380D01*
X120915952Y-60497380D01*
X120011190Y-59497380D02*
X119392142Y-59497380D01*
X119725476Y-59878333D01*
X119582619Y-59878333D01*
X119487380Y-59925952D01*
X119439761Y-59973571D01*
X119392142Y-60068809D01*
X119392142Y-60306904D01*
X119439761Y-60402142D01*
X119487380Y-60449761D01*
X119582619Y-60497380D01*
X119868333Y-60497380D01*
X119963571Y-60449761D01*
X120011190Y-60402142D01*
X117074047Y-60497380D02*
X117550238Y-60497380D01*
X117550238Y-59497380D01*
X116740714Y-59973571D02*
X116407380Y-59973571D01*
X116264523Y-60497380D02*
X116740714Y-60497380D01*
X116740714Y-59497380D01*
X116264523Y-59497380D01*
X115835952Y-60497380D02*
X115835952Y-59497380D01*
X115597857Y-59497380D01*
X115455000Y-59545000D01*
X115359761Y-59640238D01*
X115312142Y-59735476D01*
X115264523Y-59925952D01*
X115264523Y-60068809D01*
X115312142Y-60259285D01*
X115359761Y-60354523D01*
X115455000Y-60449761D01*
X115597857Y-60497380D01*
X115835952Y-60497380D01*
X114407380Y-59830714D02*
X114407380Y-60497380D01*
X114645476Y-59449761D02*
X114883571Y-60164047D01*
X114264523Y-60164047D01*
X111994047Y-60497380D02*
X112470238Y-60497380D01*
X112470238Y-59497380D01*
X111660714Y-59973571D02*
X111327380Y-59973571D01*
X111184523Y-60497380D02*
X111660714Y-60497380D01*
X111660714Y-59497380D01*
X111184523Y-59497380D01*
X110755952Y-60497380D02*
X110755952Y-59497380D01*
X110517857Y-59497380D01*
X110375000Y-59545000D01*
X110279761Y-59640238D01*
X110232142Y-59735476D01*
X110184523Y-59925952D01*
X110184523Y-60068809D01*
X110232142Y-60259285D01*
X110279761Y-60354523D01*
X110375000Y-60449761D01*
X110517857Y-60497380D01*
X110755952Y-60497380D01*
X109279761Y-59497380D02*
X109755952Y-59497380D01*
X109803571Y-59973571D01*
X109755952Y-59925952D01*
X109660714Y-59878333D01*
X109422619Y-59878333D01*
X109327380Y-59925952D01*
X109279761Y-59973571D01*
X109232142Y-60068809D01*
X109232142Y-60306904D01*
X109279761Y-60402142D01*
X109327380Y-60449761D01*
X109422619Y-60497380D01*
X109660714Y-60497380D01*
X109755952Y-60449761D01*
X109803571Y-60402142D01*
X132314047Y-65577380D02*
X132790238Y-65577380D01*
X132790238Y-64577380D01*
X131980714Y-65053571D02*
X131647380Y-65053571D01*
X131504523Y-65577380D02*
X131980714Y-65577380D01*
X131980714Y-64577380D01*
X131504523Y-64577380D01*
X131075952Y-65577380D02*
X131075952Y-64577380D01*
X130837857Y-64577380D01*
X130695000Y-64625000D01*
X130599761Y-64720238D01*
X130552142Y-64815476D01*
X130504523Y-65005952D01*
X130504523Y-65148809D01*
X130552142Y-65339285D01*
X130599761Y-65434523D01*
X130695000Y-65529761D01*
X130837857Y-65577380D01*
X131075952Y-65577380D01*
X129647380Y-64577380D02*
X129837857Y-64577380D01*
X129933095Y-64625000D01*
X129980714Y-64672619D01*
X130075952Y-64815476D01*
X130123571Y-65005952D01*
X130123571Y-65386904D01*
X130075952Y-65482142D01*
X130028333Y-65529761D01*
X129933095Y-65577380D01*
X129742619Y-65577380D01*
X129647380Y-65529761D01*
X129599761Y-65482142D01*
X129552142Y-65386904D01*
X129552142Y-65148809D01*
X129599761Y-65053571D01*
X129647380Y-65005952D01*
X129742619Y-64958333D01*
X129933095Y-64958333D01*
X130028333Y-65005952D01*
X130075952Y-65053571D01*
X130123571Y-65148809D01*
X127234047Y-65577380D02*
X127710238Y-65577380D01*
X127710238Y-64577380D01*
X126900714Y-65053571D02*
X126567380Y-65053571D01*
X126424523Y-65577380D02*
X126900714Y-65577380D01*
X126900714Y-64577380D01*
X126424523Y-64577380D01*
X125995952Y-65577380D02*
X125995952Y-64577380D01*
X125757857Y-64577380D01*
X125615000Y-64625000D01*
X125519761Y-64720238D01*
X125472142Y-64815476D01*
X125424523Y-65005952D01*
X125424523Y-65148809D01*
X125472142Y-65339285D01*
X125519761Y-65434523D01*
X125615000Y-65529761D01*
X125757857Y-65577380D01*
X125995952Y-65577380D01*
X125091190Y-64577380D02*
X124424523Y-64577380D01*
X124853095Y-65577380D01*
X122154047Y-65577380D02*
X122630238Y-65577380D01*
X122630238Y-64577380D01*
X121820714Y-65053571D02*
X121487380Y-65053571D01*
X121344523Y-65577380D02*
X121820714Y-65577380D01*
X121820714Y-64577380D01*
X121344523Y-64577380D01*
X120915952Y-65577380D02*
X120915952Y-64577380D01*
X120677857Y-64577380D01*
X120535000Y-64625000D01*
X120439761Y-64720238D01*
X120392142Y-64815476D01*
X120344523Y-65005952D01*
X120344523Y-65148809D01*
X120392142Y-65339285D01*
X120439761Y-65434523D01*
X120535000Y-65529761D01*
X120677857Y-65577380D01*
X120915952Y-65577380D01*
X119773095Y-65005952D02*
X119868333Y-64958333D01*
X119915952Y-64910714D01*
X119963571Y-64815476D01*
X119963571Y-64767857D01*
X119915952Y-64672619D01*
X119868333Y-64625000D01*
X119773095Y-64577380D01*
X119582619Y-64577380D01*
X119487380Y-64625000D01*
X119439761Y-64672619D01*
X119392142Y-64767857D01*
X119392142Y-64815476D01*
X119439761Y-64910714D01*
X119487380Y-64958333D01*
X119582619Y-65005952D01*
X119773095Y-65005952D01*
X119868333Y-65053571D01*
X119915952Y-65101190D01*
X119963571Y-65196428D01*
X119963571Y-65386904D01*
X119915952Y-65482142D01*
X119868333Y-65529761D01*
X119773095Y-65577380D01*
X119582619Y-65577380D01*
X119487380Y-65529761D01*
X119439761Y-65482142D01*
X119392142Y-65386904D01*
X119392142Y-65196428D01*
X119439761Y-65101190D01*
X119487380Y-65053571D01*
X119582619Y-65005952D01*
X117074047Y-65577380D02*
X117550238Y-65577380D01*
X117550238Y-64577380D01*
X116740714Y-65053571D02*
X116407380Y-65053571D01*
X116264523Y-65577380D02*
X116740714Y-65577380D01*
X116740714Y-64577380D01*
X116264523Y-64577380D01*
X115835952Y-65577380D02*
X115835952Y-64577380D01*
X115597857Y-64577380D01*
X115455000Y-64625000D01*
X115359761Y-64720238D01*
X115312142Y-64815476D01*
X115264523Y-65005952D01*
X115264523Y-65148809D01*
X115312142Y-65339285D01*
X115359761Y-65434523D01*
X115455000Y-65529761D01*
X115597857Y-65577380D01*
X115835952Y-65577380D01*
X114788333Y-65577380D02*
X114597857Y-65577380D01*
X114502619Y-65529761D01*
X114455000Y-65482142D01*
X114359761Y-65339285D01*
X114312142Y-65148809D01*
X114312142Y-64767857D01*
X114359761Y-64672619D01*
X114407380Y-64625000D01*
X114502619Y-64577380D01*
X114693095Y-64577380D01*
X114788333Y-64625000D01*
X114835952Y-64672619D01*
X114883571Y-64767857D01*
X114883571Y-65005952D01*
X114835952Y-65101190D01*
X114788333Y-65148809D01*
X114693095Y-65196428D01*
X114502619Y-65196428D01*
X114407380Y-65148809D01*
X114359761Y-65101190D01*
X114312142Y-65005952D01*
X112470238Y-65577380D02*
X112946428Y-65577380D01*
X112946428Y-64577380D01*
X112136904Y-65053571D02*
X111803571Y-65053571D01*
X111660714Y-65577380D02*
X112136904Y-65577380D01*
X112136904Y-64577380D01*
X111660714Y-64577380D01*
X111232142Y-65577380D02*
X111232142Y-64577380D01*
X110994047Y-64577380D01*
X110851190Y-64625000D01*
X110755952Y-64720238D01*
X110708333Y-64815476D01*
X110660714Y-65005952D01*
X110660714Y-65148809D01*
X110708333Y-65339285D01*
X110755952Y-65434523D01*
X110851190Y-65529761D01*
X110994047Y-65577380D01*
X111232142Y-65577380D01*
X109708333Y-65577380D02*
X110279761Y-65577380D01*
X109994047Y-65577380D02*
X109994047Y-64577380D01*
X110089285Y-64720238D01*
X110184523Y-64815476D01*
X110279761Y-64863095D01*
X109089285Y-64577380D02*
X108994047Y-64577380D01*
X108898809Y-64625000D01*
X108851190Y-64672619D01*
X108803571Y-64767857D01*
X108755952Y-64958333D01*
X108755952Y-65196428D01*
X108803571Y-65386904D01*
X108851190Y-65482142D01*
X108898809Y-65529761D01*
X108994047Y-65577380D01*
X109089285Y-65577380D01*
X109184523Y-65529761D01*
X109232142Y-65482142D01*
X109279761Y-65386904D01*
X109327380Y-65196428D01*
X109327380Y-64958333D01*
X109279761Y-64767857D01*
X109232142Y-64672619D01*
X109184523Y-64625000D01*
X109089285Y-64577380D01*
X132790238Y-70657380D02*
X133266428Y-70657380D01*
X133266428Y-69657380D01*
X132456904Y-70133571D02*
X132123571Y-70133571D01*
X131980714Y-70657380D02*
X132456904Y-70657380D01*
X132456904Y-69657380D01*
X131980714Y-69657380D01*
X131552142Y-70657380D02*
X131552142Y-69657380D01*
X131314047Y-69657380D01*
X131171190Y-69705000D01*
X131075952Y-69800238D01*
X131028333Y-69895476D01*
X130980714Y-70085952D01*
X130980714Y-70228809D01*
X131028333Y-70419285D01*
X131075952Y-70514523D01*
X131171190Y-70609761D01*
X131314047Y-70657380D01*
X131552142Y-70657380D01*
X130028333Y-70657380D02*
X130599761Y-70657380D01*
X130314047Y-70657380D02*
X130314047Y-69657380D01*
X130409285Y-69800238D01*
X130504523Y-69895476D01*
X130599761Y-69943095D01*
X129075952Y-70657380D02*
X129647380Y-70657380D01*
X129361666Y-70657380D02*
X129361666Y-69657380D01*
X129456904Y-69800238D01*
X129552142Y-69895476D01*
X129647380Y-69943095D01*
X127710238Y-70657380D02*
X128186428Y-70657380D01*
X128186428Y-69657380D01*
X127376904Y-70133571D02*
X127043571Y-70133571D01*
X126900714Y-70657380D02*
X127376904Y-70657380D01*
X127376904Y-69657380D01*
X126900714Y-69657380D01*
X126472142Y-70657380D02*
X126472142Y-69657380D01*
X126234047Y-69657380D01*
X126091190Y-69705000D01*
X125995952Y-69800238D01*
X125948333Y-69895476D01*
X125900714Y-70085952D01*
X125900714Y-70228809D01*
X125948333Y-70419285D01*
X125995952Y-70514523D01*
X126091190Y-70609761D01*
X126234047Y-70657380D01*
X126472142Y-70657380D01*
X124948333Y-70657380D02*
X125519761Y-70657380D01*
X125234047Y-70657380D02*
X125234047Y-69657380D01*
X125329285Y-69800238D01*
X125424523Y-69895476D01*
X125519761Y-69943095D01*
X124567380Y-69752619D02*
X124519761Y-69705000D01*
X124424523Y-69657380D01*
X124186428Y-69657380D01*
X124091190Y-69705000D01*
X124043571Y-69752619D01*
X123995952Y-69847857D01*
X123995952Y-69943095D01*
X124043571Y-70085952D01*
X124615000Y-70657380D01*
X123995952Y-70657380D01*
X122630238Y-70657380D02*
X123106428Y-70657380D01*
X123106428Y-69657380D01*
X122296904Y-70133571D02*
X121963571Y-70133571D01*
X121820714Y-70657380D02*
X122296904Y-70657380D01*
X122296904Y-69657380D01*
X121820714Y-69657380D01*
X121392142Y-70657380D02*
X121392142Y-69657380D01*
X121154047Y-69657380D01*
X121011190Y-69705000D01*
X120915952Y-69800238D01*
X120868333Y-69895476D01*
X120820714Y-70085952D01*
X120820714Y-70228809D01*
X120868333Y-70419285D01*
X120915952Y-70514523D01*
X121011190Y-70609761D01*
X121154047Y-70657380D01*
X121392142Y-70657380D01*
X119868333Y-70657380D02*
X120439761Y-70657380D01*
X120154047Y-70657380D02*
X120154047Y-69657380D01*
X120249285Y-69800238D01*
X120344523Y-69895476D01*
X120439761Y-69943095D01*
X119535000Y-69657380D02*
X118915952Y-69657380D01*
X119249285Y-70038333D01*
X119106428Y-70038333D01*
X119011190Y-70085952D01*
X118963571Y-70133571D01*
X118915952Y-70228809D01*
X118915952Y-70466904D01*
X118963571Y-70562142D01*
X119011190Y-70609761D01*
X119106428Y-70657380D01*
X119392142Y-70657380D01*
X119487380Y-70609761D01*
X119535000Y-70562142D01*
X117550238Y-70657380D02*
X118026428Y-70657380D01*
X118026428Y-69657380D01*
X117216904Y-70133571D02*
X116883571Y-70133571D01*
X116740714Y-70657380D02*
X117216904Y-70657380D01*
X117216904Y-69657380D01*
X116740714Y-69657380D01*
X116312142Y-70657380D02*
X116312142Y-69657380D01*
X116074047Y-69657380D01*
X115931190Y-69705000D01*
X115835952Y-69800238D01*
X115788333Y-69895476D01*
X115740714Y-70085952D01*
X115740714Y-70228809D01*
X115788333Y-70419285D01*
X115835952Y-70514523D01*
X115931190Y-70609761D01*
X116074047Y-70657380D01*
X116312142Y-70657380D01*
X114788333Y-70657380D02*
X115359761Y-70657380D01*
X115074047Y-70657380D02*
X115074047Y-69657380D01*
X115169285Y-69800238D01*
X115264523Y-69895476D01*
X115359761Y-69943095D01*
X113931190Y-69990714D02*
X113931190Y-70657380D01*
X114169285Y-69609761D02*
X114407380Y-70324047D01*
X113788333Y-70324047D01*
X112470238Y-70657380D02*
X112946428Y-70657380D01*
X112946428Y-69657380D01*
X112136904Y-70133571D02*
X111803571Y-70133571D01*
X111660714Y-70657380D02*
X112136904Y-70657380D01*
X112136904Y-69657380D01*
X111660714Y-69657380D01*
X111232142Y-70657380D02*
X111232142Y-69657380D01*
X110994047Y-69657380D01*
X110851190Y-69705000D01*
X110755952Y-69800238D01*
X110708333Y-69895476D01*
X110660714Y-70085952D01*
X110660714Y-70228809D01*
X110708333Y-70419285D01*
X110755952Y-70514523D01*
X110851190Y-70609761D01*
X110994047Y-70657380D01*
X111232142Y-70657380D01*
X109708333Y-70657380D02*
X110279761Y-70657380D01*
X109994047Y-70657380D02*
X109994047Y-69657380D01*
X110089285Y-69800238D01*
X110184523Y-69895476D01*
X110279761Y-69943095D01*
X108803571Y-69657380D02*
X109279761Y-69657380D01*
X109327380Y-70133571D01*
X109279761Y-70085952D01*
X109184523Y-70038333D01*
X108946428Y-70038333D01*
X108851190Y-70085952D01*
X108803571Y-70133571D01*
X108755952Y-70228809D01*
X108755952Y-70466904D01*
X108803571Y-70562142D01*
X108851190Y-70609761D01*
X108946428Y-70657380D01*
X109184523Y-70657380D01*
X109279761Y-70609761D01*
X109327380Y-70562142D01*
X132790238Y-75737380D02*
X133266428Y-75737380D01*
X133266428Y-74737380D01*
X132456904Y-75213571D02*
X132123571Y-75213571D01*
X131980714Y-75737380D02*
X132456904Y-75737380D01*
X132456904Y-74737380D01*
X131980714Y-74737380D01*
X131552142Y-75737380D02*
X131552142Y-74737380D01*
X131314047Y-74737380D01*
X131171190Y-74785000D01*
X131075952Y-74880238D01*
X131028333Y-74975476D01*
X130980714Y-75165952D01*
X130980714Y-75308809D01*
X131028333Y-75499285D01*
X131075952Y-75594523D01*
X131171190Y-75689761D01*
X131314047Y-75737380D01*
X131552142Y-75737380D01*
X130028333Y-75737380D02*
X130599761Y-75737380D01*
X130314047Y-75737380D02*
X130314047Y-74737380D01*
X130409285Y-74880238D01*
X130504523Y-74975476D01*
X130599761Y-75023095D01*
X129171190Y-74737380D02*
X129361666Y-74737380D01*
X129456904Y-74785000D01*
X129504523Y-74832619D01*
X129599761Y-74975476D01*
X129647380Y-75165952D01*
X129647380Y-75546904D01*
X129599761Y-75642142D01*
X129552142Y-75689761D01*
X129456904Y-75737380D01*
X129266428Y-75737380D01*
X129171190Y-75689761D01*
X129123571Y-75642142D01*
X129075952Y-75546904D01*
X129075952Y-75308809D01*
X129123571Y-75213571D01*
X129171190Y-75165952D01*
X129266428Y-75118333D01*
X129456904Y-75118333D01*
X129552142Y-75165952D01*
X129599761Y-75213571D01*
X129647380Y-75308809D01*
X127710238Y-75737380D02*
X128186428Y-75737380D01*
X128186428Y-74737380D01*
X127376904Y-75213571D02*
X127043571Y-75213571D01*
X126900714Y-75737380D02*
X127376904Y-75737380D01*
X127376904Y-74737380D01*
X126900714Y-74737380D01*
X126472142Y-75737380D02*
X126472142Y-74737380D01*
X126234047Y-74737380D01*
X126091190Y-74785000D01*
X125995952Y-74880238D01*
X125948333Y-74975476D01*
X125900714Y-75165952D01*
X125900714Y-75308809D01*
X125948333Y-75499285D01*
X125995952Y-75594523D01*
X126091190Y-75689761D01*
X126234047Y-75737380D01*
X126472142Y-75737380D01*
X124948333Y-75737380D02*
X125519761Y-75737380D01*
X125234047Y-75737380D02*
X125234047Y-74737380D01*
X125329285Y-74880238D01*
X125424523Y-74975476D01*
X125519761Y-75023095D01*
X124615000Y-74737380D02*
X123948333Y-74737380D01*
X124376904Y-75737380D01*
X122630238Y-75737380D02*
X123106428Y-75737380D01*
X123106428Y-74737380D01*
X122296904Y-75213571D02*
X121963571Y-75213571D01*
X121820714Y-75737380D02*
X122296904Y-75737380D01*
X122296904Y-74737380D01*
X121820714Y-74737380D01*
X121392142Y-75737380D02*
X121392142Y-74737380D01*
X121154047Y-74737380D01*
X121011190Y-74785000D01*
X120915952Y-74880238D01*
X120868333Y-74975476D01*
X120820714Y-75165952D01*
X120820714Y-75308809D01*
X120868333Y-75499285D01*
X120915952Y-75594523D01*
X121011190Y-75689761D01*
X121154047Y-75737380D01*
X121392142Y-75737380D01*
X119868333Y-75737380D02*
X120439761Y-75737380D01*
X120154047Y-75737380D02*
X120154047Y-74737380D01*
X120249285Y-74880238D01*
X120344523Y-74975476D01*
X120439761Y-75023095D01*
X119296904Y-75165952D02*
X119392142Y-75118333D01*
X119439761Y-75070714D01*
X119487380Y-74975476D01*
X119487380Y-74927857D01*
X119439761Y-74832619D01*
X119392142Y-74785000D01*
X119296904Y-74737380D01*
X119106428Y-74737380D01*
X119011190Y-74785000D01*
X118963571Y-74832619D01*
X118915952Y-74927857D01*
X118915952Y-74975476D01*
X118963571Y-75070714D01*
X119011190Y-75118333D01*
X119106428Y-75165952D01*
X119296904Y-75165952D01*
X119392142Y-75213571D01*
X119439761Y-75261190D01*
X119487380Y-75356428D01*
X119487380Y-75546904D01*
X119439761Y-75642142D01*
X119392142Y-75689761D01*
X119296904Y-75737380D01*
X119106428Y-75737380D01*
X119011190Y-75689761D01*
X118963571Y-75642142D01*
X118915952Y-75546904D01*
X118915952Y-75356428D01*
X118963571Y-75261190D01*
X119011190Y-75213571D01*
X119106428Y-75165952D01*
X117550238Y-75737380D02*
X118026428Y-75737380D01*
X118026428Y-74737380D01*
X117216904Y-75213571D02*
X116883571Y-75213571D01*
X116740714Y-75737380D02*
X117216904Y-75737380D01*
X117216904Y-74737380D01*
X116740714Y-74737380D01*
X116312142Y-75737380D02*
X116312142Y-74737380D01*
X116074047Y-74737380D01*
X115931190Y-74785000D01*
X115835952Y-74880238D01*
X115788333Y-74975476D01*
X115740714Y-75165952D01*
X115740714Y-75308809D01*
X115788333Y-75499285D01*
X115835952Y-75594523D01*
X115931190Y-75689761D01*
X116074047Y-75737380D01*
X116312142Y-75737380D01*
X114788333Y-75737380D02*
X115359761Y-75737380D01*
X115074047Y-75737380D02*
X115074047Y-74737380D01*
X115169285Y-74880238D01*
X115264523Y-74975476D01*
X115359761Y-75023095D01*
X114312142Y-75737380D02*
X114121666Y-75737380D01*
X114026428Y-75689761D01*
X113978809Y-75642142D01*
X113883571Y-75499285D01*
X113835952Y-75308809D01*
X113835952Y-74927857D01*
X113883571Y-74832619D01*
X113931190Y-74785000D01*
X114026428Y-74737380D01*
X114216904Y-74737380D01*
X114312142Y-74785000D01*
X114359761Y-74832619D01*
X114407380Y-74927857D01*
X114407380Y-75165952D01*
X114359761Y-75261190D01*
X114312142Y-75308809D01*
X114216904Y-75356428D01*
X114026428Y-75356428D01*
X113931190Y-75308809D01*
X113883571Y-75261190D01*
X113835952Y-75165952D01*
X112470238Y-75737380D02*
X112946428Y-75737380D01*
X112946428Y-74737380D01*
X112136904Y-75213571D02*
X111803571Y-75213571D01*
X111660714Y-75737380D02*
X112136904Y-75737380D01*
X112136904Y-74737380D01*
X111660714Y-74737380D01*
X111232142Y-75737380D02*
X111232142Y-74737380D01*
X110994047Y-74737380D01*
X110851190Y-74785000D01*
X110755952Y-74880238D01*
X110708333Y-74975476D01*
X110660714Y-75165952D01*
X110660714Y-75308809D01*
X110708333Y-75499285D01*
X110755952Y-75594523D01*
X110851190Y-75689761D01*
X110994047Y-75737380D01*
X111232142Y-75737380D01*
X110279761Y-74832619D02*
X110232142Y-74785000D01*
X110136904Y-74737380D01*
X109898809Y-74737380D01*
X109803571Y-74785000D01*
X109755952Y-74832619D01*
X109708333Y-74927857D01*
X109708333Y-75023095D01*
X109755952Y-75165952D01*
X110327380Y-75737380D01*
X109708333Y-75737380D01*
X109089285Y-74737380D02*
X108994047Y-74737380D01*
X108898809Y-74785000D01*
X108851190Y-74832619D01*
X108803571Y-74927857D01*
X108755952Y-75118333D01*
X108755952Y-75356428D01*
X108803571Y-75546904D01*
X108851190Y-75642142D01*
X108898809Y-75689761D01*
X108994047Y-75737380D01*
X109089285Y-75737380D01*
X109184523Y-75689761D01*
X109232142Y-75642142D01*
X109279761Y-75546904D01*
X109327380Y-75356428D01*
X109327380Y-75118333D01*
X109279761Y-74927857D01*
X109232142Y-74832619D01*
X109184523Y-74785000D01*
X109089285Y-74737380D01*
X132790238Y-80817380D02*
X133266428Y-80817380D01*
X133266428Y-79817380D01*
X132456904Y-80293571D02*
X132123571Y-80293571D01*
X131980714Y-80817380D02*
X132456904Y-80817380D01*
X132456904Y-79817380D01*
X131980714Y-79817380D01*
X131552142Y-80817380D02*
X131552142Y-79817380D01*
X131314047Y-79817380D01*
X131171190Y-79865000D01*
X131075952Y-79960238D01*
X131028333Y-80055476D01*
X130980714Y-80245952D01*
X130980714Y-80388809D01*
X131028333Y-80579285D01*
X131075952Y-80674523D01*
X131171190Y-80769761D01*
X131314047Y-80817380D01*
X131552142Y-80817380D01*
X130599761Y-79912619D02*
X130552142Y-79865000D01*
X130456904Y-79817380D01*
X130218809Y-79817380D01*
X130123571Y-79865000D01*
X130075952Y-79912619D01*
X130028333Y-80007857D01*
X130028333Y-80103095D01*
X130075952Y-80245952D01*
X130647380Y-80817380D01*
X130028333Y-80817380D01*
X129075952Y-80817380D02*
X129647380Y-80817380D01*
X129361666Y-80817380D02*
X129361666Y-79817380D01*
X129456904Y-79960238D01*
X129552142Y-80055476D01*
X129647380Y-80103095D01*
X127710238Y-80817380D02*
X128186428Y-80817380D01*
X128186428Y-79817380D01*
X127376904Y-80293571D02*
X127043571Y-80293571D01*
X126900714Y-80817380D02*
X127376904Y-80817380D01*
X127376904Y-79817380D01*
X126900714Y-79817380D01*
X126472142Y-80817380D02*
X126472142Y-79817380D01*
X126234047Y-79817380D01*
X126091190Y-79865000D01*
X125995952Y-79960238D01*
X125948333Y-80055476D01*
X125900714Y-80245952D01*
X125900714Y-80388809D01*
X125948333Y-80579285D01*
X125995952Y-80674523D01*
X126091190Y-80769761D01*
X126234047Y-80817380D01*
X126472142Y-80817380D01*
X125519761Y-79912619D02*
X125472142Y-79865000D01*
X125376904Y-79817380D01*
X125138809Y-79817380D01*
X125043571Y-79865000D01*
X124995952Y-79912619D01*
X124948333Y-80007857D01*
X124948333Y-80103095D01*
X124995952Y-80245952D01*
X125567380Y-80817380D01*
X124948333Y-80817380D01*
X124567380Y-79912619D02*
X124519761Y-79865000D01*
X124424523Y-79817380D01*
X124186428Y-79817380D01*
X124091190Y-79865000D01*
X124043571Y-79912619D01*
X123995952Y-80007857D01*
X123995952Y-80103095D01*
X124043571Y-80245952D01*
X124615000Y-80817380D01*
X123995952Y-80817380D01*
X122630238Y-80817380D02*
X123106428Y-80817380D01*
X123106428Y-79817380D01*
X122296904Y-80293571D02*
X121963571Y-80293571D01*
X121820714Y-80817380D02*
X122296904Y-80817380D01*
X122296904Y-79817380D01*
X121820714Y-79817380D01*
X121392142Y-80817380D02*
X121392142Y-79817380D01*
X121154047Y-79817380D01*
X121011190Y-79865000D01*
X120915952Y-79960238D01*
X120868333Y-80055476D01*
X120820714Y-80245952D01*
X120820714Y-80388809D01*
X120868333Y-80579285D01*
X120915952Y-80674523D01*
X121011190Y-80769761D01*
X121154047Y-80817380D01*
X121392142Y-80817380D01*
X120439761Y-79912619D02*
X120392142Y-79865000D01*
X120296904Y-79817380D01*
X120058809Y-79817380D01*
X119963571Y-79865000D01*
X119915952Y-79912619D01*
X119868333Y-80007857D01*
X119868333Y-80103095D01*
X119915952Y-80245952D01*
X120487380Y-80817380D01*
X119868333Y-80817380D01*
X119535000Y-79817380D02*
X118915952Y-79817380D01*
X119249285Y-80198333D01*
X119106428Y-80198333D01*
X119011190Y-80245952D01*
X118963571Y-80293571D01*
X118915952Y-80388809D01*
X118915952Y-80626904D01*
X118963571Y-80722142D01*
X119011190Y-80769761D01*
X119106428Y-80817380D01*
X119392142Y-80817380D01*
X119487380Y-80769761D01*
X119535000Y-80722142D01*
X117550238Y-80817380D02*
X118026428Y-80817380D01*
X118026428Y-79817380D01*
X117216904Y-80293571D02*
X116883571Y-80293571D01*
X116740714Y-80817380D02*
X117216904Y-80817380D01*
X117216904Y-79817380D01*
X116740714Y-79817380D01*
X116312142Y-80817380D02*
X116312142Y-79817380D01*
X116074047Y-79817380D01*
X115931190Y-79865000D01*
X115835952Y-79960238D01*
X115788333Y-80055476D01*
X115740714Y-80245952D01*
X115740714Y-80388809D01*
X115788333Y-80579285D01*
X115835952Y-80674523D01*
X115931190Y-80769761D01*
X116074047Y-80817380D01*
X116312142Y-80817380D01*
X115359761Y-79912619D02*
X115312142Y-79865000D01*
X115216904Y-79817380D01*
X114978809Y-79817380D01*
X114883571Y-79865000D01*
X114835952Y-79912619D01*
X114788333Y-80007857D01*
X114788333Y-80103095D01*
X114835952Y-80245952D01*
X115407380Y-80817380D01*
X114788333Y-80817380D01*
X113931190Y-80150714D02*
X113931190Y-80817380D01*
X114169285Y-79769761D02*
X114407380Y-80484047D01*
X113788333Y-80484047D01*
X112470238Y-80817380D02*
X112946428Y-80817380D01*
X112946428Y-79817380D01*
X112136904Y-80293571D02*
X111803571Y-80293571D01*
X111660714Y-80817380D02*
X112136904Y-80817380D01*
X112136904Y-79817380D01*
X111660714Y-79817380D01*
X111232142Y-80817380D02*
X111232142Y-79817380D01*
X110994047Y-79817380D01*
X110851190Y-79865000D01*
X110755952Y-79960238D01*
X110708333Y-80055476D01*
X110660714Y-80245952D01*
X110660714Y-80388809D01*
X110708333Y-80579285D01*
X110755952Y-80674523D01*
X110851190Y-80769761D01*
X110994047Y-80817380D01*
X111232142Y-80817380D01*
X110279761Y-79912619D02*
X110232142Y-79865000D01*
X110136904Y-79817380D01*
X109898809Y-79817380D01*
X109803571Y-79865000D01*
X109755952Y-79912619D01*
X109708333Y-80007857D01*
X109708333Y-80103095D01*
X109755952Y-80245952D01*
X110327380Y-80817380D01*
X109708333Y-80817380D01*
X108803571Y-79817380D02*
X109279761Y-79817380D01*
X109327380Y-80293571D01*
X109279761Y-80245952D01*
X109184523Y-80198333D01*
X108946428Y-80198333D01*
X108851190Y-80245952D01*
X108803571Y-80293571D01*
X108755952Y-80388809D01*
X108755952Y-80626904D01*
X108803571Y-80722142D01*
X108851190Y-80769761D01*
X108946428Y-80817380D01*
X109184523Y-80817380D01*
X109279761Y-80769761D01*
X109327380Y-80722142D01*
X132790238Y-85897380D02*
X133266428Y-85897380D01*
X133266428Y-84897380D01*
X132456904Y-85373571D02*
X132123571Y-85373571D01*
X131980714Y-85897380D02*
X132456904Y-85897380D01*
X132456904Y-84897380D01*
X131980714Y-84897380D01*
X131552142Y-85897380D02*
X131552142Y-84897380D01*
X131314047Y-84897380D01*
X131171190Y-84945000D01*
X131075952Y-85040238D01*
X131028333Y-85135476D01*
X130980714Y-85325952D01*
X130980714Y-85468809D01*
X131028333Y-85659285D01*
X131075952Y-85754523D01*
X131171190Y-85849761D01*
X131314047Y-85897380D01*
X131552142Y-85897380D01*
X130599761Y-84992619D02*
X130552142Y-84945000D01*
X130456904Y-84897380D01*
X130218809Y-84897380D01*
X130123571Y-84945000D01*
X130075952Y-84992619D01*
X130028333Y-85087857D01*
X130028333Y-85183095D01*
X130075952Y-85325952D01*
X130647380Y-85897380D01*
X130028333Y-85897380D01*
X129171190Y-84897380D02*
X129361666Y-84897380D01*
X129456904Y-84945000D01*
X129504523Y-84992619D01*
X129599761Y-85135476D01*
X129647380Y-85325952D01*
X129647380Y-85706904D01*
X129599761Y-85802142D01*
X129552142Y-85849761D01*
X129456904Y-85897380D01*
X129266428Y-85897380D01*
X129171190Y-85849761D01*
X129123571Y-85802142D01*
X129075952Y-85706904D01*
X129075952Y-85468809D01*
X129123571Y-85373571D01*
X129171190Y-85325952D01*
X129266428Y-85278333D01*
X129456904Y-85278333D01*
X129552142Y-85325952D01*
X129599761Y-85373571D01*
X129647380Y-85468809D01*
X127710238Y-85897380D02*
X128186428Y-85897380D01*
X128186428Y-84897380D01*
X127376904Y-85373571D02*
X127043571Y-85373571D01*
X126900714Y-85897380D02*
X127376904Y-85897380D01*
X127376904Y-84897380D01*
X126900714Y-84897380D01*
X126472142Y-85897380D02*
X126472142Y-84897380D01*
X126234047Y-84897380D01*
X126091190Y-84945000D01*
X125995952Y-85040238D01*
X125948333Y-85135476D01*
X125900714Y-85325952D01*
X125900714Y-85468809D01*
X125948333Y-85659285D01*
X125995952Y-85754523D01*
X126091190Y-85849761D01*
X126234047Y-85897380D01*
X126472142Y-85897380D01*
X125519761Y-84992619D02*
X125472142Y-84945000D01*
X125376904Y-84897380D01*
X125138809Y-84897380D01*
X125043571Y-84945000D01*
X124995952Y-84992619D01*
X124948333Y-85087857D01*
X124948333Y-85183095D01*
X124995952Y-85325952D01*
X125567380Y-85897380D01*
X124948333Y-85897380D01*
X124615000Y-84897380D02*
X123948333Y-84897380D01*
X124376904Y-85897380D01*
X122630238Y-85897380D02*
X123106428Y-85897380D01*
X123106428Y-84897380D01*
X122296904Y-85373571D02*
X121963571Y-85373571D01*
X121820714Y-85897380D02*
X122296904Y-85897380D01*
X122296904Y-84897380D01*
X121820714Y-84897380D01*
X121392142Y-85897380D02*
X121392142Y-84897380D01*
X121154047Y-84897380D01*
X121011190Y-84945000D01*
X120915952Y-85040238D01*
X120868333Y-85135476D01*
X120820714Y-85325952D01*
X120820714Y-85468809D01*
X120868333Y-85659285D01*
X120915952Y-85754523D01*
X121011190Y-85849761D01*
X121154047Y-85897380D01*
X121392142Y-85897380D01*
X120439761Y-84992619D02*
X120392142Y-84945000D01*
X120296904Y-84897380D01*
X120058809Y-84897380D01*
X119963571Y-84945000D01*
X119915952Y-84992619D01*
X119868333Y-85087857D01*
X119868333Y-85183095D01*
X119915952Y-85325952D01*
X120487380Y-85897380D01*
X119868333Y-85897380D01*
X119296904Y-85325952D02*
X119392142Y-85278333D01*
X119439761Y-85230714D01*
X119487380Y-85135476D01*
X119487380Y-85087857D01*
X119439761Y-84992619D01*
X119392142Y-84945000D01*
X119296904Y-84897380D01*
X119106428Y-84897380D01*
X119011190Y-84945000D01*
X118963571Y-84992619D01*
X118915952Y-85087857D01*
X118915952Y-85135476D01*
X118963571Y-85230714D01*
X119011190Y-85278333D01*
X119106428Y-85325952D01*
X119296904Y-85325952D01*
X119392142Y-85373571D01*
X119439761Y-85421190D01*
X119487380Y-85516428D01*
X119487380Y-85706904D01*
X119439761Y-85802142D01*
X119392142Y-85849761D01*
X119296904Y-85897380D01*
X119106428Y-85897380D01*
X119011190Y-85849761D01*
X118963571Y-85802142D01*
X118915952Y-85706904D01*
X118915952Y-85516428D01*
X118963571Y-85421190D01*
X119011190Y-85373571D01*
X119106428Y-85325952D01*
X117550238Y-85897380D02*
X118026428Y-85897380D01*
X118026428Y-84897380D01*
X117216904Y-85373571D02*
X116883571Y-85373571D01*
X116740714Y-85897380D02*
X117216904Y-85897380D01*
X117216904Y-84897380D01*
X116740714Y-84897380D01*
X116312142Y-85897380D02*
X116312142Y-84897380D01*
X116074047Y-84897380D01*
X115931190Y-84945000D01*
X115835952Y-85040238D01*
X115788333Y-85135476D01*
X115740714Y-85325952D01*
X115740714Y-85468809D01*
X115788333Y-85659285D01*
X115835952Y-85754523D01*
X115931190Y-85849761D01*
X116074047Y-85897380D01*
X116312142Y-85897380D01*
X115359761Y-84992619D02*
X115312142Y-84945000D01*
X115216904Y-84897380D01*
X114978809Y-84897380D01*
X114883571Y-84945000D01*
X114835952Y-84992619D01*
X114788333Y-85087857D01*
X114788333Y-85183095D01*
X114835952Y-85325952D01*
X115407380Y-85897380D01*
X114788333Y-85897380D01*
X114312142Y-85897380D02*
X114121666Y-85897380D01*
X114026428Y-85849761D01*
X113978809Y-85802142D01*
X113883571Y-85659285D01*
X113835952Y-85468809D01*
X113835952Y-85087857D01*
X113883571Y-84992619D01*
X113931190Y-84945000D01*
X114026428Y-84897380D01*
X114216904Y-84897380D01*
X114312142Y-84945000D01*
X114359761Y-84992619D01*
X114407380Y-85087857D01*
X114407380Y-85325952D01*
X114359761Y-85421190D01*
X114312142Y-85468809D01*
X114216904Y-85516428D01*
X114026428Y-85516428D01*
X113931190Y-85468809D01*
X113883571Y-85421190D01*
X113835952Y-85325952D01*
X112470238Y-85897380D02*
X112946428Y-85897380D01*
X112946428Y-84897380D01*
X112136904Y-85373571D02*
X111803571Y-85373571D01*
X111660714Y-85897380D02*
X112136904Y-85897380D01*
X112136904Y-84897380D01*
X111660714Y-84897380D01*
X111232142Y-85897380D02*
X111232142Y-84897380D01*
X110994047Y-84897380D01*
X110851190Y-84945000D01*
X110755952Y-85040238D01*
X110708333Y-85135476D01*
X110660714Y-85325952D01*
X110660714Y-85468809D01*
X110708333Y-85659285D01*
X110755952Y-85754523D01*
X110851190Y-85849761D01*
X110994047Y-85897380D01*
X111232142Y-85897380D01*
X110327380Y-84897380D02*
X109708333Y-84897380D01*
X110041666Y-85278333D01*
X109898809Y-85278333D01*
X109803571Y-85325952D01*
X109755952Y-85373571D01*
X109708333Y-85468809D01*
X109708333Y-85706904D01*
X109755952Y-85802142D01*
X109803571Y-85849761D01*
X109898809Y-85897380D01*
X110184523Y-85897380D01*
X110279761Y-85849761D01*
X110327380Y-85802142D01*
X109089285Y-84897380D02*
X108994047Y-84897380D01*
X108898809Y-84945000D01*
X108851190Y-84992619D01*
X108803571Y-85087857D01*
X108755952Y-85278333D01*
X108755952Y-85516428D01*
X108803571Y-85706904D01*
X108851190Y-85802142D01*
X108898809Y-85849761D01*
X108994047Y-85897380D01*
X109089285Y-85897380D01*
X109184523Y-85849761D01*
X109232142Y-85802142D01*
X109279761Y-85706904D01*
X109327380Y-85516428D01*
X109327380Y-85278333D01*
X109279761Y-85087857D01*
X109232142Y-84992619D01*
X109184523Y-84945000D01*
X109089285Y-84897380D01*
X124908333Y-125434761D02*
X124765476Y-125482380D01*
X124527380Y-125482380D01*
X124432142Y-125434761D01*
X124384523Y-125387142D01*
X124336904Y-125291904D01*
X124336904Y-125196666D01*
X124384523Y-125101428D01*
X124432142Y-125053809D01*
X124527380Y-125006190D01*
X124717857Y-124958571D01*
X124813095Y-124910952D01*
X124860714Y-124863333D01*
X124908333Y-124768095D01*
X124908333Y-124672857D01*
X124860714Y-124577619D01*
X124813095Y-124530000D01*
X124717857Y-124482380D01*
X124479761Y-124482380D01*
X124336904Y-124530000D01*
X124003571Y-124482380D02*
X123765476Y-125482380D01*
X123575000Y-124768095D01*
X123384523Y-125482380D01*
X123146428Y-124482380D01*
X122241666Y-125482380D02*
X122813095Y-125482380D01*
X122527380Y-125482380D02*
X122527380Y-124482380D01*
X122622619Y-124625238D01*
X122717857Y-124720476D01*
X122813095Y-124768095D01*
X135695476Y-125482380D02*
X136171666Y-125482380D01*
X136171666Y-124482380D01*
X134981190Y-125434761D02*
X135076428Y-125482380D01*
X135266904Y-125482380D01*
X135362142Y-125434761D01*
X135409761Y-125339523D01*
X135409761Y-124958571D01*
X135362142Y-124863333D01*
X135266904Y-124815714D01*
X135076428Y-124815714D01*
X134981190Y-124863333D01*
X134933571Y-124958571D01*
X134933571Y-125053809D01*
X135409761Y-125149047D01*
X134647857Y-124815714D02*
X134266904Y-124815714D01*
X134505000Y-125482380D02*
X134505000Y-124625238D01*
X134457380Y-124530000D01*
X134362142Y-124482380D01*
X134266904Y-124482380D01*
X134076428Y-124815714D02*
X133695476Y-124815714D01*
X133933571Y-124482380D02*
X133933571Y-125339523D01*
X133885952Y-125434761D01*
X133790714Y-125482380D01*
X133695476Y-125482380D01*
X119828333Y-120989761D02*
X119685476Y-121037380D01*
X119447380Y-121037380D01*
X119352142Y-120989761D01*
X119304523Y-120942142D01*
X119256904Y-120846904D01*
X119256904Y-120751666D01*
X119304523Y-120656428D01*
X119352142Y-120608809D01*
X119447380Y-120561190D01*
X119637857Y-120513571D01*
X119733095Y-120465952D01*
X119780714Y-120418333D01*
X119828333Y-120323095D01*
X119828333Y-120227857D01*
X119780714Y-120132619D01*
X119733095Y-120085000D01*
X119637857Y-120037380D01*
X119399761Y-120037380D01*
X119256904Y-120085000D01*
X118923571Y-120037380D02*
X118685476Y-121037380D01*
X118495000Y-120323095D01*
X118304523Y-121037380D01*
X118066428Y-120037380D01*
X117733095Y-120132619D02*
X117685476Y-120085000D01*
X117590238Y-120037380D01*
X117352142Y-120037380D01*
X117256904Y-120085000D01*
X117209285Y-120132619D01*
X117161666Y-120227857D01*
X117161666Y-120323095D01*
X117209285Y-120465952D01*
X117780714Y-121037380D01*
X117161666Y-121037380D01*
X119233095Y-110512380D02*
X119233095Y-111321904D01*
X119185476Y-111417142D01*
X119137857Y-111464761D01*
X119042619Y-111512380D01*
X118852142Y-111512380D01*
X118756904Y-111464761D01*
X118709285Y-111417142D01*
X118661666Y-111321904D01*
X118661666Y-110512380D01*
X118185476Y-110845714D02*
X118185476Y-111845714D01*
X118185476Y-110893333D02*
X118090238Y-110845714D01*
X117899761Y-110845714D01*
X117804523Y-110893333D01*
X117756904Y-110940952D01*
X117709285Y-111036190D01*
X117709285Y-111321904D01*
X117756904Y-111417142D01*
X117804523Y-111464761D01*
X117899761Y-111512380D01*
X118090238Y-111512380D01*
X118185476Y-111464761D01*
X119828333Y-129879761D02*
X119685476Y-129927380D01*
X119447380Y-129927380D01*
X119352142Y-129879761D01*
X119304523Y-129832142D01*
X119256904Y-129736904D01*
X119256904Y-129641666D01*
X119304523Y-129546428D01*
X119352142Y-129498809D01*
X119447380Y-129451190D01*
X119637857Y-129403571D01*
X119733095Y-129355952D01*
X119780714Y-129308333D01*
X119828333Y-129213095D01*
X119828333Y-129117857D01*
X119780714Y-129022619D01*
X119733095Y-128975000D01*
X119637857Y-128927380D01*
X119399761Y-128927380D01*
X119256904Y-128975000D01*
X118923571Y-128927380D02*
X118685476Y-129927380D01*
X118495000Y-129213095D01*
X118304523Y-129927380D01*
X118066428Y-128927380D01*
X117780714Y-128927380D02*
X117161666Y-128927380D01*
X117495000Y-129308333D01*
X117352142Y-129308333D01*
X117256904Y-129355952D01*
X117209285Y-129403571D01*
X117161666Y-129498809D01*
X117161666Y-129736904D01*
X117209285Y-129832142D01*
X117256904Y-129879761D01*
X117352142Y-129927380D01*
X117637857Y-129927380D01*
X117733095Y-129879761D01*
X117780714Y-129832142D01*
X120760476Y-138817380D02*
X120760476Y-137817380D01*
X120522380Y-137817380D01*
X120379523Y-137865000D01*
X120284285Y-137960238D01*
X120236666Y-138055476D01*
X120189047Y-138245952D01*
X120189047Y-138388809D01*
X120236666Y-138579285D01*
X120284285Y-138674523D01*
X120379523Y-138769761D01*
X120522380Y-138817380D01*
X120760476Y-138817380D01*
X119617619Y-138817380D02*
X119712857Y-138769761D01*
X119760476Y-138722142D01*
X119808095Y-138626904D01*
X119808095Y-138341190D01*
X119760476Y-138245952D01*
X119712857Y-138198333D01*
X119617619Y-138150714D01*
X119474761Y-138150714D01*
X119379523Y-138198333D01*
X119331904Y-138245952D01*
X119284285Y-138341190D01*
X119284285Y-138626904D01*
X119331904Y-138722142D01*
X119379523Y-138769761D01*
X119474761Y-138817380D01*
X119617619Y-138817380D01*
X118950952Y-138150714D02*
X118760476Y-138817380D01*
X118570000Y-138341190D01*
X118379523Y-138817380D01*
X118189047Y-138150714D01*
X117808095Y-138150714D02*
X117808095Y-138817380D01*
X117808095Y-138245952D02*
X117760476Y-138198333D01*
X117665238Y-138150714D01*
X117522380Y-138150714D01*
X117427142Y-138198333D01*
X117379523Y-138293571D01*
X117379523Y-138817380D01*
X114748333Y-125434761D02*
X114605476Y-125482380D01*
X114367380Y-125482380D01*
X114272142Y-125434761D01*
X114224523Y-125387142D01*
X114176904Y-125291904D01*
X114176904Y-125196666D01*
X114224523Y-125101428D01*
X114272142Y-125053809D01*
X114367380Y-125006190D01*
X114557857Y-124958571D01*
X114653095Y-124910952D01*
X114700714Y-124863333D01*
X114748333Y-124768095D01*
X114748333Y-124672857D01*
X114700714Y-124577619D01*
X114653095Y-124530000D01*
X114557857Y-124482380D01*
X114319761Y-124482380D01*
X114176904Y-124530000D01*
X113843571Y-124482380D02*
X113605476Y-125482380D01*
X113415000Y-124768095D01*
X113224523Y-125482380D01*
X112986428Y-124482380D01*
X112176904Y-124815714D02*
X112176904Y-125482380D01*
X112415000Y-124434761D02*
X112653095Y-125149047D01*
X112034047Y-125149047D01*
X102469047Y-125482380D02*
X102802380Y-125006190D01*
X103040476Y-125482380D02*
X103040476Y-124482380D01*
X102659523Y-124482380D01*
X102564285Y-124530000D01*
X102516666Y-124577619D01*
X102469047Y-124672857D01*
X102469047Y-124815714D01*
X102516666Y-124910952D01*
X102564285Y-124958571D01*
X102659523Y-125006190D01*
X103040476Y-125006190D01*
X102040476Y-125482380D02*
X102040476Y-124815714D01*
X102040476Y-124482380D02*
X102088095Y-124530000D01*
X102040476Y-124577619D01*
X101992857Y-124530000D01*
X102040476Y-124482380D01*
X102040476Y-124577619D01*
X101135714Y-124815714D02*
X101135714Y-125625238D01*
X101183333Y-125720476D01*
X101230952Y-125768095D01*
X101326190Y-125815714D01*
X101469047Y-125815714D01*
X101564285Y-125768095D01*
X101135714Y-125434761D02*
X101230952Y-125482380D01*
X101421428Y-125482380D01*
X101516666Y-125434761D01*
X101564285Y-125387142D01*
X101611904Y-125291904D01*
X101611904Y-125006190D01*
X101564285Y-124910952D01*
X101516666Y-124863333D01*
X101421428Y-124815714D01*
X101230952Y-124815714D01*
X101135714Y-124863333D01*
X100659523Y-125482380D02*
X100659523Y-124482380D01*
X100230952Y-125482380D02*
X100230952Y-124958571D01*
X100278571Y-124863333D01*
X100373809Y-124815714D01*
X100516666Y-124815714D01*
X100611904Y-124863333D01*
X100659523Y-124910952D01*
X99897619Y-124815714D02*
X99516666Y-124815714D01*
X99754761Y-124482380D02*
X99754761Y-125339523D01*
X99707142Y-125434761D01*
X99611904Y-125482380D01*
X99516666Y-125482380D01*
M02*
