M48
METRIC
T1C0.500
%
G90
G05
T1
X144.25Y-129.25
X144.25Y-130.0
X144.25Y-130.75
X144.25Y-131.5
X144.25Y-132.25
X144.25Y-133.0
X144.25Y-133.75
X145.75Y-129.25
X145.75Y-130.0
X145.75Y-130.75
X145.75Y-131.5
X145.75Y-132.25
X145.75Y-133.0
X145.75Y-133.75
X144.25Y-44.25
X144.25Y-45.0
X144.25Y-45.75
X144.25Y-46.5
X144.25Y-47.25
X144.25Y-48.0
X144.25Y-48.75
X145.75Y-44.25
X145.75Y-45.0
X145.75Y-45.75
X145.75Y-46.5
X145.75Y-47.25
X145.75Y-48.0
X145.75Y-48.75
X144.25Y-87.25
X144.25Y-88.0
X144.25Y-88.75
X144.25Y-89.5
X144.25Y-90.25
X144.25Y-91.0
X144.25Y-91.75
X145.75Y-87.25
X145.75Y-88.0
X145.75Y-88.75
X145.75Y-89.5
X145.75Y-90.25
X145.75Y-91.0
X145.75Y-91.75
T0
M30
