%FSLAX45Y45*%
G04 Gerber Fmt 4.5, Leading zero omitted, Abs format (unit mm)*
G04 Created by KiCad (PCBNEW (5.1.5)-3) date 2022-03-28 13:22:25*
%MOMM*%
%LPD*%
G04 APERTURE LIST*
%TA.AperFunction,Profile*%
%ADD10C,0.050000*%
%TD*%
%ADD11C,0.200000*%
%ADD12C,0.300000*%
G04 APERTURE END LIST*
D10*
X18753605Y-4852500D02*
G75*
G03X18753605Y-4852500I-179605J0D01*
G01*
X15705605Y-7392500D02*
G75*
G03X15705605Y-7392500I-179605J0D01*
G01*
X18753605Y-7392500D02*
G75*
G03X18753605Y-7392500I-179605J0D01*
G01*
X15125000Y-13400000D02*
G75*
G03X15125000Y-13400000I-175000J0D01*
G01*
X15125000Y-4400000D02*
G75*
G03X15125000Y-4400000I-175000J0D01*
G01*
X17228000Y-12416000D02*
G75*
G03X17228000Y-12416000I-175000J0D01*
G01*
X19325000Y-13400000D02*
G75*
G03X19325000Y-13400000I-175000J0D01*
G01*
X15705605Y-4852500D02*
G75*
G03X15705605Y-4852500I-179605J0D01*
G01*
X19325000Y-4400000D02*
G75*
G03X19325000Y-4400000I-175000J0D01*
G01*
X14800000Y-13899538D02*
G75*
G02X14600000Y-13699538I0J200000D01*
G01*
X14600000Y-13499538D02*
X14600000Y-13699538D01*
X14400000Y-13699538D02*
X14400000Y-13499538D01*
X14600000Y-12799538D02*
X14600000Y-9299538D01*
X14400000Y-9299538D02*
X14400000Y-12799538D01*
X14600000Y-8599538D02*
X14600000Y-4999538D01*
X14400000Y-4999538D02*
X14400000Y-8599538D01*
X14400000Y-13499538D02*
G75*
G02X14600000Y-13499538I100000J0D01*
G01*
X14600000Y-12799538D02*
G75*
G02X14400000Y-12799538I-100000J0D01*
G01*
X14400000Y-9299538D02*
G75*
G02X14600000Y-9299538I100000J0D01*
G01*
X14600000Y-8599538D02*
G75*
G02X14400000Y-8599538I-100000J0D01*
G01*
X14400000Y-4999538D02*
G75*
G02X14600000Y-4999538I100000J0D01*
G01*
X14600000Y-4299538D02*
G75*
G02X14400000Y-4299538I-100000J0D01*
G01*
X14600000Y-4099538D02*
X14600000Y-4299538D01*
X14400000Y-4099538D02*
X14400000Y-4299538D01*
X19300000Y-3899538D02*
G75*
G02X19500000Y-4099538I0J-200000D01*
G01*
X19500000Y-13699538D02*
G75*
G02X19300000Y-13899538I-200000J0D01*
G01*
X19300000Y-13899538D02*
X14800000Y-13899538D01*
X19500000Y-4099538D02*
X19500000Y-13699538D01*
X14600000Y-4099538D02*
G75*
G02X14800000Y-3899538I200000J0D01*
G01*
X14800000Y-3899538D02*
X19300000Y-3900000D01*
X14200000Y-3899538D02*
G75*
G02X14400000Y-4099538I0J-200000D01*
G01*
X14400000Y-13699538D02*
G75*
G02X14200000Y-13899538I-200000J0D01*
G01*
X9699163Y-13899538D02*
G75*
G02X9499163Y-13699538I0J200000D01*
G01*
X9499163Y-4099538D02*
G75*
G02X9699163Y-3899538I200000J0D01*
G01*
X14200000Y-13900000D02*
X9699163Y-13899538D01*
X9699163Y-3899538D02*
X14200000Y-3899538D01*
X9499163Y-13699538D02*
X9499163Y-4099538D01*
X10605605Y-7392500D02*
G75*
G03X10605605Y-7392500I-179605J0D01*
G01*
X13653605Y-7392500D02*
G75*
G03X13653605Y-7392500I-179605J0D01*
G01*
X13653605Y-4852500D02*
G75*
G03X13653605Y-4852500I-179605J0D01*
G01*
X10605605Y-4852500D02*
G75*
G03X10605605Y-4852500I-179605J0D01*
G01*
X12128000Y-12416000D02*
G75*
G03X12128000Y-12416000I-175000J0D01*
G01*
X10025000Y-13400000D02*
G75*
G03X10025000Y-13400000I-175000J0D01*
G01*
X14225000Y-13400000D02*
G75*
G03X14225000Y-13400000I-175000J0D01*
G01*
X14225000Y-4400000D02*
G75*
G03X14225000Y-4400000I-175000J0D01*
G01*
X10025000Y-4400000D02*
G75*
G03X10025000Y-4400000I-175000J0D01*
G01*
D11*
X14400000Y-12900000D02*
X14450000Y-12950000D01*
X14450000Y-12900000D02*
X14400000Y-12950000D01*
X14400000Y-12975000D02*
X14450000Y-13025000D01*
X14450000Y-12975000D02*
X14400000Y-13025000D01*
X14400000Y-13050000D02*
X14450000Y-13100000D01*
X14450000Y-13050000D02*
X14400000Y-13100000D01*
X14400000Y-13125000D02*
X14450000Y-13175000D01*
X14450000Y-13125000D02*
X14400000Y-13175000D01*
X14400000Y-13200000D02*
X14450000Y-13250000D01*
X14450000Y-13200000D02*
X14400000Y-13250000D01*
X14400000Y-13275000D02*
X14450000Y-13325000D01*
X14450000Y-13275000D02*
X14400000Y-13325000D01*
X14400000Y-13350000D02*
X14450000Y-13400000D01*
X14450000Y-13350000D02*
X14400000Y-13400000D01*
X14550000Y-12900000D02*
X14600000Y-12950000D01*
X14600000Y-12900000D02*
X14550000Y-12950000D01*
X14550000Y-12975000D02*
X14600000Y-13025000D01*
X14600000Y-12975000D02*
X14550000Y-13025000D01*
X14550000Y-13050000D02*
X14600000Y-13100000D01*
X14600000Y-13050000D02*
X14550000Y-13100000D01*
X14550000Y-13125000D02*
X14600000Y-13175000D01*
X14600000Y-13125000D02*
X14550000Y-13175000D01*
X14550000Y-13200000D02*
X14600000Y-13250000D01*
X14600000Y-13200000D02*
X14550000Y-13250000D01*
X14550000Y-13275000D02*
X14600000Y-13325000D01*
X14600000Y-13275000D02*
X14550000Y-13325000D01*
X14550000Y-13350000D02*
X14600000Y-13400000D01*
X14600000Y-13350000D02*
X14550000Y-13400000D01*
X14400000Y-4400000D02*
X14450000Y-4450000D01*
X14450000Y-4400000D02*
X14400000Y-4450000D01*
X14400000Y-4475000D02*
X14450000Y-4525000D01*
X14450000Y-4475000D02*
X14400000Y-4525000D01*
X14400000Y-4550000D02*
X14450000Y-4600000D01*
X14450000Y-4550000D02*
X14400000Y-4600000D01*
X14400000Y-4625000D02*
X14450000Y-4675000D01*
X14450000Y-4625000D02*
X14400000Y-4675000D01*
X14400000Y-4700000D02*
X14450000Y-4750000D01*
X14450000Y-4700000D02*
X14400000Y-4750000D01*
X14400000Y-4775000D02*
X14450000Y-4825000D01*
X14450000Y-4775000D02*
X14400000Y-4825000D01*
X14400000Y-4850000D02*
X14450000Y-4900000D01*
X14450000Y-4850000D02*
X14400000Y-4900000D01*
X14550000Y-4400000D02*
X14600000Y-4450000D01*
X14600000Y-4400000D02*
X14550000Y-4450000D01*
X14550000Y-4475000D02*
X14600000Y-4525000D01*
X14600000Y-4475000D02*
X14550000Y-4525000D01*
X14550000Y-4550000D02*
X14600000Y-4600000D01*
X14600000Y-4550000D02*
X14550000Y-4600000D01*
X14550000Y-4625000D02*
X14600000Y-4675000D01*
X14600000Y-4625000D02*
X14550000Y-4675000D01*
X14550000Y-4700000D02*
X14600000Y-4750000D01*
X14600000Y-4700000D02*
X14550000Y-4750000D01*
X14550000Y-4775000D02*
X14600000Y-4825000D01*
X14600000Y-4775000D02*
X14550000Y-4825000D01*
X14550000Y-4850000D02*
X14600000Y-4900000D01*
X14600000Y-4850000D02*
X14550000Y-4900000D01*
X14400000Y-8700000D02*
X14450000Y-8750000D01*
X14450000Y-8700000D02*
X14400000Y-8750000D01*
X14400000Y-8775000D02*
X14450000Y-8825000D01*
X14450000Y-8775000D02*
X14400000Y-8825000D01*
X14400000Y-8850000D02*
X14450000Y-8900000D01*
X14450000Y-8850000D02*
X14400000Y-8900000D01*
X14400000Y-8925000D02*
X14450000Y-8975000D01*
X14450000Y-8925000D02*
X14400000Y-8975000D01*
X14400000Y-9000000D02*
X14450000Y-9050000D01*
X14450000Y-9000000D02*
X14400000Y-9050000D01*
X14400000Y-9075000D02*
X14450000Y-9125000D01*
X14450000Y-9075000D02*
X14400000Y-9125000D01*
X14400000Y-9150000D02*
X14450000Y-9200000D01*
X14450000Y-9150000D02*
X14400000Y-9200000D01*
X14550000Y-8700000D02*
X14600000Y-8750000D01*
X14600000Y-8700000D02*
X14550000Y-8750000D01*
X14550000Y-8775000D02*
X14600000Y-8825000D01*
X14600000Y-8775000D02*
X14550000Y-8825000D01*
X14550000Y-8850000D02*
X14600000Y-8900000D01*
X14600000Y-8850000D02*
X14550000Y-8900000D01*
X14550000Y-8925000D02*
X14600000Y-8975000D01*
X14600000Y-8925000D02*
X14550000Y-8975000D01*
X14550000Y-9000000D02*
X14600000Y-9050000D01*
X14600000Y-9000000D02*
X14550000Y-9050000D01*
X14550000Y-9075000D02*
X14600000Y-9125000D01*
X14600000Y-9075000D02*
X14550000Y-9125000D01*
X14550000Y-9150000D02*
X14600000Y-9200000D01*
X14600000Y-9150000D02*
X14550000Y-9200000D01*
D12*
X9783091Y-14368214D02*
X9783091Y-14068214D01*
X9854520Y-14068214D01*
X9897377Y-14082500D01*
X9925949Y-14111071D01*
X9940234Y-14139643D01*
X9954520Y-14196786D01*
X9954520Y-14239643D01*
X9940234Y-14296786D01*
X9925949Y-14325357D01*
X9897377Y-14353929D01*
X9854520Y-14368214D01*
X9783091Y-14368214D01*
X10083091Y-14368214D02*
X10083091Y-14168214D01*
X10083091Y-14225357D02*
X10097377Y-14196786D01*
X10111663Y-14182500D01*
X10140234Y-14168214D01*
X10168806Y-14168214D01*
X10268806Y-14368214D02*
X10268806Y-14168214D01*
X10268806Y-14068214D02*
X10254520Y-14082500D01*
X10268806Y-14096786D01*
X10283091Y-14082500D01*
X10268806Y-14068214D01*
X10268806Y-14096786D01*
X10454520Y-14368214D02*
X10425949Y-14353929D01*
X10411663Y-14325357D01*
X10411663Y-14068214D01*
X10611663Y-14368214D02*
X10583091Y-14353929D01*
X10568806Y-14325357D01*
X10568806Y-14068214D01*
X10954520Y-14368214D02*
X10954520Y-14068214D01*
X11054520Y-14282500D01*
X11154520Y-14068214D01*
X11154520Y-14368214D01*
X11425948Y-14368214D02*
X11425948Y-14211071D01*
X11411663Y-14182500D01*
X11383091Y-14168214D01*
X11325948Y-14168214D01*
X11297377Y-14182500D01*
X11425948Y-14353929D02*
X11397377Y-14368214D01*
X11325948Y-14368214D01*
X11297377Y-14353929D01*
X11283091Y-14325357D01*
X11283091Y-14296786D01*
X11297377Y-14268214D01*
X11325948Y-14253929D01*
X11397377Y-14253929D01*
X11425948Y-14239643D01*
X11568806Y-14168214D02*
X11568806Y-14468214D01*
X11568806Y-14182500D02*
X11597377Y-14168214D01*
X11654520Y-14168214D01*
X11683091Y-14182500D01*
X11697377Y-14196786D01*
X11711663Y-14225357D01*
X11711663Y-14311071D01*
X11697377Y-14339643D01*
X11683091Y-14353929D01*
X11654520Y-14368214D01*
X11597377Y-14368214D01*
X11568806Y-14353929D01*
X11840234Y-14339643D02*
X11854520Y-14353929D01*
X11840234Y-14368214D01*
X11825948Y-14353929D01*
X11840234Y-14339643D01*
X11840234Y-14368214D01*
X11840234Y-14182500D02*
X11854520Y-14196786D01*
X11840234Y-14211071D01*
X11825948Y-14196786D01*
X11840234Y-14182500D01*
X11840234Y-14211071D01*
X9446663Y-14837500D02*
X9496663Y-14887500D01*
X9496663Y-14837500D02*
X9446663Y-14887500D01*
X9840234Y-14698214D02*
X9868806Y-14698214D01*
X9897377Y-14712500D01*
X9911663Y-14726786D01*
X9925949Y-14755357D01*
X9940234Y-14812500D01*
X9940234Y-14883929D01*
X9925949Y-14941071D01*
X9911663Y-14969643D01*
X9897377Y-14983929D01*
X9868806Y-14998214D01*
X9840234Y-14998214D01*
X9811663Y-14983929D01*
X9797377Y-14969643D01*
X9783091Y-14941071D01*
X9768806Y-14883929D01*
X9768806Y-14812500D01*
X9783091Y-14755357D01*
X9797377Y-14726786D01*
X9811663Y-14712500D01*
X9840234Y-14698214D01*
X10068806Y-14969643D02*
X10083091Y-14983929D01*
X10068806Y-14998214D01*
X10054520Y-14983929D01*
X10068806Y-14969643D01*
X10068806Y-14998214D01*
X10354520Y-14698214D02*
X10211663Y-14698214D01*
X10197377Y-14841071D01*
X10211663Y-14826786D01*
X10240234Y-14812500D01*
X10311663Y-14812500D01*
X10340234Y-14826786D01*
X10354520Y-14841071D01*
X10368806Y-14869643D01*
X10368806Y-14941071D01*
X10354520Y-14969643D01*
X10340234Y-14983929D01*
X10311663Y-14998214D01*
X10240234Y-14998214D01*
X10211663Y-14983929D01*
X10197377Y-14969643D01*
X10554520Y-14698214D02*
X10583091Y-14698214D01*
X10611663Y-14712500D01*
X10625949Y-14726786D01*
X10640234Y-14755357D01*
X10654520Y-14812500D01*
X10654520Y-14883929D01*
X10640234Y-14941071D01*
X10625949Y-14969643D01*
X10611663Y-14983929D01*
X10583091Y-14998214D01*
X10554520Y-14998214D01*
X10525949Y-14983929D01*
X10511663Y-14969643D01*
X10497377Y-14941071D01*
X10483091Y-14883929D01*
X10483091Y-14812500D01*
X10497377Y-14755357D01*
X10511663Y-14726786D01*
X10525949Y-14712500D01*
X10554520Y-14698214D01*
X10783091Y-14998214D02*
X10783091Y-14798214D01*
X10783091Y-14826786D02*
X10797377Y-14812500D01*
X10825949Y-14798214D01*
X10868806Y-14798214D01*
X10897377Y-14812500D01*
X10911663Y-14841071D01*
X10911663Y-14998214D01*
X10911663Y-14841071D02*
X10925949Y-14812500D01*
X10954520Y-14798214D01*
X10997377Y-14798214D01*
X11025949Y-14812500D01*
X11040234Y-14841071D01*
X11040234Y-14998214D01*
X11183091Y-14998214D02*
X11183091Y-14798214D01*
X11183091Y-14826786D02*
X11197377Y-14812500D01*
X11225948Y-14798214D01*
X11268806Y-14798214D01*
X11297377Y-14812500D01*
X11311663Y-14841071D01*
X11311663Y-14998214D01*
X11311663Y-14841071D02*
X11325948Y-14812500D01*
X11354520Y-14798214D01*
X11397377Y-14798214D01*
X11425948Y-14812500D01*
X11440234Y-14841071D01*
X11440234Y-14998214D01*
X12025948Y-14683929D02*
X11768806Y-15069643D01*
X12411663Y-14698214D02*
X12440234Y-14698214D01*
X12468806Y-14712500D01*
X12483091Y-14726786D01*
X12497377Y-14755357D01*
X12511663Y-14812500D01*
X12511663Y-14883929D01*
X12497377Y-14941071D01*
X12483091Y-14969643D01*
X12468806Y-14983929D01*
X12440234Y-14998214D01*
X12411663Y-14998214D01*
X12383091Y-14983929D01*
X12368806Y-14969643D01*
X12354520Y-14941071D01*
X12340234Y-14883929D01*
X12340234Y-14812500D01*
X12354520Y-14755357D01*
X12368806Y-14726786D01*
X12383091Y-14712500D01*
X12411663Y-14698214D01*
X12640234Y-14969643D02*
X12654520Y-14983929D01*
X12640234Y-14998214D01*
X12625948Y-14983929D01*
X12640234Y-14969643D01*
X12640234Y-14998214D01*
X12840234Y-14698214D02*
X12868806Y-14698214D01*
X12897377Y-14712500D01*
X12911663Y-14726786D01*
X12925948Y-14755357D01*
X12940234Y-14812500D01*
X12940234Y-14883929D01*
X12925948Y-14941071D01*
X12911663Y-14969643D01*
X12897377Y-14983929D01*
X12868806Y-14998214D01*
X12840234Y-14998214D01*
X12811663Y-14983929D01*
X12797377Y-14969643D01*
X12783091Y-14941071D01*
X12768806Y-14883929D01*
X12768806Y-14812500D01*
X12783091Y-14755357D01*
X12797377Y-14726786D01*
X12811663Y-14712500D01*
X12840234Y-14698214D01*
X13054520Y-14726786D02*
X13068806Y-14712500D01*
X13097377Y-14698214D01*
X13168806Y-14698214D01*
X13197377Y-14712500D01*
X13211663Y-14726786D01*
X13225948Y-14755357D01*
X13225948Y-14783929D01*
X13211663Y-14826786D01*
X13040234Y-14998214D01*
X13225948Y-14998214D01*
X13411663Y-14698214D02*
X13440234Y-14698214D01*
X13468806Y-14712500D01*
X13483091Y-14726786D01*
X13497377Y-14755357D01*
X13511663Y-14812500D01*
X13511663Y-14883929D01*
X13497377Y-14941071D01*
X13483091Y-14969643D01*
X13468806Y-14983929D01*
X13440234Y-14998214D01*
X13411663Y-14998214D01*
X13383091Y-14983929D01*
X13368806Y-14969643D01*
X13354520Y-14941071D01*
X13340234Y-14883929D01*
X13340234Y-14812500D01*
X13354520Y-14755357D01*
X13368806Y-14726786D01*
X13383091Y-14712500D01*
X13411663Y-14698214D01*
X13625948Y-14698214D02*
X13625948Y-14755357D01*
X13740234Y-14698214D02*
X13740234Y-14755357D01*
X14183091Y-15112500D02*
X14168806Y-15098214D01*
X14140234Y-15055357D01*
X14125948Y-15026786D01*
X14111663Y-14983929D01*
X14097377Y-14912500D01*
X14097377Y-14855357D01*
X14111663Y-14783929D01*
X14125948Y-14741071D01*
X14140234Y-14712500D01*
X14168806Y-14669643D01*
X14183091Y-14655357D01*
X14425948Y-14798214D02*
X14425948Y-14998214D01*
X14354520Y-14683929D02*
X14283091Y-14898214D01*
X14468806Y-14898214D01*
X14568806Y-14726786D02*
X14583091Y-14712500D01*
X14611663Y-14698214D01*
X14683091Y-14698214D01*
X14711663Y-14712500D01*
X14725948Y-14726786D01*
X14740234Y-14755357D01*
X14740234Y-14783929D01*
X14725948Y-14826786D01*
X14554520Y-14998214D01*
X14740234Y-14998214D01*
X15097377Y-14998214D02*
X15097377Y-14698214D01*
X15225948Y-14998214D02*
X15225948Y-14841071D01*
X15211663Y-14812500D01*
X15183091Y-14798214D01*
X15140234Y-14798214D01*
X15111663Y-14812500D01*
X15097377Y-14826786D01*
X15411663Y-14998214D02*
X15383091Y-14983929D01*
X15368806Y-14969643D01*
X15354520Y-14941071D01*
X15354520Y-14855357D01*
X15368806Y-14826786D01*
X15383091Y-14812500D01*
X15411663Y-14798214D01*
X15454520Y-14798214D01*
X15483091Y-14812500D01*
X15497377Y-14826786D01*
X15511663Y-14855357D01*
X15511663Y-14941071D01*
X15497377Y-14969643D01*
X15483091Y-14983929D01*
X15454520Y-14998214D01*
X15411663Y-14998214D01*
X15683091Y-14998214D02*
X15654520Y-14983929D01*
X15640234Y-14955357D01*
X15640234Y-14698214D01*
X15911663Y-14983929D02*
X15883091Y-14998214D01*
X15825948Y-14998214D01*
X15797377Y-14983929D01*
X15783091Y-14955357D01*
X15783091Y-14841071D01*
X15797377Y-14812500D01*
X15825948Y-14798214D01*
X15883091Y-14798214D01*
X15911663Y-14812500D01*
X15925948Y-14841071D01*
X15925948Y-14869643D01*
X15783091Y-14898214D01*
X16040234Y-14983929D02*
X16068806Y-14998214D01*
X16125948Y-14998214D01*
X16154520Y-14983929D01*
X16168806Y-14955357D01*
X16168806Y-14941071D01*
X16154520Y-14912500D01*
X16125948Y-14898214D01*
X16083091Y-14898214D01*
X16054520Y-14883929D01*
X16040234Y-14855357D01*
X16040234Y-14841071D01*
X16054520Y-14812500D01*
X16083091Y-14798214D01*
X16125948Y-14798214D01*
X16154520Y-14812500D01*
X16268806Y-15112500D02*
X16283091Y-15098214D01*
X16311663Y-15055357D01*
X16325948Y-15026786D01*
X16340234Y-14983929D01*
X16354520Y-14912500D01*
X16354520Y-14855357D01*
X16340234Y-14783929D01*
X16325948Y-14741071D01*
X16311663Y-14712500D01*
X16283091Y-14669643D01*
X16268806Y-14655357D01*
X16811663Y-15112500D02*
X16797377Y-15098214D01*
X16768806Y-15055357D01*
X16754520Y-15026786D01*
X16740234Y-14983929D01*
X16725948Y-14912500D01*
X16725948Y-14855357D01*
X16740234Y-14783929D01*
X16754520Y-14741071D01*
X16768806Y-14712500D01*
X16797377Y-14669643D01*
X16811663Y-14655357D01*
X16925949Y-14798214D02*
X16925949Y-14998214D01*
X16925949Y-14826786D02*
X16940234Y-14812500D01*
X16968806Y-14798214D01*
X17011663Y-14798214D01*
X17040234Y-14812500D01*
X17054520Y-14841071D01*
X17054520Y-14998214D01*
X17240234Y-14998214D02*
X17211663Y-14983929D01*
X17197377Y-14969643D01*
X17183091Y-14941071D01*
X17183091Y-14855357D01*
X17197377Y-14826786D01*
X17211663Y-14812500D01*
X17240234Y-14798214D01*
X17283091Y-14798214D01*
X17311663Y-14812500D01*
X17325949Y-14826786D01*
X17340234Y-14855357D01*
X17340234Y-14941071D01*
X17325949Y-14969643D01*
X17311663Y-14983929D01*
X17283091Y-14998214D01*
X17240234Y-14998214D01*
X17425949Y-14798214D02*
X17540234Y-14798214D01*
X17468806Y-14698214D02*
X17468806Y-14955357D01*
X17483091Y-14983929D01*
X17511663Y-14998214D01*
X17540234Y-14998214D01*
X17868806Y-14798214D02*
X17868806Y-15098214D01*
X17868806Y-14812500D02*
X17897377Y-14798214D01*
X17954520Y-14798214D01*
X17983091Y-14812500D01*
X17997377Y-14826786D01*
X18011663Y-14855357D01*
X18011663Y-14941071D01*
X17997377Y-14969643D01*
X17983091Y-14983929D01*
X17954520Y-14998214D01*
X17897377Y-14998214D01*
X17868806Y-14983929D01*
X18183091Y-14998214D02*
X18154520Y-14983929D01*
X18140234Y-14955357D01*
X18140234Y-14698214D01*
X18425949Y-14998214D02*
X18425949Y-14841071D01*
X18411663Y-14812500D01*
X18383091Y-14798214D01*
X18325949Y-14798214D01*
X18297377Y-14812500D01*
X18425949Y-14983929D02*
X18397377Y-14998214D01*
X18325949Y-14998214D01*
X18297377Y-14983929D01*
X18283091Y-14955357D01*
X18283091Y-14926786D01*
X18297377Y-14898214D01*
X18325949Y-14883929D01*
X18397377Y-14883929D01*
X18425949Y-14869643D01*
X18525949Y-14798214D02*
X18640234Y-14798214D01*
X18568806Y-14698214D02*
X18568806Y-14955357D01*
X18583091Y-14983929D01*
X18611663Y-14998214D01*
X18640234Y-14998214D01*
X18854520Y-14983929D02*
X18825949Y-14998214D01*
X18768806Y-14998214D01*
X18740234Y-14983929D01*
X18725949Y-14955357D01*
X18725949Y-14841071D01*
X18740234Y-14812500D01*
X18768806Y-14798214D01*
X18825949Y-14798214D01*
X18854520Y-14812500D01*
X18868806Y-14841071D01*
X18868806Y-14869643D01*
X18725949Y-14898214D01*
X19125949Y-14998214D02*
X19125949Y-14698214D01*
X19125949Y-14983929D02*
X19097377Y-14998214D01*
X19040234Y-14998214D01*
X19011663Y-14983929D01*
X18997377Y-14969643D01*
X18983091Y-14941071D01*
X18983091Y-14855357D01*
X18997377Y-14826786D01*
X19011663Y-14812500D01*
X19040234Y-14798214D01*
X19097377Y-14798214D01*
X19125949Y-14812500D01*
X19240234Y-15112500D02*
X19254520Y-15098214D01*
X19283091Y-15055357D01*
X19297377Y-15026786D01*
X19311663Y-14983929D01*
X19325949Y-14912500D01*
X19325949Y-14855357D01*
X19311663Y-14783929D01*
X19297377Y-14741071D01*
X19283091Y-14712500D01*
X19254520Y-14669643D01*
X19240234Y-14655357D01*
M02*
