M48
METRIC
T1C0.635
T2C0.800
T3C0.900
T4C1.000
T5C1.100
T6C1.300
%
G90
G05
T1
X147.64Y-67.575
X147.64Y-70.115
X147.64Y-72.655
X96.64Y-67.575
X96.64Y-70.115
X96.64Y-72.655
T2
X178.12Y-96.785
X179.37Y-96.785
X181.87Y-96.785
X183.12Y-96.785
X166.69Y-95.515
X171.57Y-95.515
X136.01Y-96.785
X137.26Y-96.785
X139.76Y-96.785
X141.01Y-96.785
X97.91Y-101.945
X97.91Y-103.195
X97.91Y-105.695
X97.91Y-106.945
X183.835Y-80.275
X183.835Y-90.435
X126.485Y-80.275
X126.485Y-90.435
X190.82Y-101.865
X190.82Y-106.945
X193.36Y-104.405
X187.01Y-96.785
X188.26Y-96.785
X190.76Y-96.785
X192.01Y-96.785
X110.61Y-80.275
X110.61Y-90.435
X174.31Y-80.275
X174.31Y-90.435
X154.705Y-96.785
X155.955Y-96.785
X158.455Y-96.785
X159.705Y-96.785
X120.135Y-80.275
X120.135Y-90.435
X139.82Y-101.865
X139.82Y-106.945
X142.36Y-104.405
X177.485Y-80.275
X177.485Y-90.435
X101.76Y-66.94
X104.26Y-66.94
X153.355Y-91.07
X155.895Y-93.61
X158.435Y-91.07
X116.96Y-80.275
X116.96Y-90.435
X113.785Y-80.275
X113.785Y-90.435
X171.135Y-80.275
X171.135Y-90.435
X102.355Y-91.07
X104.895Y-93.61
X107.435Y-91.07
X148.91Y-101.945
X148.91Y-103.195
X148.91Y-105.695
X148.91Y-106.945
X103.705Y-96.785
X104.955Y-96.785
X107.455Y-96.785
X108.705Y-96.785
X123.31Y-80.275
X123.31Y-90.435
X115.69Y-95.515
X120.57Y-95.515
X192.09Y-71.385
X192.09Y-72.635
X192.09Y-75.135
X192.09Y-76.385
X152.76Y-66.94
X155.26Y-66.94
X161.61Y-80.275
X161.61Y-90.435
X132.835Y-80.275
X132.835Y-90.435
X167.96Y-80.275
X167.96Y-90.435
X141.09Y-71.385
X141.09Y-72.635
X141.09Y-75.135
X141.09Y-76.385
X164.785Y-80.275
X164.785Y-90.435
X127.12Y-96.785
X128.37Y-96.785
X130.87Y-96.785
X132.12Y-96.785
X153.99Y-100.595
X153.99Y-108.215
X156.53Y-100.595
X156.53Y-108.215
X159.07Y-100.595
X159.07Y-108.215
X161.61Y-100.595
X161.61Y-108.215
X164.15Y-100.595
X164.15Y-108.215
X166.69Y-100.595
X166.69Y-108.215
X169.23Y-100.595
X169.23Y-108.215
X171.77Y-100.595
X171.77Y-108.215
X174.31Y-100.595
X174.31Y-108.215
X176.85Y-100.595
X176.85Y-108.215
X179.39Y-100.595
X179.39Y-108.215
X181.93Y-100.595
X181.93Y-108.215
X184.47Y-100.595
X184.47Y-108.215
X187.01Y-100.595
X187.01Y-108.215
X102.99Y-100.595
X102.99Y-108.215
X105.53Y-100.595
X105.53Y-108.215
X108.07Y-100.595
X108.07Y-108.215
X110.61Y-100.595
X110.61Y-108.215
X113.15Y-100.595
X113.15Y-108.215
X115.69Y-100.595
X115.69Y-108.215
X118.23Y-100.595
X118.23Y-108.215
X120.77Y-100.595
X120.77Y-108.215
X123.31Y-100.595
X123.31Y-108.215
X125.85Y-100.595
X125.85Y-108.215
X128.39Y-100.595
X128.39Y-108.215
X130.93Y-100.595
X130.93Y-108.215
X133.47Y-100.595
X133.47Y-108.215
X136.01Y-100.595
X136.01Y-108.215
T3
X179.415Y-48.53
X181.955Y-48.53
X128.415Y-53.61
X130.955Y-53.61
X174.335Y-58.69
X176.875Y-58.69
X113.175Y-53.61
X115.715Y-53.61
X159.095Y-74.565
X161.635Y-74.565
X169.255Y-63.77
X171.795Y-63.77
X108.095Y-68.85
X110.635Y-68.85
X123.335Y-63.77
X125.875Y-63.77
X174.335Y-74.565
X176.875Y-74.565
X169.255Y-53.61
X171.795Y-53.61
X123.335Y-58.69
X125.875Y-58.69
X174.335Y-53.61
X176.875Y-53.61
X113.175Y-48.53
X115.715Y-48.53
X159.095Y-63.77
X161.635Y-63.77
X179.415Y-68.85
X181.955Y-68.85
X118.255Y-68.85
X120.795Y-68.85
X128.415Y-74.565
X130.955Y-74.565
X174.335Y-68.85
X176.875Y-68.85
X108.095Y-58.69
X110.635Y-58.69
X164.175Y-58.69
X166.715Y-58.69
X108.095Y-48.53
X110.635Y-48.53
X179.415Y-58.69
X181.955Y-58.69
X123.335Y-53.61
X125.875Y-53.61
X164.175Y-74.565
X166.715Y-74.565
X164.175Y-68.85
X166.715Y-68.85
X113.175Y-63.77
X115.715Y-63.77
X113.175Y-68.85
X115.715Y-68.85
X179.415Y-53.61
X181.955Y-53.61
X108.095Y-53.61
X110.635Y-53.61
X118.255Y-58.69
X120.795Y-58.69
X164.175Y-48.53
X166.715Y-48.53
X159.095Y-48.53
X161.635Y-48.53
X169.255Y-74.565
X171.795Y-74.565
X169.255Y-68.85
X171.795Y-68.85
X179.415Y-74.565
X181.955Y-74.565
X108.095Y-74.565
X110.635Y-74.565
X123.335Y-68.85
X125.875Y-68.85
X174.335Y-48.53
X176.875Y-48.53
X128.415Y-58.69
X130.955Y-58.69
X164.175Y-53.61
X166.715Y-53.61
X113.175Y-58.69
X115.715Y-58.69
X169.255Y-58.69
X171.795Y-58.69
X128.415Y-63.77
X130.955Y-63.77
X159.095Y-68.85
X161.635Y-68.85
X113.175Y-74.565
X115.715Y-74.565
X108.095Y-63.77
X110.635Y-63.77
X118.255Y-53.61
X120.795Y-53.61
X159.095Y-53.61
X161.635Y-53.61
X128.415Y-48.53
X130.955Y-48.53
X159.095Y-58.69
X161.635Y-58.69
X118.255Y-74.565
X120.795Y-74.565
X118.255Y-63.77
X120.795Y-63.77
X169.255Y-48.53
X171.795Y-48.53
X123.335Y-48.53
X125.875Y-48.53
X174.335Y-63.77
X176.875Y-63.77
X118.255Y-48.53
X120.795Y-48.53
X164.175Y-63.77
X166.715Y-63.77
X179.415Y-63.77
X181.955Y-63.77
X123.335Y-74.565
X125.875Y-74.565
X128.415Y-68.85
X130.955Y-68.85
T4
X187.645Y-89.8
X187.645Y-92.34
X190.185Y-89.8
X190.185Y-92.34
X192.725Y-89.8
X192.725Y-92.34
X167.175Y-124.09
X173.675Y-124.09
X136.645Y-89.8
X136.645Y-92.34
X139.185Y-89.8
X139.185Y-92.34
X141.725Y-89.8
X141.725Y-92.34
X116.175Y-124.09
X122.675Y-124.09
X135.375Y-54.24
X135.375Y-56.78
X135.375Y-59.32
X135.375Y-61.86
X135.375Y-64.4
X135.375Y-66.94
X186.375Y-54.24
X186.375Y-56.78
X186.375Y-59.32
X186.375Y-61.86
X186.375Y-64.4
X186.375Y-66.94
T5
X148.91Y-88.53
X148.91Y-98.69
X180.66Y-80.275
X180.66Y-90.435
X97.91Y-88.53
X97.91Y-98.69
X156.53Y-121.845
X156.53Y-126.345
X163.03Y-121.845
X163.03Y-126.345
X187.645Y-79.49
X187.645Y-85.99
X192.145Y-79.49
X192.145Y-85.99
X105.53Y-121.845
X105.53Y-126.345
X112.03Y-121.845
X112.03Y-126.345
X136.645Y-79.49
X136.645Y-85.99
X141.145Y-79.49
X141.145Y-85.99
X129.66Y-80.275
X129.66Y-90.435
X116.25Y-131.02
X116.25Y-135.52
X122.75Y-131.02
X122.75Y-135.52
X178.12Y-121.845
X178.12Y-126.345
X184.62Y-121.845
X184.62Y-126.345
X127.12Y-121.845
X127.12Y-126.345
X133.62Y-121.845
X133.62Y-126.345
X167.25Y-112.605
X167.25Y-117.105
X173.75Y-112.605
X173.75Y-117.105
X167.25Y-131.02
X167.25Y-135.52
X173.75Y-131.02
X173.75Y-135.52
X116.25Y-112.605
X116.25Y-117.105
X122.75Y-112.605
X122.75Y-117.105
T6
X152.085Y-54.875
X101.085Y-54.875
T4
X100.8Y-81.18G85X100.8Y-83.18
G05
X102.8Y-86.88G85X104.8Y-86.88
G05
X106.8Y-81.18G85X106.8Y-83.18
G05
X151.8Y-81.18G85X151.8Y-83.18
G05
X153.8Y-86.88G85X155.8Y-86.88
G05
X157.8Y-81.18G85X157.8Y-83.18
G05
T6
X152.085Y-59.621G85X152.085Y-60.129
G05
X101.085Y-59.621G85X101.085Y-60.129
G05
T0
M30
