G04 #@! TF.GenerationSoftware,KiCad,Pcbnew,(5.1.5)-3*
G04 #@! TF.CreationDate,2022-03-28T13:22:09+02:00*
G04 #@! TF.ProjectId,Panel-Game-Console,50616e65-6c2d-4476-916d-652d436f6e73,v3.3*
G04 #@! TF.SameCoordinates,Original*
G04 #@! TF.FileFunction,Profile,NP*
%FSLAX46Y46*%
G04 Gerber Fmt 4.6, Leading zero omitted, Abs format (unit mm)*
G04 Created by KiCad (PCBNEW (5.1.5)-3) date 2022-03-28 13:22:09*
%MOMM*%
%LPD*%
G04 APERTURE LIST*
%ADD10C,0.050000*%
G04 APERTURE END LIST*
D10*
X187536051Y-48525000D02*
G75*
G03X187536051Y-48525000I-1796051J0D01*
G01*
X157056051Y-73925000D02*
G75*
G03X157056051Y-73925000I-1796051J0D01*
G01*
X187536051Y-73925000D02*
G75*
G03X187536051Y-73925000I-1796051J0D01*
G01*
X151250000Y-134000000D02*
G75*
G03X151250000Y-134000000I-1750000J0D01*
G01*
X151250000Y-44000000D02*
G75*
G03X151250000Y-44000000I-1750000J0D01*
G01*
X172280000Y-124160000D02*
G75*
G03X172280000Y-124160000I-1750000J0D01*
G01*
X193250000Y-134000000D02*
G75*
G03X193250000Y-134000000I-1750000J0D01*
G01*
X157056051Y-48525000D02*
G75*
G03X157056051Y-48525000I-1796051J0D01*
G01*
X193250000Y-44000000D02*
G75*
G03X193250000Y-44000000I-1750000J0D01*
G01*
X148000000Y-138995380D02*
G75*
G02X146000000Y-136995380I0J2000000D01*
G01*
X146000000Y-134995380D02*
X146000000Y-136995380D01*
X144000000Y-136995380D02*
X144000000Y-134995380D01*
X146000000Y-127995380D02*
X146000000Y-92995380D01*
X144000000Y-92995380D02*
X144000000Y-127995380D01*
X146000000Y-85995380D02*
X146000000Y-49995380D01*
X144000000Y-49995380D02*
X144000000Y-85995380D01*
X144000000Y-134995380D02*
G75*
G02X146000000Y-134995380I1000000J0D01*
G01*
X146000000Y-127995380D02*
G75*
G02X144000000Y-127995380I-1000000J0D01*
G01*
X144000000Y-92995380D02*
G75*
G02X146000000Y-92995380I1000000J0D01*
G01*
X146000000Y-85995380D02*
G75*
G02X144000000Y-85995380I-1000000J0D01*
G01*
X144000000Y-49995380D02*
G75*
G02X146000000Y-49995380I1000000J0D01*
G01*
X146000000Y-42995380D02*
G75*
G02X144000000Y-42995380I-1000000J0D01*
G01*
X146000000Y-40995380D02*
X146000000Y-42995380D01*
X144000000Y-40995380D02*
X144000000Y-42995380D01*
X193000000Y-38995380D02*
G75*
G02X195000000Y-40995380I0J-2000000D01*
G01*
X195000000Y-136995380D02*
G75*
G02X193000000Y-138995380I-2000000J0D01*
G01*
X193000000Y-138995380D02*
X148000000Y-138995380D01*
X195000000Y-40995380D02*
X195000000Y-136995380D01*
X146000000Y-40995380D02*
G75*
G02X148000000Y-38995380I2000000J0D01*
G01*
X148000000Y-38995380D02*
X193000000Y-39000000D01*
X142000000Y-38995380D02*
G75*
G02X144000000Y-40995380I0J-2000000D01*
G01*
X144000000Y-136995380D02*
G75*
G02X142000000Y-138995380I-2000000J0D01*
G01*
X96991629Y-138995380D02*
G75*
G02X94991629Y-136995380I0J2000000D01*
G01*
X94991629Y-40995380D02*
G75*
G02X96991629Y-38995380I2000000J0D01*
G01*
X142000000Y-139000000D02*
X96991629Y-138995380D01*
X96991629Y-38995380D02*
X142000000Y-38995380D01*
X94991629Y-136995380D02*
X94991629Y-40995380D01*
X106056051Y-73925000D02*
G75*
G03X106056051Y-73925000I-1796051J0D01*
G01*
X136536051Y-73925000D02*
G75*
G03X136536051Y-73925000I-1796051J0D01*
G01*
X136536051Y-48525000D02*
G75*
G03X136536051Y-48525000I-1796051J0D01*
G01*
X106056051Y-48525000D02*
G75*
G03X106056051Y-48525000I-1796051J0D01*
G01*
X121280000Y-124160000D02*
G75*
G03X121280000Y-124160000I-1750000J0D01*
G01*
X100250000Y-134000000D02*
G75*
G03X100250000Y-134000000I-1750000J0D01*
G01*
X142250000Y-134000000D02*
G75*
G03X142250000Y-134000000I-1750000J0D01*
G01*
X142250000Y-44000000D02*
G75*
G03X142250000Y-44000000I-1750000J0D01*
G01*
X100250000Y-44000000D02*
G75*
G03X100250000Y-44000000I-1750000J0D01*
G01*
M02*
