M48
INCH,TZ
T1C0.0250
T2C0.0295
T3C0.0315
T4C0.0354
T5C0.0394
T6C0.0433
T7C0.0512
%
G90
G05
T1
X57980Y-30224
X57980Y-31224
X57980Y-32224
X37902Y-30224
X37902Y-31224
X37902Y-32224
T2
X59980Y-30224
X60480Y-30224
X60980Y-30224
X39902Y-30224
X40402Y-30224
X40902Y-30224
T3
X60480Y-39724
X60480Y-42724
X61480Y-39724
X61480Y-42724
X62480Y-39724
X62480Y-42724
X63480Y-39724
X63480Y-42724
X64480Y-39724
X64480Y-42724
X65480Y-39724
X65480Y-42724
X66480Y-39724
X66480Y-42724
X67480Y-39724
X67480Y-42724
X68480Y-39724
X68480Y-42724
X69480Y-39724
X69480Y-42724
X70480Y-39724
X70480Y-42724
X71480Y-39724
X71480Y-42724
X72480Y-39724
X72480Y-42724
X73480Y-39724
X73480Y-42724
X39683Y-32474
X40175Y-32474
X41159Y-32474
X41652Y-32474
X70480Y-38474
X71465Y-38474
X64980Y-34474
X64980Y-38474
X41152Y-34474
X41152Y-38474
X64980Y-18474
X65472Y-18474
X66457Y-18474
X66949Y-18474
X40402Y-39724
X40402Y-42724
X41402Y-39724
X41402Y-42724
X42402Y-39724
X42402Y-42724
X43402Y-39724
X43402Y-42724
X44402Y-39724
X44402Y-42724
X45402Y-39724
X45402Y-42724
X46402Y-39724
X46402Y-42724
X47402Y-39724
X47402Y-42724
X48402Y-39724
X48402Y-42724
X49402Y-39724
X49402Y-42724
X50402Y-39724
X50402Y-42724
X51402Y-39724
X51402Y-42724
X52402Y-39724
X52402Y-42724
X53402Y-39724
X53402Y-42724
X73262Y-35474
X73754Y-35474
X74738Y-35474
X75230Y-35474
X44902Y-34474
X44902Y-38474
X44902Y-18474
X45394Y-18474
X46378Y-18474
X46870Y-18474
X50402Y-38474
X51386Y-38474
X59980Y-34474
X59980Y-38474
X53183Y-35474
X53675Y-35474
X54659Y-35474
X55152Y-35474
X43652Y-34474
X43652Y-38474
X47402Y-34474
X51402Y-34474
X73262Y-37474
X73754Y-37474
X74738Y-37474
X75230Y-37474
X67480Y-34474
X71480Y-34474
X53183Y-37474
X53675Y-37474
X54659Y-37474
X55152Y-37474
X42402Y-34474
X42402Y-38474
X63730Y-34474
X63730Y-38474
X68480Y-36474
X70402Y-36474
X66230Y-34474
X66230Y-38474
X59762Y-32474
X60254Y-32474
X61238Y-32474
X61730Y-32474
X46152Y-34474
X46152Y-38474
X47402Y-38474
X48386Y-38474
X62480Y-34474
X62480Y-38474
X39902Y-34474
X39902Y-38474
X61230Y-34474
X61230Y-38474
X48402Y-36474
X50323Y-36474
X67480Y-38474
X68465Y-38474
T4
X49152Y-32474
X50152Y-32474
X49152Y-30474
X50152Y-30474
X49152Y-26474
X50152Y-26474
X67230Y-24474
X68230Y-24474
X63230Y-26474
X64230Y-26474
X43152Y-32474
X44152Y-32474
X47152Y-26474
X48152Y-26474
X47152Y-32474
X48152Y-32474
X43152Y-22474
X44152Y-22474
X51152Y-32474
X52152Y-32474
X51152Y-26474
X52152Y-26474
X71230Y-28474
X72230Y-28474
X69230Y-30474
X70230Y-30474
X65230Y-22474
X66230Y-22474
X47152Y-30474
X48152Y-30474
X43152Y-24474
X44152Y-24474
X45152Y-30474
X46152Y-30474
X45152Y-22474
X46152Y-22474
X67230Y-22474
X68230Y-22474
X45152Y-24474
X46152Y-24474
X65230Y-32474
X66230Y-32474
X63230Y-24474
X64230Y-24474
X71230Y-24474
X72230Y-24474
X65230Y-28474
X66230Y-28474
X43152Y-30474
X44152Y-30474
X47152Y-24474
X48152Y-24474
X51152Y-30474
X52152Y-30474
X47152Y-22474
X48152Y-22474
X65230Y-26474
X66230Y-26474
X67230Y-26474
X68230Y-26474
X69230Y-28474
X70230Y-28474
X67230Y-32474
X68230Y-32474
X71230Y-22474
X72230Y-22474
X71230Y-32474
X72230Y-32474
X43152Y-26474
X44152Y-26474
X51152Y-24474
X52152Y-24474
X43152Y-28474
X44152Y-28474
X67230Y-30474
X68230Y-30474
X51152Y-22474
X52152Y-22474
X69230Y-22474
X70230Y-22474
X63230Y-30474
X64230Y-30474
X67230Y-28474
X68230Y-28474
X49152Y-28474
X50152Y-28474
X45152Y-26474
X46152Y-26474
X47152Y-28474
X48152Y-28474
X49152Y-24474
X50152Y-24474
X69230Y-26474
X70230Y-26474
X63230Y-32474
X64230Y-32474
X69230Y-32474
X70230Y-32474
X65230Y-30474
X66230Y-30474
X63230Y-22474
X64230Y-22474
X45152Y-28474
X46152Y-28474
X51152Y-28474
X52152Y-28474
X45152Y-32474
X46152Y-32474
X49152Y-22474
X50152Y-22474
X63230Y-28474
X64230Y-28474
X65230Y-24474
X66230Y-24474
X71230Y-30474
X72230Y-30474
X71230Y-26474
X72230Y-26474
X69230Y-24474
X70230Y-24474
T5
X48909Y-17974
X51902Y-17974
X68988Y-17974
X71980Y-17974
X73480Y-19974
X73480Y-20974
X73480Y-21974
X73480Y-22974
X73480Y-23974
X73480Y-24974
X73980Y-26974
X73980Y-27974
X73980Y-28974
X74980Y-26974
X74980Y-27974
X74980Y-28974
X45152Y-16724
X46152Y-16724
X53902Y-26974
X53902Y-27974
X53902Y-28974
X54902Y-26974
X54902Y-27974
X54902Y-28974
X53402Y-19974
X53402Y-20974
X53402Y-21974
X53402Y-22974
X53402Y-23974
X53402Y-24974
X65230Y-16724
X66230Y-16724
T6
X61480Y-48203
X61480Y-49974
X64039Y-48203
X64039Y-49974
X45402Y-44703
X45402Y-46474
X47961Y-44703
X47961Y-46474
X43902Y-20224
X47902Y-20224
X65480Y-51703
X65480Y-53474
X68039Y-51703
X68039Y-53474
X65480Y-44703
X65480Y-46474
X68039Y-44703
X68039Y-46474
X69480Y-48203
X69480Y-49974
X72039Y-48203
X72039Y-49974
X63980Y-20224
X67980Y-20224
X53630Y-30974
X53630Y-33533
X55402Y-30974
X55402Y-33533
X41402Y-48203
X41402Y-49974
X43961Y-48203
X43961Y-49974
X45402Y-51703
X45402Y-53474
X47961Y-51703
X47961Y-53474
X49402Y-48203
X49402Y-49974
X51961Y-48203
X51961Y-49974
X73709Y-30974
X73709Y-33533
X75480Y-30974
X75480Y-33533
T7
X59980Y-25224
X39902Y-25224
T5
G00X39220Y-20730
M15
G01X39220Y-21518
M16
G05
G00X40008Y-22974
M15
G01X40795Y-22974
M16
G05
G00X41583Y-20730
M15
G01X41583Y-21518
M16
G05
G00X59299Y-20730
M15
G01X59299Y-21518
M16
G05
G00X60087Y-22974
M15
G01X60874Y-22974
M16
G05
G00X61661Y-20730
M15
G01X61661Y-21518
M16
G05
T7
G00X59980Y-27093
M15
G01X59980Y-27293
M16
G05
G00X39902Y-27093
M15
G01X39902Y-27293
M16
G05
T0
M30
